<svg xmlns="http://www.w3.org/2000/svg" xmlns:xlink="http://www.w3.org/1999/xlink" contentStyleType="text/css" data-diagram-type="DESCRIPTION" height="505px" preserveAspectRatio="none" style="width:564px;height:505px;background:#FFFFFF;" version="1.1" viewBox="0 0 564 505" width="564px" zoomAndPan="magnify"><?plantuml 1.2026.3beta4?><defs/><g><!--cluster PostgreSQL Server--><g class="cluster" data-qualified-name="PostgreSQL Server" data-source-line="9" id="ent0002"><rect fill="#FFFFFF" height="206.59" rx="2.5" ry="2.5" style="stroke:#000000;stroke-width:1;" width="376" x="12" y="284.6"/><text fill="#000000" font-family="Verdana" font-size="14" font-weight="700" lengthAdjust="spacing" textLength="149.1123" x="125.4438" y="299.5951">PostgreSQL Server</text></g><!--cluster Metrics Store--><g class="cluster" data-qualified-name="Metrics Store" data-source-line="15" id="ent0006"><rect fill="#FFFFFF" height="87.3" rx="2.5" ry="2.5" style="stroke:#000000;stroke-width:1;" width="136" x="249" y="148.3"/><text fill="#000000" font-family="Verdana" font-size="14" font-weight="700" lengthAdjust="spacing" textLength="106.1211" x="263.9395" y="163.2951">Metrics Store</text></g><!--cluster Optimization Engine--><g class="cluster" data-qualified-name="Optimization Engine" data-source-line="19" id="ent0008"><rect fill="#FFFFFF" height="87.3" rx="2.5" ry="2.5" style="stroke:#000000;stroke-width:1;" width="176" x="77" y="12"/><text fill="#000000" font-family="Verdana" font-size="14" font-weight="700" lengthAdjust="spacing" textLength="160.1592" x="84.9204" y="26.9951">Optimization Engine</text></g><!--cluster Load Generator--><g class="cluster" data-qualified-name="Load Generator" data-source-line="23" id="ent0010"><rect fill="#FFFFFF" height="87.29" rx="2.5" ry="2.5" style="stroke:#000000;stroke-width:1;" width="138" x="412" y="284.6"/><text fill="#000000" font-family="Verdana" font-size="14" font-weight="700" lengthAdjust="spacing" textLength="122.8965" x="419.5518" y="299.5951">Load Generator</text></g><!--entity db--><g class="entity" data-qualified-name="PostgreSQL Server.db" data-source-line="10" id="ent0003"><path d="M231.6,439.89 C231.6,429.89 275.0004,429.89 275.0004,429.89 C275.0004,429.89 318.4008,429.89 318.4008,439.89 L318.4008,465.1869 C318.4008,475.1869 275.0004,475.1869 275.0004,475.1869 C275.0004,475.1869 231.6,475.1869 231.6,465.1869 L231.6,439.89" fill="#FFFFFF" style="stroke:#000000;stroke-width:1;"/><path d="M231.6,439.89 C231.6,449.89 275.0004,449.89 275.0004,449.89 C275.0004,449.89 318.4008,449.89 318.4008,439.89" fill="none" style="stroke:#000000;stroke-width:1;"/><text fill="#000000" font-family="Verdana" font-size="14" lengthAdjust="spacing" textLength="66.8008" x="241.6" y="466.8851">Database</text></g><!--entity agent--><g class="entity" data-qualified-name="PostgreSQL Server.agent" data-source-line="11" id="ent0004"><rect fill="#FFFFFF" height="36.2969" rx="2.5" ry="2.5" style="stroke:#000000;stroke-width:1;" width="145.0908" x="28.45" y="319.6"/><text fill="#000000" font-family="Verdana" font-size="14" lengthAdjust="spacing" textLength="125.0908" x="38.45" y="342.5951">Agent component</text></g><!--entity ext--><g class="entity" data-qualified-name="PostgreSQL Server.ext" data-source-line="12" id="ent0005"><rect fill="#FFFFFF" height="36.2969" rx="2.5" ry="2.5" style="stroke:#000000;stroke-width:1;" width="157.9971" x="214" y="319.6"/><text fill="#000000" font-family="Verdana" font-size="14" lengthAdjust="spacing" textLength="137.9971" x="224" y="342.5951">pg_stat_statements</text></g><!--entity prom--><g class="entity" data-qualified-name="Metrics Store.prom" data-source-line="16" id="ent0007"><rect fill="#FFFFFF" height="36.2969" rx="2.5" ry="2.5" style="stroke:#000000;stroke-width:1;" width="104.1572" x="264.92" y="183.3"/><text fill="#000000" font-family="Verdana" font-size="14" lengthAdjust="spacing" textLength="84.1572" x="274.92" y="206.2951">Prometheus</text></g><!--entity smac--><g class="entity" data-qualified-name="Optimization Engine.smac" data-source-line="20" id="ent0009"><rect fill="#FFFFFF" height="36.2969" rx="2.5" ry="2.5" style="stroke:#000000;stroke-width:1;" width="60.3184" x="134.84" y="47"/><text fill="#000000" font-family="Verdana" font-size="14" lengthAdjust="spacing" textLength="40.3184" x="144.84" y="69.9951">SMAC</text></g><!--entity bench--><g class="entity" data-qualified-name="Load Generator.bench" data-source-line="24" id="ent0011"><rect fill="#FFFFFF" height="36.2969" rx="2.5" ry="2.5" style="stroke:#000000;stroke-width:1;" width="80.7168" x="427.64" y="319.6"/><text fill="#000000" font-family="Verdana" font-size="14" lengthAdjust="spacing" textLength="60.7168" x="437.64" y="342.5951">pgbench</text></g><!--link bench to db--><g class="link" data-entity-1="ent0011" data-entity-2="ent0003" data-link-type="dependency" data-source-line="27" id="lnk12"><path d="M451.22,356.35 C436.64,370.87 414.4,391.23 392,404.89 C369.23,418.79 347.2512,428.0423 324.5512,436.0123" fill="none" id="bench-to-db" style="stroke:#000000;stroke-width:1;"/><polygon fill="#000000" points="318.89,438,328.7069,438.7927,323.6077,436.3436,326.0567,431.2444,318.89,438" style="stroke:#000000;stroke-width:1;"/><text fill="#000000" font-family="Verdana" font-size="13" lengthAdjust="spacing" textLength="90.8096" x="415" y="400.9569">generate load</text></g><!--link ext to db--><g class="link" data-entity-1="ent0005" data-entity-2="ent0003" data-link-type="dependency" data-source-line="28" id="lnk13"><path d="M290.19,356.37 C287.02,376.2 282.8255,402.495 279.4155,423.865" fill="none" id="ext-to-db" style="stroke:#000000;stroke-width:1;"/><polygon fill="#000000" points="278.47,429.79,283.8382,421.5327,279.2579,424.8525,275.9382,420.2721,278.47,429.79" style="stroke:#000000;stroke-width:1;"/><text fill="#000000" font-family="Verdana" font-size="13" lengthAdjust="spacing" textLength="95.6655" x="286" y="400.9569">gather metrics</text></g><!--link prom to ext--><g class="link" data-entity-1="ent0007" data-entity-2="ent0005" data-link-type="dependency" data-source-line="29" id="lnk14"><path d="M313.86,220 C309.26,245.74 301.7955,287.5336 297.1955,313.2736" fill="none" id="prom-to-ext" style="stroke:#000000;stroke-width:1;"/><polygon fill="#000000" points="296.14,319.18,301.6609,311.0241,297.0196,314.258,293.7857,309.6167,296.14,319.18" style="stroke:#000000;stroke-width:1;"/><text fill="#000000" font-family="Verdana" font-size="13" lengthAdjust="spacing" textLength="96.8335" x="308" y="264.6669">poll db metrics</text></g><!--link agent to db--><g class="link" data-entity-1="ent0004" data-entity-2="ent0003" data-link-type="dependency" data-source-line="30" id="lnk15"><path d="M118.87,356.18 C134.05,370.4 156.84,390.44 179,404.89 C195.3,415.52 208.9375,422.7544 225.7675,430.5644" fill="none" id="agent-to-db" style="stroke:#000000;stroke-width:1;"/><polygon fill="#000000" points="231.21,433.09,224.7299,425.6732,226.6746,430.9853,221.3624,432.9299,231.21,433.09" style="stroke:#000000;stroke-width:1;"/><text fill="#000000" font-family="Verdana" font-size="13" lengthAdjust="spacing" textLength="91.7554" x="180" y="400.9569">change config</text></g><!--link smac to agent--><g class="link" data-entity-1="ent0009" data-entity-2="ent0004" data-link-type="dependency" data-source-line="31" id="lnk16"><path d="M142.9,83.63 C127.62,97.22 108.56,117.55 100,140.3 C76.58,202.54 88.1797,278.0696 95.6297,313.3296" fill="none" id="smac-to-agent" style="stroke:#000000;stroke-width:1;"/><polygon fill="#000000" points="96.87,319.2,98.9231,309.5675,95.8364,314.308,91.0959,311.2213,96.87,319.2" style="stroke:#000000;stroke-width:1;"/><text fill="#000000" font-family="Verdana" font-size="13" lengthAdjust="spacing" textLength="145.5898" x="101" y="206.0169">request config change</text></g><!--link smac to prom--><g class="link" data-entity-1="ent0009" data-entity-2="ent0007" data-link-type="dependency" data-source-line="32" id="lnk17"><path d="M184.87,83.71 C214,109.45 263.4938,153.1771 292.6238,178.9171" fill="none" id="smac-to-prom" style="stroke:#000000;stroke-width:1;"/><polygon fill="#000000" points="297.12,182.89,293.0243,173.9331,293.3732,179.5792,287.7271,179.928,297.12,182.89" style="stroke:#000000;stroke-width:1;"/><text fill="#000000" font-family="Verdana" font-size="13" lengthAdjust="spacing" textLength="74.1152" x="237" y="128.3669">get metrics</text></g><?plantuml-src TL9DJyCm3BtdLvZU9t60omv84o0kcnZg3q1kwwNH6YSa7f_YlvDatTOXw25r_TwpdvrUI4-Mm0zeMCMjOOy1BRJEUiV4Kil7G12e5MGzq8J2hgD87guk9yc0lCt9wsdIOxj5JV-NYZrsxismXWqEaPGu3-AWSIBEGcUonZXMQgm4rTf5qO7gfoNK55ufLF2b83qT2ZOO4-LkZ2h025rJqEDOK2rqVXqJXOKvzulezNCKb7AaJR74pAHtKTyJFokIODe8jRX01o-JRklWBALLxs9fvDFdcVxHYx7c4_EOSC_Qy5zLwjNYjkYZnVPCltJOmGCn1KmE_f1wtH2tVL6NACjB0BFPJTeFp47lzGH3ggRIY1C8a_a0TZ-coluBc4bpy6uOCky0bpsUn6sVBfoI6zuOhRBtWkrPy_H7lEmeoeYFx1EjzChcv53_1m00?></g></svg>