<svg xmlns="http://www.w3.org/2000/svg" xmlns:xlink="http://www.w3.org/1999/xlink" contentStyleType="text/css" data-diagram-type="DESCRIPTION" height="514px" preserveAspectRatio="none" style="width:964px;height:514px;background:#FFFFFF;" version="1.1" viewBox="0 0 964 514" width="964px" zoomAndPan="magnify"><defs/><g><!--cluster Optimization Engine (optimizer.py)--><g class="cluster" data-entity="Optimization Engine (optimizer.py)" data-source-line="8" data-uid="ent0002" id="cluster_Optimization Engine (optimizer.py)"><path d="M13.5,11 L252.6191,11 A3.75,3.75 0 0 1 255.1191,13.5 L262.1191,31.584 L357.5,31.584 A2.5,2.5 0 0 1 360,34.084 L360,255.12 A2.5,2.5 0 0 1 357.5,257.62 L13.5,257.62 A2.5,2.5 0 0 1 11,255.12 L11,13.5 A2.5,2.5 0 0 1 13.5,11" fill="#F0F4FF" style="stroke:#000000;stroke-width:1;"/><line style="stroke:#000000;stroke-width:1;" x1="11" x2="262.1191" y1="31.584" y2="31.584"/><text fill="#000000" font-family="Verdana" font-size="12" font-weight="bold" lengthAdjust="spacing" textLength="238.1191" x="15" y="25.0645">Optimization Engine (optimizer.py)</text></g><!--cluster PostgreSQL Server--><g class="cluster" data-entity="PostgreSQL Server" data-source-line="19" data-uid="ent0010" id="cluster_PostgreSQL Server"><path d="M386.5,153.74 L514.1094,153.74 A3.75,3.75 0 0 1 516.6094,156.24 L523.6094,174.324 L684.5,174.324 A2.5,2.5 0 0 1 687,176.824 L687,392.81 A2.5,2.5 0 0 1 684.5,395.31 L386.5,395.31 A2.5,2.5 0 0 1 384,392.81 L384,156.24 A2.5,2.5 0 0 1 386.5,153.74" fill="#E8F5E9" style="stroke:#000000;stroke-width:1;"/><line style="stroke:#000000;stroke-width:1;" x1="384" x2="523.6094" y1="174.324" y2="174.324"/><text fill="#000000" font-family="Verdana" font-size="12" font-weight="bold" lengthAdjust="spacing" textLength="126.6094" x="388" y="167.8045">PostgreSQL Server</text></g><!--cluster Metrics Store--><g class="cluster" data-entity="Metrics Store" data-source-line="25" data-uid="ent0014" id="cluster_Metrics Store"><path d="M143.5,306.62 L233.8203,306.62 A3.75,3.75 0 0 1 236.3203,309.12 L243.3203,327.204 L357.5,327.204 A2.5,2.5 0 0 1 360,329.704 L360,505.18 A2.5,2.5 0 0 1 357.5,507.68 L143.5,507.68 A2.5,2.5 0 0 1 141,505.18 L141,309.12 A2.5,2.5 0 0 1 143.5,306.62" fill="#FCE4EC" style="stroke:#000000;stroke-width:1;"/><line style="stroke:#000000;stroke-width:1;" x1="141" x2="243.3203" y1="327.204" y2="327.204"/><text fill="#000000" font-family="Verdana" font-size="12" font-weight="bold" lengthAdjust="spacing" textLength="89.3203" x="145" y="320.6845">Metrics Store</text></g><!--cluster Load Generator--><g class="cluster" data-entity="Load Generator" data-source-line="30" data-uid="ent0017" id="cluster_Load Generator"><path d="M713.5,160.42 L818.7617,160.42 A3.75,3.75 0 0 1 821.2617,162.92 L828.2617,181.004 L828.5,181.004 A2.5,2.5 0 0 1 831,183.504 L831,240.29 A2.5,2.5 0 0 1 828.5,242.79 L713.5,242.79 A2.5,2.5 0 0 1 711,240.29 L711,162.92 A2.5,2.5 0 0 1 713.5,160.42" fill="#FFF8E1" style="stroke:#000000;stroke-width:1;"/><line style="stroke:#000000;stroke-width:1;" x1="711" x2="828.2617" y1="181.004" y2="181.004"/><text fill="#000000" font-family="Verdana" font-size="12" font-weight="bold" lengthAdjust="spacing" textLength="104.2617" x="715" y="174.4845">Load Generator</text></g><!--entity optuna--><g class="entity" data-entity="optuna" data-source-line="9" data-uid="ent0003" id="entity_optuna"><rect fill="#FFFFFF" height="33.3687" rx="2.5" ry="2.5" style="stroke:#000000;stroke-width:1;" width="96.4199" x="47.79" y="50.68"/><text fill="#000000" font-family="Verdana" font-size="11" lengthAdjust="spacing" textLength="76.4199" x="57.79" y="71.7391">Optuna Study</text></g><!--entity smac--><g class="entity" data-entity="smac" data-source-line="10" data-uid="ent0004" id="entity_smac"><rect fill="#FFFFFF" height="33.3687" rx="2.5" ry="2.5" style="stroke:#000000;stroke-width:1;" width="101.8018" x="27.1" y="193.42"/><text fill="#000000" font-family="Verdana" font-size="11" lengthAdjust="spacing" textLength="81.8018" x="37.1" y="214.4791">SMAC Sampler</text></g><!--entity tpe--><g class="entity" data-entity="tpe" data-source-line="11" data-uid="ent0005" id="entity_tpe"><rect fill="#FFFFFF" height="46.7373" rx="2.5" ry="2.5" style="stroke:#000000;stroke-width:1;" width="90.1787" x="253.91" y="44"/><text fill="#000000" font-family="Verdana" font-size="11" lengthAdjust="spacing" textLength="70.1787" x="263.91" y="65.0591">TPE Sampler</text><text fill="#000000" font-family="Verdana" font-size="11" lengthAdjust="spacing" textLength="52.2017" x="263.91" y="78.4277">(fallback)</text></g><!--entity studydb--><g class="entity" data-entity="studydb" data-source-line="12" data-uid="ent0006" id="entity_studydb"><path d="M163.51,188.59 C163.51,178.59 232.9997,178.59 232.9997,178.59 C232.9997,178.59 302.4895,178.59 302.4895,188.59 L302.4895,231.6193 C302.4895,241.6193 232.9997,241.6193 232.9997,241.6193 C232.9997,241.6193 163.51,241.6193 163.51,231.6193 L163.51,188.59" fill="#FFFFFF" style="stroke:#000000;stroke-width:1;"/><path d="M163.51,188.59 C163.51,198.59 232.9997,198.59 232.9997,198.59 C232.9997,198.59 302.4895,198.59 302.4895,188.59" fill="none" style="stroke:#000000;stroke-width:1;"/><text fill="#000000" font-family="Verdana" font-size="14" lengthAdjust="spacing" textLength="118.9795" x="173.51" y="216.6652">optuna_study.db</text><text fill="#000000" font-family="Verdana" font-size="14" lengthAdjust="spacing" textLength="58.7959" x="173.51" y="233.6798">(SQLite)</text></g><!--entity agent--><g class="entity" data-entity="agent" data-source-line="20" data-uid="ent0011" id="entity_agent"><rect fill="#FFFFFF" height="46.7373" rx="2.5" ry="2.5" style="stroke:#000000;stroke-width:1;" width="117.0288" x="553.49" y="186.74"/><text fill="#000000" font-family="Verdana" font-size="11" lengthAdjust="spacing" textLength="32.2212" x="563.49" y="207.7991">Agent</text><text fill="#000000" font-family="Verdana" font-size="11" lengthAdjust="spacing" textLength="97.0288" x="563.49" y="221.1677">(pg_manager.py)</text></g><!--entity db--><g class="entity" data-entity="db" data-source-line="21" data-uid="ent0012" id="entity_db"><path d="M487.05,343.3 C487.05,333.3 548.9963,333.3 548.9963,333.3 C548.9963,333.3 610.9426,333.3 610.9426,343.3 L610.9426,369.3146 C610.9426,379.3146 548.9963,379.3146 548.9963,379.3146 C548.9963,379.3146 487.05,379.3146 487.05,369.3146 L487.05,343.3" fill="#FFFFFF" style="stroke:#000000;stroke-width:1;"/><path d="M487.05,343.3 C487.05,353.3 548.9963,353.3 548.9963,353.3 C548.9963,353.3 610.9426,353.3 610.9426,343.3" fill="none" style="stroke:#000000;stroke-width:1;"/><text fill="#000000" font-family="Verdana" font-size="14" lengthAdjust="spacing" textLength="103.8926" x="497.05" y="371.3752">PostgreSQL 17</text></g><!--entity pgstat--><g class="entity" data-entity="pgstat" data-source-line="22" data-uid="ent0013" id="entity_pgstat"><rect fill="#FFFFFF" height="33.3687" rx="2.5" ry="2.5" style="stroke:#000000;stroke-width:1;" width="118.8442" x="399.58" y="193.42"/><text fill="#000000" font-family="Verdana" font-size="11" lengthAdjust="spacing" textLength="98.8442" x="409.58" y="214.4791">pg_stat_database</text></g><!--entity exporter--><g class="entity" data-entity="exporter" data-source-line="26" data-uid="ent0015" id="entity_exporter"><rect fill="#FFFFFF" height="33.3687" rx="2.5" ry="2.5" style="stroke:#000000;stroke-width:1;" width="119.29" x="190.35" y="339.62"/><text fill="#000000" font-family="Verdana" font-size="11" lengthAdjust="spacing" textLength="99.29" x="200.35" y="360.6791">postgres-exporter</text></g><!--entity prom--><g class="entity" data-entity="prom" data-source-line="27" data-uid="ent0016" id="entity_prom"><rect fill="#FFFFFF" height="33.3687" rx="2.5" ry="2.5" style="stroke:#000000;stroke-width:1;" width="85.7959" x="207.1" y="458.31"/><text fill="#000000" font-family="Verdana" font-size="11" lengthAdjust="spacing" textLength="65.7959" x="217.1" y="479.3691">Prometheus</text></g><!--entity bench--><g class="entity" data-entity="bench" data-source-line="31" data-uid="ent0018" id="entity_bench"><rect fill="#FFFFFF" height="33.3687" rx="2.5" ry="2.5" style="stroke:#000000;stroke-width:1;" width="66.7661" x="726.62" y="193.42"/><text fill="#000000" font-family="Verdana" font-size="11" lengthAdjust="spacing" textLength="46.7661" x="736.62" y="214.4791">pgbench</text></g><!--link optuna to smac--><g class="link" data-entity-1="optuna" data-entity-2="smac" data-source-line="14" data-uid="lnk7" id="link_optuna_smac"><path d="M80.74,84.37 C72.56,94.06 63.31,107.16 59,120.74 C51.11,145.56 58.9276,169.9014 67.1676,187.7714" fill="none" id="optuna-to-smac" style="stroke:#000000;stroke-width:1;"/><polygon fill="#000000" points="69.68,193.22,69.5438,183.3721,67.5863,188.6795,62.2789,186.722,69.68,193.22" style="stroke:#000000;stroke-width:1;"/><text fill="#000000" font-family="Verdana" font-size="13" lengthAdjust="spacing" textLength="123.1064" x="60" y="134.8098">&#1086;&#1089;&#1085;&#1086;&#1074;&#1085;&#1086;&#1081; &#1089;&#1101;&#1084;&#1087;&#1083;&#1077;&#1088;</text></g><!--link optuna to tpe--><g class="link" data-entity-1="optuna" data-entity-2="tpe" data-source-line="15" data-uid="lnk8" id="link_optuna_tpe"><path d="M144.62,67.37 C177.7,67.37 215.17,67.37 247.56,67.37" fill="none" id="optuna-to-tpe" style="stroke:#000000;stroke-width:1;stroke-dasharray:7.0,7.0;"/><polygon fill="#000000" points="253.56,67.37,244.56,63.37,248.56,67.37,244.56,71.37,253.56,67.37" style="stroke:#000000;stroke-width:1;"/><text fill="#000000" font-family="Verdana" font-size="13" lengthAdjust="spacing" textLength="73.1694" x="162.56" y="61.4398">&#1088;&#1077;&#1079;&#1077;&#1088;&#1074;&#1085;&#1099;&#1081;</text></g><!--link optuna to studydb--><g class="link" data-entity-1="optuna" data-entity-2="studydb" data-source-line="16" data-uid="lnk9" id="link_optuna_studydb"><path d="M135.24,84.39 C153.01,93.12 173.28,105.32 188,120.74 C203.57,137.05 212.7334,154.2505 220.1734,172.5805" fill="none" id="optuna-to-studydb" style="stroke:#000000;stroke-width:1;"/><polygon fill="#000000" points="222.43,178.14,222.7515,168.2964,220.5495,173.5071,215.3388,171.3051,222.43,178.14" style="stroke:#000000;stroke-width:1;"/><text fill="#000000" font-family="Verdana" font-size="13" lengthAdjust="spacing" textLength="115.7686" x="202.39" y="134.8098">&#1089;&#1086;&#1093;&#1088;&#1072;&#1085;&#1077;&#1085;&#1080;&#1077; trials</text></g><!--link optuna to agent--><g class="link" data-entity-1="optuna" data-entity-2="agent" data-source-line="34" data-uid="lnk19" id="link_optuna_agent"><path d="M144.51,76.21 C255.21,94.19 518.26,137.5 536,145.74 C556.88,155.43 572.4483,168.1368 586.6183,182.0468" fill="none" id="optuna-to-agent" style="stroke:#000000;stroke-width:1;"/><polygon fill="#000000" points="590.9,186.25,587.2795,177.0907,587.3319,182.7474,581.6753,182.7997,590.9,186.25" style="stroke:#000000;stroke-width:1;"/><text fill="#000000" font-family="Verdana" font-size="13" lengthAdjust="spacing" textLength="176.998" x="499.19" y="134.8098">&#1087;&#1088;&#1080;&#1084;&#1077;&#1085;&#1080;&#1090;&#1100; &#1082;&#1086;&#1085;&#1092;&#1080;&#1075;&#1091;&#1088;&#1072;&#1094;&#1080;&#1102;</text></g><!--link optuna to prom--><g class="link" data-entity-1="optuna" data-entity-2="prom" data-source-line="35" data-uid="lnk20" id="link_optuna_prom"><path d="M144.44,77.23 C171.33,81.86 205.43,87.28 236,90.74 C299.55,97.93 768.45,96.27 809,145.74 C889.31,243.7 797.98,342.24 687,403.31 C619.5,440.46 395.6498,462.2885 299.1698,470.2185" fill="none" id="optuna-to-prom" style="stroke:#000000;stroke-width:1;"/><polygon fill="#000000" points="293.19,470.71,302.4874,473.9593,298.1732,470.3004,301.8321,465.9862,293.19,470.71" style="stroke:#000000;stroke-width:1;"/><text fill="#000000" font-family="Verdana" font-size="13" lengthAdjust="spacing" textLength="128.2861" x="828.49" y="287.6898">&#1079;&#1072;&#1087;&#1088;&#1086;&#1089;&#1080;&#1090;&#1100; &#1084;&#1077;&#1090;&#1088;&#1080;&#1082;&#1080;</text></g><!--link agent to db--><g class="link" data-entity-1="agent" data-entity-2="db" data-source-line="36" data-uid="lnk21" id="link_agent_db"><path d="M584.43,233.96 C570.55,244.65 553.07,256.91 536,265.62 C525.99,270.73 518.57,264.5 512,273.62 C498.8,291.93 508.5802,311.0996 522.8802,328.2696" fill="none" id="agent-to-db" style="stroke:#000000;stroke-width:1;"/><polygon fill="#000000" points="526.72,332.88,524.0339,323.4045,523.5202,329.038,517.8867,328.5242,526.72,332.88" style="stroke:#000000;stroke-width:1;"/><text fill="#000000" font-family="Verdana" font-size="13" lengthAdjust="spacing" textLength="179.207" x="513" y="287.6898">&#1079;&#1072;&#1087;&#1080;&#1089;&#1072;&#1090;&#1100; performance.conf</text></g><!--link bench to db--><g class="link" data-entity-1="bench" data-entity-2="db" data-source-line="37" data-uid="lnk22" id="link_bench_db"><path d="M750.7,227.06 C739.77,244.64 720.16,272.78 697,290.62 C671.56,310.21 644.8896,323.091 616.9596,333.691" fill="none" id="bench-to-db" style="stroke:#000000;stroke-width:1;"/><polygon fill="#000000" points="611.35,335.82,621.1837,336.3663,616.0247,334.0459,618.3451,328.8868,611.35,335.82" style="stroke:#000000;stroke-width:1;"/><text fill="#000000" font-family="Verdana" font-size="13" lengthAdjust="spacing" textLength="60.3281" x="716.36" y="287.6898">&#1085;&#1072;&#1075;&#1088;&#1091;&#1079;&#1082;&#1072;</text></g><!--link pgstat to exporter--><g class="link" data-entity-1="pgstat" data-entity-2="exporter" data-source-line="38" data-uid="lnk23" id="link_pgstat_exporter"><path d="M435.12,227.21 C416.51,239.79 390.06,257.74 367,273.62 C334.15,296.24 301.2603,319.2719 277.7203,335.8019" fill="none" id="pgstat-to-exporter" style="stroke:#000000;stroke-width:1;"/><polygon fill="#000000" points="272.81,339.25,282.4741,337.3515,276.9019,336.3766,277.8767,330.8044,272.81,339.25" style="stroke:#000000;stroke-width:1;"/><text fill="#000000" font-family="Verdana" font-size="13" lengthAdjust="spacing" textLength="130.7427" x="368" y="287.6898">&#1101;&#1082;&#1089;&#1087;&#1086;&#1088;&#1090; &#1089;&#1090;&#1072;&#1090;&#1080;&#1089;&#1090;&#1080;&#1082;&#1080;</text></g><!--link exporter to prom--><g class="link" data-entity-1="exporter" data-entity-2="prom" data-source-line="39" data-uid="lnk24" id="link_exporter_prom"><path d="M250,373.04 C250,395.31 250,429.8 250,452.13" fill="none" id="exporter-to-prom" style="stroke:#000000;stroke-width:1;"/><polygon fill="#000000" points="250,458.13,254,449.13,250,453.13,246,449.13,250,458.13" style="stroke:#000000;stroke-width:1;"/><text fill="#000000" font-family="Verdana" font-size="13" lengthAdjust="spacing" textLength="150.7695" x="251" y="425.3798">&#1089;&#1082;&#1088;&#1072;&#1087;&#1080;&#1085;&#1075; &#1082;&#1072;&#1078;&#1076;&#1099;&#1077; 10 &#1089;</text></g><!--SRC=[RLFDRjD04BxxAPRsqXuIDQY8mg5ILHKkBHGPSKAADlROjMhlhjORe4L8IGfSe3nBHGbj0srUOVUDc5adn0uSuZWxty_iV9DxvWWAO2hdcGZAuqmehdd1UZmwJhNiYtXNvbApjqUPWLezXeJtS_D42lEC8_yLw9WBNaD4ib1IWF2OC3i5rkdKoWeDU0gBult_SKDpaWFJ41akqXo2O4PZAy-LoOhib9jC2hOdqam0MvFL8UYsEbbVOQl9HhAP9Enzm1QIdjeNd8Mc7v-iC5uowG-QeF1WPvU5l50vQ0yg2nur8IyFz-Q8rs8juNbEKrltQAC0mJ4tlCTBRBUow9RasOvxY0zVxED8AxG_Zdi1KYeWQxMslIDxpEoT6zfRUsU_- -SDSqDtRd_RgVrbnswmuBItoHOPRc37zegAn75VxCsIS6L7o26gVqBS1MgFyNDjnypeZETbyA4sxKDPcbG3zin2q6ze9AkmbJo0Hyl3tKdn2w-dqcw12v7Eiy1RSYerfbAJxJpq61n2GmvbIiDDTyxn89NIMQF10y2ken93bHee-GWs8LfkJbL-PGlUAQdDBDdvZoRsKCi2yC_HBojF_Dbmt9SyPaz1WEReIPP9iWMTVopJ7eZeo6luDnAfPU67GYbFCOLhZDMdu4RkAxCJZFlMVSJZItT68RdFMFfMfrDRnBx214c1TcN6HYby8T69lGug7wBuu2i2GeUeId05Ef4Q8ukW7KcH1BxP6k4M2PTkuCwGEh4NGHM21ym7I0jrRYUeESL61cv4gpeY0pAYfs_bBxns0UHC_1fYJsXrIPU_i3_j3zpUCUji823u0m00]--></g></svg>