<svg xmlns="http://www.w3.org/2000/svg" xmlns:xlink="http://www.w3.org/1999/xlink" contentStyleType="text/css" data-diagram-type="ACTIVITY" height="663px" preserveAspectRatio="none" style="width:437px;height:663px;background:#FFFFFF;" version="1.1" viewBox="0 0 437 663" width="437px" zoomAndPan="magnify"><defs/><g><ellipse cx="205.457" cy="15" fill="#FFFFFF" rx="10" ry="10" style="stroke:#000000;stroke-width:1;"/><rect fill="#F0F4FF" height="49.168" rx="12.5" ry="12.5" style="stroke:#4466AA;stroke-width:1;" width="289.7715" x="60.5713" y="45"/><text fill="#000000" font-family="Verdana" font-size="12" lengthAdjust="spacing" textLength="269.7715" x="70.5713" y="67.0645">&#1048;&#1085;&#1080;&#1094;&#1080;&#1072;&#1083;&#1080;&#1079;&#1072;&#1094;&#1080;&#1103;: &#1089;&#1092;&#1086;&#1088;&#1084;&#1080;&#1088;&#1086;&#1074;&#1072;&#1090;&#1100; &#1085;&#1072;&#1095;&#1072;&#1083;&#1100;&#1085;&#1099;&#1081;</text><text fill="#000000" font-family="Verdana" font-size="12" lengthAdjust="spacing" textLength="203.1563" x="70.5713" y="81.6484">&#1085;&#1072;&#1073;&#1086;&#1088; &#1089;&#1083;&#1091;&#1095;&#1072;&#1081;&#1085;&#1099;&#1093; &#1082;&#1086;&#1085;&#1092;&#1080;&#1075;&#1091;&#1088;&#1072;&#1094;&#1080;&#1081;</text><rect fill="#F0F4FF" height="34.584" rx="12.5" ry="12.5" style="stroke:#4466AA;stroke-width:1;" width="398.9141" x="6" y="158.168"/><text fill="#000000" font-family="Verdana" font-size="12" lengthAdjust="spacing" textLength="378.9141" x="16" y="180.2324">&#1054;&#1073;&#1091;&#1095;&#1080;&#1090;&#1100; &#1089;&#1091;&#1088;&#1088;&#1086;&#1075;&#1072;&#1090;&#1085;&#1091;&#1102; &#1084;&#1086;&#1076;&#1077;&#1083;&#1100; &#1085;&#1072; &#1085;&#1072;&#1082;&#1086;&#1087;&#1083;&#1077;&#1085;&#1085;&#1099;&#1093; &#1085;&#1072;&#1073;&#1083;&#1102;&#1076;&#1077;&#1085;&#1080;&#1103;&#1093;</text><rect fill="#F0F4FF" height="34.584" rx="12.5" ry="12.5" style="stroke:#4466AA;stroke-width:1;" width="284" x="63.457" y="212.752"/><text fill="#000000" font-family="Verdana" font-size="12" lengthAdjust="spacing" textLength="264" x="73.457" y="234.8164">&#1052;&#1072;&#1082;&#1089;&#1080;&#1084;&#1080;&#1079;&#1080;&#1088;&#1086;&#1074;&#1072;&#1090;&#1100; &#1092;&#1091;&#1085;&#1082;&#1094;&#1080;&#1102; &#1087;&#1088;&#1080;&#1086;&#1073;&#1088;&#1077;&#1090;&#1077;&#1085;&#1080;&#1103;</text><rect fill="#F0F4FF" height="34.584" rx="12.5" ry="12.5" style="stroke:#4466AA;stroke-width:1;" width="247.2324" x="81.8408" y="267.3359"/><text fill="#000000" font-family="Verdana" font-size="12" lengthAdjust="spacing" textLength="227.2324" x="91.8408" y="289.4004">&#1042;&#1099;&#1073;&#1088;&#1072;&#1090;&#1100; &#1089;&#1083;&#1077;&#1076;&#1091;&#1102;&#1097;&#1091;&#1102; &#1082;&#1086;&#1085;&#1092;&#1080;&#1075;&#1091;&#1088;&#1072;&#1094;&#1080;&#1102;</text><rect fill="#F0F4FF" height="34.584" rx="12.5" ry="12.5" style="stroke:#4466AA;stroke-width:1;" width="269.8672" x="70.5234" y="322.1279"/><text fill="#000000" font-family="Verdana" font-size="12" lengthAdjust="spacing" textLength="249.8672" x="80.5234" y="344.1924">&#1055;&#1088;&#1080;&#1084;&#1077;&#1085;&#1080;&#1090;&#1100; &#1082;&#1086;&#1085;&#1092;&#1080;&#1075;&#1091;&#1088;&#1072;&#1094;&#1080;&#1102; &#1082; PostgreSQL</text><rect fill="#F0F4FF" height="49.168" rx="12.5" ry="12.5" style="stroke:#4466AA;stroke-width:1;" width="263.0176" x="73.9482" y="376.7119"/><text fill="#000000" font-family="Verdana" font-size="12" lengthAdjust="spacing" textLength="243.0176" x="83.9482" y="398.7764">&#1047;&#1072;&#1087;&#1091;&#1089;&#1090;&#1080;&#1090;&#1100; &#1085;&#1072;&#1075;&#1088;&#1091;&#1079;&#1086;&#1095;&#1085;&#1099;&#1081; &#1090;&#1077;&#1089;&#1090; (pgbench)</text><text fill="#000000" font-family="Verdana" font-size="12" lengthAdjust="spacing" textLength="124.377" x="83.9482" y="413.3604">&#1080; &#1080;&#1079;&#1084;&#1077;&#1088;&#1080;&#1090;&#1100; &#1084;&#1077;&#1090;&#1088;&#1080;&#1082;&#1091;</text><rect fill="#F0F4FF" height="34.584" rx="12.5" ry="12.5" style="stroke:#4466AA;stroke-width:1;" width="202.1445" x="104.3848" y="445.8799"/><text fill="#000000" font-family="Verdana" font-size="12" lengthAdjust="spacing" textLength="182.1445" x="114.3848" y="467.9443">&#1054;&#1073;&#1085;&#1086;&#1074;&#1080;&#1090;&#1100; &#1085;&#1072;&#1073;&#1086;&#1088; &#1085;&#1072;&#1073;&#1083;&#1102;&#1076;&#1077;&#1085;&#1080;&#1081;</text><polygon fill="#F0F4FF" points="205.457,114.168,217.457,126.168,205.457,138.168,193.457,126.168,205.457,114.168" style="stroke:#4466AA;stroke-width:1;"/><polygon fill="#F0F4FF" points="133.416,500.4639,277.498,500.4639,289.498,512.4639,277.498,524.4639,133.416,524.4639,121.416,512.4639,133.416,500.4639" style="stroke:#4466AA;stroke-width:1;"/><text fill="#000000" font-family="Verdana" font-size="12" lengthAdjust="spacing" textLength="139.8633" x="137.6348" y="517.2363">&#1055;&#1086;&#1089;&#1083;&#1077;&#1076;&#1085;&#1103;&#1103; &#1080;&#1090;&#1077;&#1088;&#1072;&#1094;&#1080;&#1103; ?</text><text fill="#000000" font-family="Verdana" font-size="11" lengthAdjust="spacing" textLength="13.4438" x="289.498" y="510.1543">&#1076;&#1072;</text><rect fill="#F0F4FF" height="49.168" rx="12.5" ry="12.5" style="stroke:#4466AA;stroke-width:1;" width="197.9375" x="106.4883" y="566.1421"/><text fill="#000000" font-family="Verdana" font-size="12" lengthAdjust="spacing" textLength="177.9375" x="116.4883" y="588.2065">&#1042;&#1077;&#1088;&#1085;&#1091;&#1090;&#1100; &#1083;&#1091;&#1095;&#1096;&#1091;&#1102; &#1085;&#1072;&#1081;&#1076;&#1077;&#1085;&#1085;&#1091;&#1102;</text><text fill="#000000" font-family="Verdana" font-size="12" lengthAdjust="spacing" textLength="92.7246" x="116.4883" y="602.7905">&#1082;&#1086;&#1085;&#1092;&#1080;&#1075;&#1091;&#1088;&#1072;&#1094;&#1080;&#1102;</text><ellipse cx="205.457" cy="646.3101" fill="none" rx="11" ry="11" style="stroke:#000000;stroke-width:1;"/><ellipse cx="205.457" cy="646.3101" fill="#FFFFFF" rx="6" ry="6" style="stroke:#000000;stroke-width:1;"/><line style="stroke:#000000;stroke-width:1;" x1="205.457" x2="205.457" y1="25" y2="45"/><polygon fill="#000000" points="201.457,35,205.457,45,209.457,35,205.457,39" style="stroke:#000000;stroke-width:1;"/><line style="stroke:#000000;stroke-width:1;" x1="205.457" x2="205.457" y1="192.752" y2="212.752"/><polygon fill="#000000" points="201.457,202.752,205.457,212.752,209.457,202.752,205.457,206.752" style="stroke:#000000;stroke-width:1;"/><line style="stroke:#000000;stroke-width:1;" x1="205.457" x2="205.457" y1="247.3359" y2="267.3359"/><polygon fill="#000000" points="201.457,257.3359,205.457,267.3359,209.457,257.3359,205.457,261.3359" style="stroke:#000000;stroke-width:1;"/><line style="stroke:#000000;stroke-width:1;" x1="205.457" x2="205.457" y1="301.9199" y2="322.1279"/><polygon fill="#000000" points="201.457,312.1279,205.457,322.1279,209.457,312.1279,205.457,316.1279" style="stroke:#000000;stroke-width:1;"/><line style="stroke:#000000;stroke-width:1;" x1="205.457" x2="205.457" y1="356.7119" y2="376.7119"/><polygon fill="#000000" points="201.457,366.7119,205.457,376.7119,209.457,366.7119,205.457,370.7119" style="stroke:#000000;stroke-width:1;"/><line style="stroke:#000000;stroke-width:1;" x1="205.457" x2="205.457" y1="425.8799" y2="445.8799"/><polygon fill="#000000" points="201.457,435.8799,205.457,445.8799,209.457,435.8799,205.457,439.8799" style="stroke:#000000;stroke-width:1;"/><line style="stroke:#000000;stroke-width:1;" x1="205.457" x2="205.457" y1="138.168" y2="158.168"/><polygon fill="#000000" points="201.457,148.168,205.457,158.168,209.457,148.168,205.457,152.168" style="stroke:#000000;stroke-width:1;"/><line style="stroke:#000000;stroke-width:1;" x1="289.498" x2="416.9141" y1="512.4639" y2="512.4639"/><polygon fill="#000000" points="412.9141,321.9199,416.9141,311.9199,420.9141,321.9199,416.9141,317.9199" style="stroke:#000000;stroke-width:1;"/><line style="stroke:#000000;stroke-width:1;" x1="416.9141" x2="416.9141" y1="126.168" y2="512.4639"/><line style="stroke:#000000;stroke-width:1;" x1="416.9141" x2="217.457" y1="126.168" y2="126.168"/><polygon fill="#000000" points="227.457,122.168,217.457,126.168,227.457,130.168,223.457,126.168" style="stroke:#000000;stroke-width:1;"/><line style="stroke:#000000;stroke-width:1;" x1="205.457" x2="205.457" y1="480.4639" y2="500.4639"/><polygon fill="#000000" points="201.457,490.4639,205.457,500.4639,209.457,490.4639,205.457,494.4639" style="stroke:#000000;stroke-width:1;"/><line style="stroke:#000000;stroke-width:1;" x1="205.457" x2="205.457" y1="94.168" y2="114.168"/><polygon fill="#000000" points="201.457,104.168,205.457,114.168,209.457,104.168,205.457,108.168" style="stroke:#000000;stroke-width:1;"/><line style="stroke:#000000;stroke-width:1;" x1="205.457" x2="205.457" y1="524.4639" y2="566.1421"/><polygon fill="#000000" points="201.457,556.1421,205.457,566.1421,209.457,556.1421,205.457,560.1421" style="stroke:#000000;stroke-width:1;"/><text fill="#000000" font-family="Verdana" font-size="11" lengthAdjust="spacing" textLength="19.019" x="209.457" y="546.3325">&#1085;&#1077;&#1090;</text><line style="stroke:#000000;stroke-width:1;" x1="205.457" x2="205.457" y1="615.3101" y2="635.3101"/><polygon fill="#000000" points="201.457,625.3101,205.457,635.3101,209.457,625.3101,205.457,629.3101" style="stroke:#000000;stroke-width:1;"/><!--SRC=[TLB1RX9H5DtFLppZ1XOcQaWNa6XI4rV6Q9guSlCARs1IEaE6gKPNjBHMOmD9DxemxI-0XNIW1NxXtZ_otFj6Wqeta3Vtd7lEkVVUorfktvbEsqPnqDsBuevDxRxPjVMzPfeSn8rdIJj9pVjMbBcrUiE5zg2TFK_YxAK5_urB6pQsQmXRpw9tKVP183lHHsSUFTvGtVv7vtxuCAo4uIPaaZPSMg0gbQqjQuEWczaq2u8gVQS5vVo9SXhH3NwlQIGl7bOD7_8nBRb7jtZtQ4a_KJlYCmFAY4-5m6UquAyqUnlBDneB73mK-WgOIPbF3Cr1Nw1TJbSezRm8pMf1aBgEirbWJ9KkQAoyN5KW3wGANuam-7qU6BXPqeIc8gvEz4S5LaWmnQlGz8vkUA1mYJdaaveg_H06VEQI3Pd_piV7t0T-heE0uWhL7FKn_gSmKZJphSwHVwo9l6drC16h_CKRtfYT1vv-gRrlYvuwtJlmA9XNIJThfcxdzGlF_eOSAu0EuIh_inlmUaXmZMsS-lqOSIqeK-eqTrrSRvMnijneU8YB2K-Nnv5wcdE_zdijw2hZMPFmg_v_nh9Jlr8v_ROp9KENm1PpWPqX3urqKjNYsCpJiecwfWJ0g1myU89Ei56J0prNdEnUjVMo-BEVx49FR58i7PyGwivfu-QJpYy0]--></g></svg>