<?xml version="1.0" encoding="utf-8" standalone="no"?>
<!DOCTYPE svg PUBLIC "-//W3C//DTD SVG 1.1//EN"
  "http://www.w3.org/Graphics/SVG/1.1/DTD/svg11.dtd">
<svg xmlns:xlink="http://www.w3.org/1999/xlink" width="1063.632297pt" height="308.548609pt" viewBox="0 0 1063.632297 308.548609" xmlns="http://www.w3.org/2000/svg" version="1.1">
 <metadata>
  <rdf:RDF xmlns:dc="http://purl.org/dc/elements/1.1/" xmlns:cc="http://creativecommons.org/ns#" xmlns:rdf="http://www.w3.org/1999/02/22-rdf-syntax-ns#">
   <cc:Work>
    <dc:type rdf:resource="http://purl.org/dc/dcmitype/StillImage"/>
    <dc:date>2026-05-15T21:51:48.722656</dc:date>
    <dc:format>image/svg+xml</dc:format>
    <dc:creator>
     <cc:Agent>
      <dc:title>Matplotlib v3.10.9, https://matplotlib.org/</dc:title>
     </cc:Agent>
    </dc:creator>
   </cc:Work>
  </rdf:RDF>
 </metadata>
 <defs>
  <style type="text/css">*{stroke-linejoin: round; stroke-linecap: butt}</style>
 </defs>
 <g id="figure_1">
  <g id="patch_1">
   <path d="M 0 308.548609 
L 1063.632297 308.548609 
L 1063.632297 0 
L 0 0 
z
" style="fill: #ffffff"/>
  </g>
  <g id="axes_1">
   <g id="patch_2">
    <path d="M 66.250062 262.249969 
L 352.832982 262.249969 
L 352.832982 23.077969 
L 66.250062 23.077969 
z
" style="fill: #ffffff"/>
   </g>
   <g id="matplotlib.axis_1">
    <g id="xtick_1">
     <g id="line2d_1">
      <path d="M 72.763311 262.249969 
L 72.763311 23.077969 
" clip-path="url(#p6edb44fef9)" style="fill: none; stroke: #cccccc; stroke-linecap: round"/>
     </g>
     <g id="text_1">
      <!-- 0 -->
      <g style="fill: #262626" transform="translate(68.739029 281.361992) scale(0.1265 -0.1265)">
       <defs>
        <path id="DejaVuSans-30" d="M 2034 4250 
Q 1547 4250 1301 3770 
Q 1056 3291 1056 2328 
Q 1056 1369 1301 889 
Q 1547 409 2034 409 
Q 2525 409 2770 889 
Q 3016 1369 3016 2328 
Q 3016 3291 2770 3770 
Q 2525 4250 2034 4250 
z
M 2034 4750 
Q 2819 4750 3233 4129 
Q 3647 3509 3647 2328 
Q 3647 1150 3233 529 
Q 2819 -91 2034 -91 
Q 1250 -91 836 529 
Q 422 1150 422 2328 
Q 422 3509 836 4129 
Q 1250 4750 2034 4750 
z
" transform="scale(0.015625)"/>
       </defs>
       <use xlink:href="#DejaVuSans-30"/>
      </g>
     </g>
    </g>
    <g id="xtick_2">
     <g id="line2d_2">
      <path d="M 111.8428 262.249969 
L 111.8428 23.077969 
" clip-path="url(#p6edb44fef9)" style="fill: none; stroke: #cccccc; stroke-linecap: round"/>
     </g>
     <g id="text_2">
      <!-- 6 -->
      <g style="fill: #262626" transform="translate(107.818518 281.361992) scale(0.1265 -0.1265)">
       <defs>
        <path id="DejaVuSans-36" d="M 2113 2584 
Q 1688 2584 1439 2293 
Q 1191 2003 1191 1497 
Q 1191 994 1439 701 
Q 1688 409 2113 409 
Q 2538 409 2786 701 
Q 3034 994 3034 1497 
Q 3034 2003 2786 2293 
Q 2538 2584 2113 2584 
z
M 3366 4563 
L 3366 3988 
Q 3128 4100 2886 4159 
Q 2644 4219 2406 4219 
Q 1781 4219 1451 3797 
Q 1122 3375 1075 2522 
Q 1259 2794 1537 2939 
Q 1816 3084 2150 3084 
Q 2853 3084 3261 2657 
Q 3669 2231 3669 1497 
Q 3669 778 3244 343 
Q 2819 -91 2113 -91 
Q 1303 -91 875 529 
Q 447 1150 447 2328 
Q 447 3434 972 4092 
Q 1497 4750 2381 4750 
Q 2619 4750 2861 4703 
Q 3103 4656 3366 4563 
z
" transform="scale(0.015625)"/>
       </defs>
       <use xlink:href="#DejaVuSans-36"/>
      </g>
     </g>
    </g>
    <g id="xtick_3">
     <g id="line2d_3">
      <path d="M 150.922289 262.249969 
L 150.922289 23.077969 
" clip-path="url(#p6edb44fef9)" style="fill: none; stroke: #cccccc; stroke-linecap: round"/>
     </g>
     <g id="text_3">
      <!-- 12 -->
      <g style="fill: #262626" transform="translate(142.873726 281.361992) scale(0.1265 -0.1265)">
       <defs>
        <path id="DejaVuSans-31" d="M 794 531 
L 1825 531 
L 1825 4091 
L 703 3866 
L 703 4441 
L 1819 4666 
L 2450 4666 
L 2450 531 
L 3481 531 
L 3481 0 
L 794 0 
L 794 531 
z
" transform="scale(0.015625)"/>
        <path id="DejaVuSans-32" d="M 1228 531 
L 3431 531 
L 3431 0 
L 469 0 
L 469 531 
Q 828 903 1448 1529 
Q 2069 2156 2228 2338 
Q 2531 2678 2651 2914 
Q 2772 3150 2772 3378 
Q 2772 3750 2511 3984 
Q 2250 4219 1831 4219 
Q 1534 4219 1204 4116 
Q 875 4013 500 3803 
L 500 4441 
Q 881 4594 1212 4672 
Q 1544 4750 1819 4750 
Q 2544 4750 2975 4387 
Q 3406 4025 3406 3419 
Q 3406 3131 3298 2873 
Q 3191 2616 2906 2266 
Q 2828 2175 2409 1742 
Q 1991 1309 1228 531 
z
" transform="scale(0.015625)"/>
       </defs>
       <use xlink:href="#DejaVuSans-31"/>
       <use xlink:href="#DejaVuSans-32" transform="translate(63.623047 0)"/>
      </g>
     </g>
    </g>
    <g id="xtick_4">
     <g id="line2d_4">
      <path d="M 190.001778 262.249969 
L 190.001778 23.077969 
" clip-path="url(#p6edb44fef9)" style="fill: none; stroke: #cccccc; stroke-linecap: round"/>
     </g>
     <g id="text_4">
      <!-- 18 -->
      <g style="fill: #262626" transform="translate(181.953215 281.361992) scale(0.1265 -0.1265)">
       <defs>
        <path id="DejaVuSans-38" d="M 2034 2216 
Q 1584 2216 1326 1975 
Q 1069 1734 1069 1313 
Q 1069 891 1326 650 
Q 1584 409 2034 409 
Q 2484 409 2743 651 
Q 3003 894 3003 1313 
Q 3003 1734 2745 1975 
Q 2488 2216 2034 2216 
z
M 1403 2484 
Q 997 2584 770 2862 
Q 544 3141 544 3541 
Q 544 4100 942 4425 
Q 1341 4750 2034 4750 
Q 2731 4750 3128 4425 
Q 3525 4100 3525 3541 
Q 3525 3141 3298 2862 
Q 3072 2584 2669 2484 
Q 3125 2378 3379 2068 
Q 3634 1759 3634 1313 
Q 3634 634 3220 271 
Q 2806 -91 2034 -91 
Q 1263 -91 848 271 
Q 434 634 434 1313 
Q 434 1759 690 2068 
Q 947 2378 1403 2484 
z
M 1172 3481 
Q 1172 3119 1398 2916 
Q 1625 2713 2034 2713 
Q 2441 2713 2670 2916 
Q 2900 3119 2900 3481 
Q 2900 3844 2670 4047 
Q 2441 4250 2034 4250 
Q 1625 4250 1398 4047 
Q 1172 3844 1172 3481 
z
" transform="scale(0.015625)"/>
       </defs>
       <use xlink:href="#DejaVuSans-31"/>
       <use xlink:href="#DejaVuSans-38" transform="translate(63.623047 0)"/>
      </g>
     </g>
    </g>
    <g id="xtick_5">
     <g id="line2d_5">
      <path d="M 229.081267 262.249969 
L 229.081267 23.077969 
" clip-path="url(#p6edb44fef9)" style="fill: none; stroke: #cccccc; stroke-linecap: round"/>
     </g>
     <g id="text_5">
      <!-- 24 -->
      <g style="fill: #262626" transform="translate(221.032704 281.361992) scale(0.1265 -0.1265)">
       <defs>
        <path id="DejaVuSans-34" d="M 2419 4116 
L 825 1625 
L 2419 1625 
L 2419 4116 
z
M 2253 4666 
L 3047 4666 
L 3047 1625 
L 3713 1625 
L 3713 1100 
L 3047 1100 
L 3047 0 
L 2419 0 
L 2419 1100 
L 313 1100 
L 313 1709 
L 2253 4666 
z
" transform="scale(0.015625)"/>
       </defs>
       <use xlink:href="#DejaVuSans-32"/>
       <use xlink:href="#DejaVuSans-34" transform="translate(63.623047 0)"/>
      </g>
     </g>
    </g>
    <g id="xtick_6">
     <g id="line2d_6">
      <path d="M 268.160756 262.249969 
L 268.160756 23.077969 
" clip-path="url(#p6edb44fef9)" style="fill: none; stroke: #cccccc; stroke-linecap: round"/>
     </g>
     <g id="text_6">
      <!-- 30 -->
      <g style="fill: #262626" transform="translate(260.112193 281.361992) scale(0.1265 -0.1265)">
       <defs>
        <path id="DejaVuSans-33" d="M 2597 2516 
Q 3050 2419 3304 2112 
Q 3559 1806 3559 1356 
Q 3559 666 3084 287 
Q 2609 -91 1734 -91 
Q 1441 -91 1130 -33 
Q 819 25 488 141 
L 488 750 
Q 750 597 1062 519 
Q 1375 441 1716 441 
Q 2309 441 2620 675 
Q 2931 909 2931 1356 
Q 2931 1769 2642 2001 
Q 2353 2234 1838 2234 
L 1294 2234 
L 1294 2753 
L 1863 2753 
Q 2328 2753 2575 2939 
Q 2822 3125 2822 3475 
Q 2822 3834 2567 4026 
Q 2313 4219 1838 4219 
Q 1578 4219 1281 4162 
Q 984 4106 628 3988 
L 628 4550 
Q 988 4650 1302 4700 
Q 1616 4750 1894 4750 
Q 2613 4750 3031 4423 
Q 3450 4097 3450 3541 
Q 3450 3153 3228 2886 
Q 3006 2619 2597 2516 
z
" transform="scale(0.015625)"/>
       </defs>
       <use xlink:href="#DejaVuSans-33"/>
       <use xlink:href="#DejaVuSans-30" transform="translate(63.623047 0)"/>
      </g>
     </g>
    </g>
    <g id="xtick_7">
     <g id="line2d_7">
      <path d="M 307.240245 262.249969 
L 307.240245 23.077969 
" clip-path="url(#p6edb44fef9)" style="fill: none; stroke: #cccccc; stroke-linecap: round"/>
     </g>
     <g id="text_7">
      <!-- 36 -->
      <g style="fill: #262626" transform="translate(299.191683 281.361992) scale(0.1265 -0.1265)">
       <use xlink:href="#DejaVuSans-33"/>
       <use xlink:href="#DejaVuSans-36" transform="translate(63.623047 0)"/>
      </g>
     </g>
    </g>
    <g id="xtick_8">
     <g id="line2d_8">
      <path d="M 346.319734 262.249969 
L 346.319734 23.077969 
" clip-path="url(#p6edb44fef9)" style="fill: none; stroke: #cccccc; stroke-linecap: round"/>
     </g>
     <g id="text_8">
      <!-- 42 -->
      <g style="fill: #262626" transform="translate(338.271172 281.361992) scale(0.1265 -0.1265)">
       <use xlink:href="#DejaVuSans-34"/>
       <use xlink:href="#DejaVuSans-32" transform="translate(63.623047 0)"/>
      </g>
     </g>
    </g>
    <g id="text_9">
     <!-- Итерация -->
     <g style="fill: #262626" transform="translate(174.17471 298.478641) scale(0.138 -0.138)">
      <defs>
       <path id="DejaVuSans-418" d="M 4159 4666 
L 4159 0 
L 3547 0 
L 3547 3903 
L 1478 0 
L 628 0 
L 628 4666 
L 1241 4666 
L 1241 763 
L 3309 4666 
L 4159 4666 
z
" transform="scale(0.015625)"/>
       <path id="DejaVuSans-442" d="M 188 3500 
L 3541 3500 
L 3541 3041 
L 2147 3041 
L 2147 0 
L 1581 0 
L 1581 3041 
L 188 3041 
L 188 3500 
z
" transform="scale(0.015625)"/>
       <path id="DejaVuSans-435" d="M 3597 1894 
L 3597 1613 
L 953 1613 
Q 991 1019 1311 708 
Q 1631 397 2203 397 
Q 2534 397 2845 478 
Q 3156 559 3463 722 
L 3463 178 
Q 3153 47 2828 -22 
Q 2503 -91 2169 -91 
Q 1331 -91 842 396 
Q 353 884 353 1716 
Q 353 2575 817 3079 
Q 1281 3584 2069 3584 
Q 2775 3584 3186 3129 
Q 3597 2675 3597 1894 
z
M 3022 2063 
Q 3016 2534 2758 2815 
Q 2500 3097 2075 3097 
Q 1594 3097 1305 2825 
Q 1016 2553 972 2059 
L 3022 2063 
z
" transform="scale(0.015625)"/>
       <path id="DejaVuSans-440" d="M 1159 525 
L 1159 -1331 
L 581 -1331 
L 581 3500 
L 1159 3500 
L 1159 2969 
Q 1341 3281 1617 3432 
Q 1894 3584 2278 3584 
Q 2916 3584 3314 3078 
Q 3713 2572 3713 1747 
Q 3713 922 3314 415 
Q 2916 -91 2278 -91 
Q 1894 -91 1617 61 
Q 1341 213 1159 525 
z
M 3116 1747 
Q 3116 2381 2855 2742 
Q 2594 3103 2138 3103 
Q 1681 3103 1420 2742 
Q 1159 2381 1159 1747 
Q 1159 1113 1420 752 
Q 1681 391 2138 391 
Q 2594 391 2855 752 
Q 3116 1113 3116 1747 
z
" transform="scale(0.015625)"/>
       <path id="DejaVuSans-430" d="M 2194 1759 
Q 1497 1759 1228 1600 
Q 959 1441 959 1056 
Q 959 750 1161 570 
Q 1363 391 1709 391 
Q 2188 391 2477 730 
Q 2766 1069 2766 1631 
L 2766 1759 
L 2194 1759 
z
M 3341 1997 
L 3341 0 
L 2766 0 
L 2766 531 
Q 2569 213 2275 61 
Q 1981 -91 1556 -91 
Q 1019 -91 701 211 
Q 384 513 384 1019 
Q 384 1609 779 1909 
Q 1175 2209 1959 2209 
L 2766 2209 
L 2766 2266 
Q 2766 2663 2505 2880 
Q 2244 3097 1772 3097 
Q 1472 3097 1187 3025 
Q 903 2953 641 2809 
L 641 3341 
Q 956 3463 1253 3523 
Q 1550 3584 1831 3584 
Q 2591 3584 2966 3190 
Q 3341 2797 3341 1997 
z
" transform="scale(0.015625)"/>
       <path id="DejaVuSans-446" d="M 3603 0 
L 581 0 
L 581 3500 
L 1159 3500 
L 1159 459 
L 3025 459 
L 3025 3500 
L 3603 3500 
L 3603 459 
L 4063 459 
L 4063 -884 
L 3603 -884 
L 3603 0 
z
" transform="scale(0.015625)"/>
       <path id="DejaVuSans-438" d="M 3578 3500 
L 3578 0 
L 3006 0 
L 3006 2809 
L 1319 0 
L 581 0 
L 581 3500 
L 1153 3500 
L 1153 697 
L 2838 3500 
L 3578 3500 
z
" transform="scale(0.015625)"/>
       <path id="DejaVuSans-44f" d="M 1181 2491 
Q 1181 2231 1381 2084 
Q 1581 1938 1953 1938 
L 2728 1938 
L 2728 3041 
L 1953 3041 
Q 1581 3041 1381 2897 
Q 1181 2753 1181 2491 
z
M 363 0 
L 1431 1534 
Q 1069 1616 828 1830 
Q 588 2044 588 2491 
Q 588 2997 923 3248 
Q 1259 3500 1938 3500 
L 3306 3500 
L 3306 0 
L 2728 0 
L 2728 1478 
L 2013 1478 
L 981 0 
L 363 0 
z
" transform="scale(0.015625)"/>
      </defs>
      <use xlink:href="#DejaVuSans-418"/>
      <use xlink:href="#DejaVuSans-442" transform="translate(74.804688 0)"/>
      <use xlink:href="#DejaVuSans-435" transform="translate(133.056641 0)"/>
      <use xlink:href="#DejaVuSans-440" transform="translate(194.580078 0)"/>
      <use xlink:href="#DejaVuSans-430" transform="translate(258.056641 0)"/>
      <use xlink:href="#DejaVuSans-446" transform="translate(319.335938 0)"/>
      <use xlink:href="#DejaVuSans-438" transform="translate(387.402344 0)"/>
      <use xlink:href="#DejaVuSans-44f" transform="translate(452.392578 0)"/>
     </g>
    </g>
   </g>
   <g id="matplotlib.axis_2">
    <g id="ytick_1">
     <g id="line2d_9">
      <path d="M 66.250062 226.761151 
L 352.832982 226.761151 
" clip-path="url(#p6edb44fef9)" style="fill: none; stroke: #cccccc; stroke-linecap: round"/>
     </g>
     <g id="text_10">
      <!-- 2400 -->
      <g style="fill: #262626" transform="translate(24.555813 231.567163) scale(0.1265 -0.1265)">
       <use xlink:href="#DejaVuSans-32"/>
       <use xlink:href="#DejaVuSans-34" transform="translate(63.623047 0)"/>
       <use xlink:href="#DejaVuSans-30" transform="translate(127.246094 0)"/>
       <use xlink:href="#DejaVuSans-30" transform="translate(190.869141 0)"/>
      </g>
     </g>
    </g>
    <g id="ytick_2">
     <g id="line2d_10">
      <path d="M 66.250062 184.926818 
L 352.832982 184.926818 
" clip-path="url(#p6edb44fef9)" style="fill: none; stroke: #cccccc; stroke-linecap: round"/>
     </g>
     <g id="text_11">
      <!-- 2600 -->
      <g style="fill: #262626" transform="translate(24.555813 189.732829) scale(0.1265 -0.1265)">
       <use xlink:href="#DejaVuSans-32"/>
       <use xlink:href="#DejaVuSans-36" transform="translate(63.623047 0)"/>
       <use xlink:href="#DejaVuSans-30" transform="translate(127.246094 0)"/>
       <use xlink:href="#DejaVuSans-30" transform="translate(190.869141 0)"/>
      </g>
     </g>
    </g>
    <g id="ytick_3">
     <g id="line2d_11">
      <path d="M 66.250062 143.092484 
L 352.832982 143.092484 
" clip-path="url(#p6edb44fef9)" style="fill: none; stroke: #cccccc; stroke-linecap: round"/>
     </g>
     <g id="text_12">
      <!-- 2800 -->
      <g style="fill: #262626" transform="translate(24.555813 147.898496) scale(0.1265 -0.1265)">
       <use xlink:href="#DejaVuSans-32"/>
       <use xlink:href="#DejaVuSans-38" transform="translate(63.623047 0)"/>
       <use xlink:href="#DejaVuSans-30" transform="translate(127.246094 0)"/>
       <use xlink:href="#DejaVuSans-30" transform="translate(190.869141 0)"/>
      </g>
     </g>
    </g>
    <g id="ytick_4">
     <g id="line2d_12">
      <path d="M 66.250062 101.25815 
L 352.832982 101.25815 
" clip-path="url(#p6edb44fef9)" style="fill: none; stroke: #cccccc; stroke-linecap: round"/>
     </g>
     <g id="text_13">
      <!-- 3000 -->
      <g style="fill: #262626" transform="translate(24.555813 106.064162) scale(0.1265 -0.1265)">
       <use xlink:href="#DejaVuSans-33"/>
       <use xlink:href="#DejaVuSans-30" transform="translate(63.623047 0)"/>
       <use xlink:href="#DejaVuSans-30" transform="translate(127.246094 0)"/>
       <use xlink:href="#DejaVuSans-30" transform="translate(190.869141 0)"/>
      </g>
     </g>
    </g>
    <g id="ytick_5">
     <g id="line2d_13">
      <path d="M 66.250062 59.423817 
L 352.832982 59.423817 
" clip-path="url(#p6edb44fef9)" style="fill: none; stroke: #cccccc; stroke-linecap: round"/>
     </g>
     <g id="text_14">
      <!-- 3200 -->
      <g style="fill: #262626" transform="translate(24.555813 64.229829) scale(0.1265 -0.1265)">
       <use xlink:href="#DejaVuSans-33"/>
       <use xlink:href="#DejaVuSans-32" transform="translate(63.623047 0)"/>
       <use xlink:href="#DejaVuSans-30" transform="translate(127.246094 0)"/>
       <use xlink:href="#DejaVuSans-30" transform="translate(190.869141 0)"/>
      </g>
     </g>
    </g>
    <g id="text_15">
     <!-- TPS -->
     <g style="fill: #262626" transform="translate(17.685844 155.419266) rotate(-90) scale(0.138 -0.138)">
      <defs>
       <path id="DejaVuSans-54" d="M -19 4666 
L 3928 4666 
L 3928 4134 
L 2272 4134 
L 2272 0 
L 1638 0 
L 1638 4134 
L -19 4134 
L -19 4666 
z
" transform="scale(0.015625)"/>
       <path id="DejaVuSans-50" d="M 1259 4147 
L 1259 2394 
L 2053 2394 
Q 2494 2394 2734 2622 
Q 2975 2850 2975 3272 
Q 2975 3691 2734 3919 
Q 2494 4147 2053 4147 
L 1259 4147 
z
M 628 4666 
L 2053 4666 
Q 2838 4666 3239 4311 
Q 3641 3956 3641 3272 
Q 3641 2581 3239 2228 
Q 2838 1875 2053 1875 
L 1259 1875 
L 1259 0 
L 628 0 
L 628 4666 
z
" transform="scale(0.015625)"/>
       <path id="DejaVuSans-53" d="M 3425 4513 
L 3425 3897 
Q 3066 4069 2747 4153 
Q 2428 4238 2131 4238 
Q 1616 4238 1336 4038 
Q 1056 3838 1056 3469 
Q 1056 3159 1242 3001 
Q 1428 2844 1947 2747 
L 2328 2669 
Q 3034 2534 3370 2195 
Q 3706 1856 3706 1288 
Q 3706 609 3251 259 
Q 2797 -91 1919 -91 
Q 1588 -91 1214 -16 
Q 841 59 441 206 
L 441 856 
Q 825 641 1194 531 
Q 1563 422 1919 422 
Q 2459 422 2753 634 
Q 3047 847 3047 1241 
Q 3047 1584 2836 1778 
Q 2625 1972 2144 2069 
L 1759 2144 
Q 1053 2284 737 2584 
Q 422 2884 422 3419 
Q 422 4038 858 4394 
Q 1294 4750 2059 4750 
Q 2388 4750 2728 4690 
Q 3069 4631 3425 4513 
z
" transform="scale(0.015625)"/>
      </defs>
      <use xlink:href="#DejaVuSans-54"/>
      <use xlink:href="#DejaVuSans-50" transform="translate(61.083984 0)"/>
      <use xlink:href="#DejaVuSans-53" transform="translate(121.386719 0)"/>
     </g>
    </g>
   </g>
   <g id="FillBetweenPolyCollection_1">
    <defs>
     <path id="mce532d2d7c" d="M 79.276559 -274.217855 
L 79.276559 -116.789021 
L 85.789807 -121.6741 
L 92.303055 -199.405741 
L 98.816303 -199.405741 
L 105.329552 -199.405741 
L 111.8428 -199.405741 
L 118.356048 -203.620087 
L 124.869296 -229.847596 
L 131.382544 -246.599783 
L 137.895792 -246.599783 
L 144.409041 -246.599783 
L 150.922289 -246.599783 
L 157.435537 -246.599783 
L 163.948785 -246.599783 
L 170.462033 -246.599783 
L 176.975282 -246.599783 
L 183.48853 -246.599783 
L 190.001778 -246.599783 
L 196.515026 -246.599783 
L 203.028274 -246.599783 
L 209.541522 -246.599783 
L 216.054771 -246.599783 
L 222.568019 -246.599783 
L 229.081267 -246.599783 
L 235.594515 -246.599783 
L 242.107763 -246.599783 
L 248.621011 -246.599783 
L 255.13426 -246.599783 
L 261.647508 -246.599783 
L 268.160756 -246.599783 
L 274.674004 -246.599783 
L 281.187252 -246.599783 
L 287.700501 -246.599783 
L 294.213749 -246.599783 
L 300.726997 -246.599783 
L 307.240245 -246.599783 
L 313.753493 -246.599783 
L 320.266741 -246.599783 
L 326.77999 -246.599783 
L 333.293238 -246.599783 
L 339.806486 -246.599783 
L 339.806486 -255.695024 
L 339.806486 -255.695024 
L 333.293238 -255.695024 
L 326.77999 -255.695024 
L 320.266741 -255.695024 
L 313.753493 -255.695024 
L 307.240245 -255.695024 
L 300.726997 -255.695024 
L 294.213749 -255.695024 
L 287.700501 -255.695024 
L 281.187252 -255.695024 
L 274.674004 -255.695024 
L 268.160756 -255.695024 
L 261.647508 -255.695024 
L 255.13426 -255.695024 
L 248.621011 -255.695024 
L 242.107763 -255.695024 
L 235.594515 -255.695024 
L 229.081267 -255.695024 
L 222.568019 -255.695024 
L 216.054771 -255.695024 
L 209.541522 -255.695024 
L 203.028274 -255.695024 
L 196.515026 -255.695024 
L 190.001778 -255.695024 
L 183.48853 -255.695024 
L 176.975282 -255.695024 
L 170.462033 -255.695024 
L 163.948785 -255.695024 
L 157.435537 -255.695024 
L 150.922289 -255.695024 
L 144.409041 -255.695024 
L 137.895792 -255.695024 
L 131.382544 -255.695024 
L 124.869296 -256.537463 
L 118.356048 -260.711952 
L 111.8428 -261.413041 
L 105.329552 -261.413041 
L 98.816303 -261.413041 
L 92.303055 -261.413041 
L 85.789807 -274.599186 
L 79.276559 -274.217855 
z
" style="stroke: #1565c0; stroke-opacity: 0.15"/>
    </defs>
    <g clip-path="url(#p6edb44fef9)">
     <use xlink:href="#mce532d2d7c" x="0" y="308.548609" style="fill: #1565c0; fill-opacity: 0.15; stroke: #1565c0; stroke-opacity: 0.15"/>
    </g>
   </g>
   <g id="FillBetweenPolyCollection_2">
    <defs>
     <path id="md15b9cecca" d="M 79.276559 -220.389049 
L 79.276559 -57.170095 
L 85.789807 -57.906342 
L 92.303055 -68.971633 
L 98.816303 -82.884087 
L 105.329552 -168.664599 
L 111.8428 -178.51579 
L 118.356048 -178.51579 
L 124.869296 -178.51579 
L 131.382544 -178.51579 
L 137.895792 -178.51579 
L 144.409041 -178.51579 
L 150.922289 -191.505349 
L 157.435537 -191.505349 
L 163.948785 -191.505349 
L 170.462033 -191.505349 
L 176.975282 -192.550848 
L 183.48853 -192.550848 
L 190.001778 -192.550848 
L 196.515026 -192.550848 
L 203.028274 -192.550848 
L 209.541522 -192.550848 
L 216.054771 -192.550848 
L 222.568019 -192.550848 
L 229.081267 -192.550848 
L 235.594515 -192.550848 
L 242.107763 -192.550848 
L 248.621011 -192.550848 
L 255.13426 -192.550848 
L 261.647508 -192.550848 
L 268.160756 -192.550848 
L 274.674004 -195.405014 
L 281.187252 -195.405014 
L 287.700501 -195.405014 
L 294.213749 -195.405014 
L 300.726997 -195.405014 
L 307.240245 -195.405014 
L 313.753493 -195.405014 
L 320.266741 -195.405014 
L 326.77999 -195.405014 
L 333.293238 -195.405014 
L 339.806486 -195.405014 
L 339.806486 -267.362888 
L 339.806486 -267.362888 
L 333.293238 -267.362888 
L 326.77999 -267.362888 
L 320.266741 -267.362888 
L 313.753493 -267.362888 
L 307.240245 -267.362888 
L 300.726997 -267.362888 
L 294.213749 -267.362888 
L 287.700501 -267.362888 
L 281.187252 -267.362888 
L 274.674004 -267.362888 
L 268.160756 -256.128643 
L 261.647508 -256.128643 
L 255.13426 -256.128643 
L 248.621011 -256.128643 
L 242.107763 -256.128643 
L 235.594515 -256.128643 
L 229.081267 -256.128643 
L 222.568019 -256.128643 
L 216.054771 -256.128643 
L 209.541522 -256.128643 
L 203.028274 -256.128643 
L 196.515026 -256.128643 
L 190.001778 -256.128643 
L 183.48853 -256.128643 
L 176.975282 -256.128643 
L 170.462033 -256.294985 
L 163.948785 -256.294985 
L 157.435537 -256.294985 
L 150.922289 -256.294985 
L 144.409041 -252.937905 
L 137.895792 -252.937905 
L 131.382544 -252.937905 
L 124.869296 -252.937905 
L 118.356048 -252.937905 
L 111.8428 -252.937905 
L 105.329552 -242.742346 
L 98.816303 -253.024784 
L 92.303055 -254.009932 
L 85.789807 -236.487359 
L 79.276559 -220.389049 
z
" style="stroke: #c62828; stroke-opacity: 0.15"/>
    </defs>
    <g clip-path="url(#p6edb44fef9)">
     <use xlink:href="#md15b9cecca" x="0" y="308.548609" style="fill: #c62828; fill-opacity: 0.15; stroke: #c62828; stroke-opacity: 0.15"/>
    </g>
   </g>
   <g id="line2d_14">
    <path d="M 79.276559 113.045172 
L 85.789807 110.411966 
L 92.303055 78.139218 
L 98.816303 78.139218 
L 105.329552 78.139218 
L 111.8428 78.139218 
L 118.356048 76.38259 
L 124.869296 65.35608 
L 131.382544 57.401206 
L 137.895792 57.401206 
L 144.409041 57.401206 
L 150.922289 57.401206 
L 157.435537 57.401206 
L 163.948785 57.401206 
L 170.462033 57.401206 
L 176.975282 57.401206 
L 183.48853 57.401206 
L 190.001778 57.401206 
L 196.515026 57.401206 
L 203.028274 57.401206 
L 209.541522 57.401206 
L 216.054771 57.401206 
L 222.568019 57.401206 
L 229.081267 57.401206 
L 235.594515 57.401206 
L 242.107763 57.401206 
L 248.621011 57.401206 
L 255.13426 57.401206 
L 261.647508 57.401206 
L 268.160756 57.401206 
L 274.674004 57.401206 
L 281.187252 57.401206 
L 287.700501 57.401206 
L 294.213749 57.401206 
L 300.726997 57.401206 
L 307.240245 57.401206 
L 313.753493 57.401206 
L 320.266741 57.401206 
L 326.77999 57.401206 
L 333.293238 57.401206 
L 339.806486 57.401206 
" clip-path="url(#p6edb44fef9)" style="fill: none; stroke: #1565c0; stroke-width: 2; stroke-linecap: round"/>
   </g>
   <g id="line2d_15">
    <path d="M 79.276559 169.769037 
L 85.789807 161.351759 
L 92.303055 147.057827 
L 98.816303 140.594174 
L 105.329552 102.845137 
L 111.8428 92.821762 
L 118.356048 92.821762 
L 124.869296 92.821762 
L 131.382544 92.821762 
L 137.895792 92.821762 
L 144.409041 92.821762 
L 150.922289 84.648442 
L 157.435537 84.648442 
L 163.948785 84.648442 
L 170.462033 84.648442 
L 176.975282 84.208864 
L 183.48853 84.208864 
L 190.001778 84.208864 
L 196.515026 84.208864 
L 203.028274 84.208864 
L 209.541522 84.208864 
L 216.054771 84.208864 
L 222.568019 84.208864 
L 229.081267 84.208864 
L 235.594515 84.208864 
L 242.107763 84.208864 
L 248.621011 84.208864 
L 255.13426 84.208864 
L 261.647508 84.208864 
L 268.160756 84.208864 
L 274.674004 77.164659 
L 281.187252 77.164659 
L 287.700501 77.164659 
L 294.213749 77.164659 
L 300.726997 77.164659 
L 307.240245 77.164659 
L 313.753493 77.164659 
L 320.266741 77.164659 
L 326.77999 77.164659 
L 333.293238 77.164659 
L 339.806486 77.164659 
" clip-path="url(#p6edb44fef9)" style="fill: none; stroke: #c62828; stroke-width: 2; stroke-linecap: round"/>
   </g>
   <g id="patch_3">
    <path d="M 66.250062 262.249969 
L 66.250062 23.077969 
" style="fill: none; stroke: #cccccc; stroke-width: 1.25; stroke-linejoin: miter; stroke-linecap: square"/>
   </g>
   <g id="patch_4">
    <path d="M 352.832982 262.249969 
L 352.832982 23.077969 
" style="fill: none; stroke: #cccccc; stroke-width: 1.25; stroke-linejoin: miter; stroke-linecap: square"/>
   </g>
   <g id="patch_5">
    <path d="M 66.250062 262.249969 
L 352.832982 262.249969 
" style="fill: none; stroke: #cccccc; stroke-width: 1.25; stroke-linejoin: miter; stroke-linecap: square"/>
   </g>
   <g id="patch_6">
    <path d="M 66.250062 23.077969 
L 352.832982 23.077969 
" style="fill: none; stroke: #cccccc; stroke-width: 1.25; stroke-linejoin: miter; stroke-linecap: square"/>
   </g>
   <g id="text_16">
    <!-- OLTP — TPS -->
    <g style="fill: #262626" transform="translate(166.842616 17.077969) scale(0.13 -0.13)">
     <defs>
      <path id="DejaVuSans-Bold-4f" d="M 2719 3878 
Q 2169 3878 1866 3472 
Q 1563 3066 1563 2328 
Q 1563 1594 1866 1187 
Q 2169 781 2719 781 
Q 3272 781 3575 1187 
Q 3878 1594 3878 2328 
Q 3878 3066 3575 3472 
Q 3272 3878 2719 3878 
z
M 2719 4750 
Q 3844 4750 4481 4106 
Q 5119 3463 5119 2328 
Q 5119 1197 4481 553 
Q 3844 -91 2719 -91 
Q 1597 -91 958 553 
Q 319 1197 319 2328 
Q 319 3463 958 4106 
Q 1597 4750 2719 4750 
z
" transform="scale(0.015625)"/>
      <path id="DejaVuSans-Bold-4c" d="M 588 4666 
L 1791 4666 
L 1791 909 
L 3903 909 
L 3903 0 
L 588 0 
L 588 4666 
z
" transform="scale(0.015625)"/>
      <path id="DejaVuSans-Bold-54" d="M 31 4666 
L 4331 4666 
L 4331 3756 
L 2784 3756 
L 2784 0 
L 1581 0 
L 1581 3756 
L 31 3756 
L 31 4666 
z
" transform="scale(0.015625)"/>
      <path id="DejaVuSans-Bold-50" d="M 588 4666 
L 2584 4666 
Q 3475 4666 3951 4270 
Q 4428 3875 4428 3144 
Q 4428 2409 3951 2014 
Q 3475 1619 2584 1619 
L 1791 1619 
L 1791 0 
L 588 0 
L 588 4666 
z
M 1791 3794 
L 1791 2491 
L 2456 2491 
Q 2806 2491 2997 2661 
Q 3188 2831 3188 3144 
Q 3188 3456 2997 3625 
Q 2806 3794 2456 3794 
L 1791 3794 
z
" transform="scale(0.015625)"/>
      <path id="DejaVuSans-Bold-20" transform="scale(0.015625)"/>
      <path id="DejaVuSans-Bold-2014" d="M 344 2156 
L 6056 2156 
L 6056 1350 
L 344 1350 
L 344 2156 
z
" transform="scale(0.015625)"/>
      <path id="DejaVuSans-Bold-53" d="M 3834 4519 
L 3834 3531 
Q 3450 3703 3084 3790 
Q 2719 3878 2394 3878 
Q 1963 3878 1756 3759 
Q 1550 3641 1550 3391 
Q 1550 3203 1689 3098 
Q 1828 2994 2194 2919 
L 2706 2816 
Q 3484 2659 3812 2340 
Q 4141 2022 4141 1434 
Q 4141 663 3683 286 
Q 3225 -91 2284 -91 
Q 1841 -91 1394 -6 
Q 947 78 500 244 
L 500 1259 
Q 947 1022 1364 901 
Q 1781 781 2169 781 
Q 2563 781 2772 912 
Q 2981 1044 2981 1288 
Q 2981 1506 2839 1625 
Q 2697 1744 2272 1838 
L 1806 1941 
Q 1106 2091 782 2419 
Q 459 2747 459 3303 
Q 459 4000 909 4375 
Q 1359 4750 2203 4750 
Q 2588 4750 2994 4692 
Q 3400 4634 3834 4519 
z
" transform="scale(0.015625)"/>
     </defs>
     <use xlink:href="#DejaVuSans-Bold-4f"/>
     <use xlink:href="#DejaVuSans-Bold-4c" transform="translate(85.009766 0)"/>
     <use xlink:href="#DejaVuSans-Bold-54" transform="translate(132.230469 0)"/>
     <use xlink:href="#DejaVuSans-Bold-50" transform="translate(200.443359 0)"/>
     <use xlink:href="#DejaVuSans-Bold-20" transform="translate(273.734375 0)"/>
     <use xlink:href="#DejaVuSans-Bold-2014" transform="translate(308.548828 0)"/>
     <use xlink:href="#DejaVuSans-Bold-20" transform="translate(408.548828 0)"/>
     <use xlink:href="#DejaVuSans-Bold-54" transform="translate(443.363281 0)"/>
     <use xlink:href="#DejaVuSans-Bold-50" transform="translate(511.576172 0)"/>
     <use xlink:href="#DejaVuSans-Bold-53" transform="translate(584.867188 0)"/>
    </g>
   </g>
   <g id="legend_1">
    <g id="patch_7">
     <path d="M 267.287357 255.924969 
L 343.977982 255.924969 
Q 346.507982 255.924969 346.507982 253.394969 
L 346.507982 217.524312 
Q 346.507982 214.994312 343.977982 214.994312 
L 267.287357 214.994312 
Q 264.757357 214.994312 264.757357 217.524312 
L 264.757357 253.394969 
Q 264.757357 255.924969 267.287357 255.924969 
z
" style="fill: #ffffff; opacity: 0.9; stroke: #cccccc; stroke-linejoin: miter"/>
    </g>
    <g id="line2d_16">
     <path d="M 269.817357 225.238836 
L 282.467357 225.238836 
L 295.117357 225.238836 
" style="fill: none; stroke: #1565c0; stroke-width: 2; stroke-linecap: round"/>
    </g>
    <g id="text_17">
     <!-- SMAC -->
     <g style="fill: #262626" transform="translate(305.237357 229.666336) scale(0.1265 -0.1265)">
      <defs>
       <path id="DejaVuSans-4d" d="M 628 4666 
L 1569 4666 
L 2759 1491 
L 3956 4666 
L 4897 4666 
L 4897 0 
L 4281 0 
L 4281 4097 
L 3078 897 
L 2444 897 
L 1241 4097 
L 1241 0 
L 628 0 
L 628 4666 
z
" transform="scale(0.015625)"/>
       <path id="DejaVuSans-41" d="M 2188 4044 
L 1331 1722 
L 3047 1722 
L 2188 4044 
z
M 1831 4666 
L 2547 4666 
L 4325 0 
L 3669 0 
L 3244 1197 
L 1141 1197 
L 716 0 
L 50 0 
L 1831 4666 
z
" transform="scale(0.015625)"/>
       <path id="DejaVuSans-43" d="M 4122 4306 
L 4122 3641 
Q 3803 3938 3442 4084 
Q 3081 4231 2675 4231 
Q 1875 4231 1450 3742 
Q 1025 3253 1025 2328 
Q 1025 1406 1450 917 
Q 1875 428 2675 428 
Q 3081 428 3442 575 
Q 3803 722 4122 1019 
L 4122 359 
Q 3791 134 3420 21 
Q 3050 -91 2638 -91 
Q 1578 -91 968 557 
Q 359 1206 359 2328 
Q 359 3453 968 4101 
Q 1578 4750 2638 4750 
Q 3056 4750 3426 4639 
Q 3797 4528 4122 4306 
z
" transform="scale(0.015625)"/>
      </defs>
      <use xlink:href="#DejaVuSans-53"/>
      <use xlink:href="#DejaVuSans-4d" transform="translate(63.476562 0)"/>
      <use xlink:href="#DejaVuSans-41" transform="translate(149.755859 0)"/>
      <use xlink:href="#DejaVuSans-43" transform="translate(216.414062 0)"/>
     </g>
    </g>
    <g id="line2d_17">
     <path d="M 269.817357 243.806664 
L 282.467357 243.806664 
L 295.117357 243.806664 
" style="fill: none; stroke: #c62828; stroke-width: 2; stroke-linecap: round"/>
    </g>
    <g id="text_18">
     <!-- TPE -->
     <g style="fill: #262626" transform="translate(305.237357 248.234164) scale(0.1265 -0.1265)">
      <defs>
       <path id="DejaVuSans-45" d="M 628 4666 
L 3578 4666 
L 3578 4134 
L 1259 4134 
L 1259 2753 
L 3481 2753 
L 3481 2222 
L 1259 2222 
L 1259 531 
L 3634 531 
L 3634 0 
L 628 0 
L 628 4666 
z
" transform="scale(0.015625)"/>
      </defs>
      <use xlink:href="#DejaVuSans-54"/>
      <use xlink:href="#DejaVuSans-50" transform="translate(61.083984 0)"/>
      <use xlink:href="#DejaVuSans-45" transform="translate(121.386719 0)"/>
     </g>
    </g>
   </g>
  </g>
  <g id="axes_2">
   <g id="patch_8">
    <path d="M 417.282062 262.249969 
L 703.864982 262.249969 
L 703.864982 23.077969 
L 417.282062 23.077969 
z
" style="fill: #ffffff"/>
   </g>
   <g id="matplotlib.axis_3">
    <g id="xtick_9">
     <g id="line2d_18">
      <path d="M 423.795311 262.249969 
L 423.795311 23.077969 
" clip-path="url(#p8d1bb81459)" style="fill: none; stroke: #cccccc; stroke-linecap: round"/>
     </g>
     <g id="text_19">
      <!-- 0 -->
      <g style="fill: #262626" transform="translate(419.771029 281.361992) scale(0.1265 -0.1265)">
       <use xlink:href="#DejaVuSans-30"/>
      </g>
     </g>
    </g>
    <g id="xtick_10">
     <g id="line2d_19">
      <path d="M 462.8748 262.249969 
L 462.8748 23.077969 
" clip-path="url(#p8d1bb81459)" style="fill: none; stroke: #cccccc; stroke-linecap: round"/>
     </g>
     <g id="text_20">
      <!-- 6 -->
      <g style="fill: #262626" transform="translate(458.850518 281.361992) scale(0.1265 -0.1265)">
       <use xlink:href="#DejaVuSans-36"/>
      </g>
     </g>
    </g>
    <g id="xtick_11">
     <g id="line2d_20">
      <path d="M 501.954289 262.249969 
L 501.954289 23.077969 
" clip-path="url(#p8d1bb81459)" style="fill: none; stroke: #cccccc; stroke-linecap: round"/>
     </g>
     <g id="text_21">
      <!-- 12 -->
      <g style="fill: #262626" transform="translate(493.905726 281.361992) scale(0.1265 -0.1265)">
       <use xlink:href="#DejaVuSans-31"/>
       <use xlink:href="#DejaVuSans-32" transform="translate(63.623047 0)"/>
      </g>
     </g>
    </g>
    <g id="xtick_12">
     <g id="line2d_21">
      <path d="M 541.033778 262.249969 
L 541.033778 23.077969 
" clip-path="url(#p8d1bb81459)" style="fill: none; stroke: #cccccc; stroke-linecap: round"/>
     </g>
     <g id="text_22">
      <!-- 18 -->
      <g style="fill: #262626" transform="translate(532.985215 281.361992) scale(0.1265 -0.1265)">
       <use xlink:href="#DejaVuSans-31"/>
       <use xlink:href="#DejaVuSans-38" transform="translate(63.623047 0)"/>
      </g>
     </g>
    </g>
    <g id="xtick_13">
     <g id="line2d_22">
      <path d="M 580.113267 262.249969 
L 580.113267 23.077969 
" clip-path="url(#p8d1bb81459)" style="fill: none; stroke: #cccccc; stroke-linecap: round"/>
     </g>
     <g id="text_23">
      <!-- 24 -->
      <g style="fill: #262626" transform="translate(572.064704 281.361992) scale(0.1265 -0.1265)">
       <use xlink:href="#DejaVuSans-32"/>
       <use xlink:href="#DejaVuSans-34" transform="translate(63.623047 0)"/>
      </g>
     </g>
    </g>
    <g id="xtick_14">
     <g id="line2d_23">
      <path d="M 619.192756 262.249969 
L 619.192756 23.077969 
" clip-path="url(#p8d1bb81459)" style="fill: none; stroke: #cccccc; stroke-linecap: round"/>
     </g>
     <g id="text_24">
      <!-- 30 -->
      <g style="fill: #262626" transform="translate(611.144193 281.361992) scale(0.1265 -0.1265)">
       <use xlink:href="#DejaVuSans-33"/>
       <use xlink:href="#DejaVuSans-30" transform="translate(63.623047 0)"/>
      </g>
     </g>
    </g>
    <g id="xtick_15">
     <g id="line2d_24">
      <path d="M 658.272245 262.249969 
L 658.272245 23.077969 
" clip-path="url(#p8d1bb81459)" style="fill: none; stroke: #cccccc; stroke-linecap: round"/>
     </g>
     <g id="text_25">
      <!-- 36 -->
      <g style="fill: #262626" transform="translate(650.223683 281.361992) scale(0.1265 -0.1265)">
       <use xlink:href="#DejaVuSans-33"/>
       <use xlink:href="#DejaVuSans-36" transform="translate(63.623047 0)"/>
      </g>
     </g>
    </g>
    <g id="xtick_16">
     <g id="line2d_25">
      <path d="M 697.351734 262.249969 
L 697.351734 23.077969 
" clip-path="url(#p8d1bb81459)" style="fill: none; stroke: #cccccc; stroke-linecap: round"/>
     </g>
     <g id="text_26">
      <!-- 42 -->
      <g style="fill: #262626" transform="translate(689.303172 281.361992) scale(0.1265 -0.1265)">
       <use xlink:href="#DejaVuSans-34"/>
       <use xlink:href="#DejaVuSans-32" transform="translate(63.623047 0)"/>
      </g>
     </g>
    </g>
    <g id="text_27">
     <!-- Итерация -->
     <g style="fill: #262626" transform="translate(525.20671 298.478641) scale(0.138 -0.138)">
      <use xlink:href="#DejaVuSans-418"/>
      <use xlink:href="#DejaVuSans-442" transform="translate(74.804688 0)"/>
      <use xlink:href="#DejaVuSans-435" transform="translate(133.056641 0)"/>
      <use xlink:href="#DejaVuSans-440" transform="translate(194.580078 0)"/>
      <use xlink:href="#DejaVuSans-430" transform="translate(258.056641 0)"/>
      <use xlink:href="#DejaVuSans-446" transform="translate(319.335938 0)"/>
      <use xlink:href="#DejaVuSans-438" transform="translate(387.402344 0)"/>
      <use xlink:href="#DejaVuSans-44f" transform="translate(452.392578 0)"/>
     </g>
    </g>
   </g>
   <g id="matplotlib.axis_4">
    <g id="ytick_6">
     <g id="line2d_26">
      <path d="M 417.282062 229.246202 
L 703.864982 229.246202 
" clip-path="url(#p8d1bb81459)" style="fill: none; stroke: #cccccc; stroke-linecap: round"/>
     </g>
     <g id="text_28">
      <!-- 4.0 -->
      <g style="fill: #262626" transform="translate(387.664609 234.052214) scale(0.1265 -0.1265)">
       <defs>
        <path id="DejaVuSans-2e" d="M 684 794 
L 1344 794 
L 1344 0 
L 684 0 
L 684 794 
z
" transform="scale(0.015625)"/>
       </defs>
       <use xlink:href="#DejaVuSans-34"/>
       <use xlink:href="#DejaVuSans-2e" transform="translate(63.623047 0)"/>
       <use xlink:href="#DejaVuSans-30" transform="translate(95.410156 0)"/>
      </g>
     </g>
    </g>
    <g id="ytick_7">
     <g id="line2d_27">
      <path d="M 417.282062 192.165702 
L 703.864982 192.165702 
" clip-path="url(#p8d1bb81459)" style="fill: none; stroke: #cccccc; stroke-linecap: round"/>
     </g>
     <g id="text_29">
      <!-- 4.5 -->
      <g style="fill: #262626" transform="translate(387.664609 196.971714) scale(0.1265 -0.1265)">
       <defs>
        <path id="DejaVuSans-35" d="M 691 4666 
L 3169 4666 
L 3169 4134 
L 1269 4134 
L 1269 2991 
Q 1406 3038 1543 3061 
Q 1681 3084 1819 3084 
Q 2600 3084 3056 2656 
Q 3513 2228 3513 1497 
Q 3513 744 3044 326 
Q 2575 -91 1722 -91 
Q 1428 -91 1123 -41 
Q 819 9 494 109 
L 494 744 
Q 775 591 1075 516 
Q 1375 441 1709 441 
Q 2250 441 2565 725 
Q 2881 1009 2881 1497 
Q 2881 1984 2565 2268 
Q 2250 2553 1709 2553 
Q 1456 2553 1204 2497 
Q 953 2441 691 2322 
L 691 4666 
z
" transform="scale(0.015625)"/>
       </defs>
       <use xlink:href="#DejaVuSans-34"/>
       <use xlink:href="#DejaVuSans-2e" transform="translate(63.623047 0)"/>
       <use xlink:href="#DejaVuSans-35" transform="translate(95.410156 0)"/>
      </g>
     </g>
    </g>
    <g id="ytick_8">
     <g id="line2d_28">
      <path d="M 417.282062 155.085202 
L 703.864982 155.085202 
" clip-path="url(#p8d1bb81459)" style="fill: none; stroke: #cccccc; stroke-linecap: round"/>
     </g>
     <g id="text_30">
      <!-- 5.0 -->
      <g style="fill: #262626" transform="translate(387.664609 159.891213) scale(0.1265 -0.1265)">
       <use xlink:href="#DejaVuSans-35"/>
       <use xlink:href="#DejaVuSans-2e" transform="translate(63.623047 0)"/>
       <use xlink:href="#DejaVuSans-30" transform="translate(95.410156 0)"/>
      </g>
     </g>
    </g>
    <g id="ytick_9">
     <g id="line2d_29">
      <path d="M 417.282062 118.004701 
L 703.864982 118.004701 
" clip-path="url(#p8d1bb81459)" style="fill: none; stroke: #cccccc; stroke-linecap: round"/>
     </g>
     <g id="text_31">
      <!-- 5.5 -->
      <g style="fill: #262626" transform="translate(387.664609 122.810713) scale(0.1265 -0.1265)">
       <use xlink:href="#DejaVuSans-35"/>
       <use xlink:href="#DejaVuSans-2e" transform="translate(63.623047 0)"/>
       <use xlink:href="#DejaVuSans-35" transform="translate(95.410156 0)"/>
      </g>
     </g>
    </g>
    <g id="ytick_10">
     <g id="line2d_30">
      <path d="M 417.282062 80.924201 
L 703.864982 80.924201 
" clip-path="url(#p8d1bb81459)" style="fill: none; stroke: #cccccc; stroke-linecap: round"/>
     </g>
     <g id="text_32">
      <!-- 6.0 -->
      <g style="fill: #262626" transform="translate(387.664609 85.730213) scale(0.1265 -0.1265)">
       <use xlink:href="#DejaVuSans-36"/>
       <use xlink:href="#DejaVuSans-2e" transform="translate(63.623047 0)"/>
       <use xlink:href="#DejaVuSans-30" transform="translate(95.410156 0)"/>
      </g>
     </g>
    </g>
    <g id="ytick_11">
     <g id="line2d_31">
      <path d="M 417.282062 43.843701 
L 703.864982 43.843701 
" clip-path="url(#p8d1bb81459)" style="fill: none; stroke: #cccccc; stroke-linecap: round"/>
     </g>
     <g id="text_33">
      <!-- 6.5 -->
      <g style="fill: #262626" transform="translate(387.664609 48.649712) scale(0.1265 -0.1265)">
       <use xlink:href="#DejaVuSans-36"/>
       <use xlink:href="#DejaVuSans-2e" transform="translate(63.623047 0)"/>
       <use xlink:href="#DejaVuSans-35" transform="translate(95.410156 0)"/>
      </g>
     </g>
    </g>
    <g id="text_34">
     <!-- Latency (ms) -->
     <g style="fill: #262626" transform="translate(380.794641 187.830937) rotate(-90) scale(0.138 -0.138)">
      <defs>
       <path id="DejaVuSans-4c" d="M 628 4666 
L 1259 4666 
L 1259 531 
L 3531 531 
L 3531 0 
L 628 0 
L 628 4666 
z
" transform="scale(0.015625)"/>
       <path id="DejaVuSans-61" d="M 2194 1759 
Q 1497 1759 1228 1600 
Q 959 1441 959 1056 
Q 959 750 1161 570 
Q 1363 391 1709 391 
Q 2188 391 2477 730 
Q 2766 1069 2766 1631 
L 2766 1759 
L 2194 1759 
z
M 3341 1997 
L 3341 0 
L 2766 0 
L 2766 531 
Q 2569 213 2275 61 
Q 1981 -91 1556 -91 
Q 1019 -91 701 211 
Q 384 513 384 1019 
Q 384 1609 779 1909 
Q 1175 2209 1959 2209 
L 2766 2209 
L 2766 2266 
Q 2766 2663 2505 2880 
Q 2244 3097 1772 3097 
Q 1472 3097 1187 3025 
Q 903 2953 641 2809 
L 641 3341 
Q 956 3463 1253 3523 
Q 1550 3584 1831 3584 
Q 2591 3584 2966 3190 
Q 3341 2797 3341 1997 
z
" transform="scale(0.015625)"/>
       <path id="DejaVuSans-74" d="M 1172 4494 
L 1172 3500 
L 2356 3500 
L 2356 3053 
L 1172 3053 
L 1172 1153 
Q 1172 725 1289 603 
Q 1406 481 1766 481 
L 2356 481 
L 2356 0 
L 1766 0 
Q 1100 0 847 248 
Q 594 497 594 1153 
L 594 3053 
L 172 3053 
L 172 3500 
L 594 3500 
L 594 4494 
L 1172 4494 
z
" transform="scale(0.015625)"/>
       <path id="DejaVuSans-65" d="M 3597 1894 
L 3597 1613 
L 953 1613 
Q 991 1019 1311 708 
Q 1631 397 2203 397 
Q 2534 397 2845 478 
Q 3156 559 3463 722 
L 3463 178 
Q 3153 47 2828 -22 
Q 2503 -91 2169 -91 
Q 1331 -91 842 396 
Q 353 884 353 1716 
Q 353 2575 817 3079 
Q 1281 3584 2069 3584 
Q 2775 3584 3186 3129 
Q 3597 2675 3597 1894 
z
M 3022 2063 
Q 3016 2534 2758 2815 
Q 2500 3097 2075 3097 
Q 1594 3097 1305 2825 
Q 1016 2553 972 2059 
L 3022 2063 
z
" transform="scale(0.015625)"/>
       <path id="DejaVuSans-6e" d="M 3513 2113 
L 3513 0 
L 2938 0 
L 2938 2094 
Q 2938 2591 2744 2837 
Q 2550 3084 2163 3084 
Q 1697 3084 1428 2787 
Q 1159 2491 1159 1978 
L 1159 0 
L 581 0 
L 581 3500 
L 1159 3500 
L 1159 2956 
Q 1366 3272 1645 3428 
Q 1925 3584 2291 3584 
Q 2894 3584 3203 3211 
Q 3513 2838 3513 2113 
z
" transform="scale(0.015625)"/>
       <path id="DejaVuSans-63" d="M 3122 3366 
L 3122 2828 
Q 2878 2963 2633 3030 
Q 2388 3097 2138 3097 
Q 1578 3097 1268 2742 
Q 959 2388 959 1747 
Q 959 1106 1268 751 
Q 1578 397 2138 397 
Q 2388 397 2633 464 
Q 2878 531 3122 666 
L 3122 134 
Q 2881 22 2623 -34 
Q 2366 -91 2075 -91 
Q 1284 -91 818 406 
Q 353 903 353 1747 
Q 353 2603 823 3093 
Q 1294 3584 2113 3584 
Q 2378 3584 2631 3529 
Q 2884 3475 3122 3366 
z
" transform="scale(0.015625)"/>
       <path id="DejaVuSans-79" d="M 2059 -325 
Q 1816 -950 1584 -1140 
Q 1353 -1331 966 -1331 
L 506 -1331 
L 506 -850 
L 844 -850 
Q 1081 -850 1212 -737 
Q 1344 -625 1503 -206 
L 1606 56 
L 191 3500 
L 800 3500 
L 1894 763 
L 2988 3500 
L 3597 3500 
L 2059 -325 
z
" transform="scale(0.015625)"/>
       <path id="DejaVuSans-20" transform="scale(0.015625)"/>
       <path id="DejaVuSans-28" d="M 1984 4856 
Q 1566 4138 1362 3434 
Q 1159 2731 1159 2009 
Q 1159 1288 1364 580 
Q 1569 -128 1984 -844 
L 1484 -844 
Q 1016 -109 783 600 
Q 550 1309 550 2009 
Q 550 2706 781 3412 
Q 1013 4119 1484 4856 
L 1984 4856 
z
" transform="scale(0.015625)"/>
       <path id="DejaVuSans-6d" d="M 3328 2828 
Q 3544 3216 3844 3400 
Q 4144 3584 4550 3584 
Q 5097 3584 5394 3201 
Q 5691 2819 5691 2113 
L 5691 0 
L 5113 0 
L 5113 2094 
Q 5113 2597 4934 2840 
Q 4756 3084 4391 3084 
Q 3944 3084 3684 2787 
Q 3425 2491 3425 1978 
L 3425 0 
L 2847 0 
L 2847 2094 
Q 2847 2600 2669 2842 
Q 2491 3084 2119 3084 
Q 1678 3084 1418 2786 
Q 1159 2488 1159 1978 
L 1159 0 
L 581 0 
L 581 3500 
L 1159 3500 
L 1159 2956 
Q 1356 3278 1631 3431 
Q 1906 3584 2284 3584 
Q 2666 3584 2933 3390 
Q 3200 3197 3328 2828 
z
" transform="scale(0.015625)"/>
       <path id="DejaVuSans-73" d="M 2834 3397 
L 2834 2853 
Q 2591 2978 2328 3040 
Q 2066 3103 1784 3103 
Q 1356 3103 1142 2972 
Q 928 2841 928 2578 
Q 928 2378 1081 2264 
Q 1234 2150 1697 2047 
L 1894 2003 
Q 2506 1872 2764 1633 
Q 3022 1394 3022 966 
Q 3022 478 2636 193 
Q 2250 -91 1575 -91 
Q 1294 -91 989 -36 
Q 684 19 347 128 
L 347 722 
Q 666 556 975 473 
Q 1284 391 1588 391 
Q 1994 391 2212 530 
Q 2431 669 2431 922 
Q 2431 1156 2273 1281 
Q 2116 1406 1581 1522 
L 1381 1569 
Q 847 1681 609 1914 
Q 372 2147 372 2553 
Q 372 3047 722 3315 
Q 1072 3584 1716 3584 
Q 2034 3584 2315 3537 
Q 2597 3491 2834 3397 
z
" transform="scale(0.015625)"/>
       <path id="DejaVuSans-29" d="M 513 4856 
L 1013 4856 
Q 1481 4119 1714 3412 
Q 1947 2706 1947 2009 
Q 1947 1309 1714 600 
Q 1481 -109 1013 -844 
L 513 -844 
Q 928 -128 1133 580 
Q 1338 1288 1338 2009 
Q 1338 2731 1133 3434 
Q 928 4138 513 4856 
z
" transform="scale(0.015625)"/>
      </defs>
      <use xlink:href="#DejaVuSans-4c"/>
      <use xlink:href="#DejaVuSans-61" transform="translate(55.712891 0)"/>
      <use xlink:href="#DejaVuSans-74" transform="translate(116.992188 0)"/>
      <use xlink:href="#DejaVuSans-65" transform="translate(156.201172 0)"/>
      <use xlink:href="#DejaVuSans-6e" transform="translate(217.724609 0)"/>
      <use xlink:href="#DejaVuSans-63" transform="translate(281.103516 0)"/>
      <use xlink:href="#DejaVuSans-79" transform="translate(336.083984 0)"/>
      <use xlink:href="#DejaVuSans-20" transform="translate(395.263672 0)"/>
      <use xlink:href="#DejaVuSans-28" transform="translate(427.050781 0)"/>
      <use xlink:href="#DejaVuSans-6d" transform="translate(466.064453 0)"/>
      <use xlink:href="#DejaVuSans-73" transform="translate(563.476562 0)"/>
      <use xlink:href="#DejaVuSans-29" transform="translate(615.576172 0)"/>
     </g>
    </g>
   </g>
   <g id="FillBetweenPolyCollection_3">
    <defs>
     <path id="me3bb08c2ba" d="M 430.308559 -235.737367 
L 430.308559 -196.532348 
L 436.821807 -128.187363 
L 443.335055 -128.187363 
L 449.848303 -122.69841 
L 456.361552 -68.377507 
L 462.8748 -60.724848 
L 469.388048 -57.170095 
L 475.901296 -57.170095 
L 482.414544 -60.408532 
L 488.927792 -64.364838 
L 495.441041 -63.409723 
L 501.954289 -63.409723 
L 508.467537 -63.409723 
L 514.980785 -63.409723 
L 521.494033 -63.409723 
L 528.007282 -63.409723 
L 534.52053 -64.076561 
L 541.033778 -64.076561 
L 547.547026 -64.076561 
L 554.060274 -64.076561 
L 560.573522 -64.076561 
L 567.086771 -64.351281 
L 573.600019 -65.49344 
L 580.113267 -65.49344 
L 586.626515 -65.49344 
L 593.139763 -65.49344 
L 599.653011 -65.49344 
L 606.16626 -65.49344 
L 612.679508 -65.49344 
L 619.192756 -65.49344 
L 625.706004 -64.831921 
L 632.219252 -64.831921 
L 638.732501 -65.989943 
L 645.245749 -66.127533 
L 651.758997 -66.127533 
L 658.272245 -66.231705 
L 664.785493 -66.231705 
L 671.298741 -66.260645 
L 677.81199 -66.260645 
L 684.325238 -66.260645 
L 690.838486 -66.260645 
L 690.838486 -76.401574 
L 690.838486 -76.401574 
L 684.325238 -76.401574 
L 677.81199 -76.401574 
L 671.298741 -76.401574 
L 664.785493 -78.002205 
L 658.272245 -78.002205 
L 651.758997 -79.57393 
L 645.245749 -79.57393 
L 638.732501 -81.04197 
L 632.219252 -89.783571 
L 625.706004 -89.783571 
L 619.192756 -89.774876 
L 612.679508 -89.774876 
L 606.16626 -89.774876 
L 599.653011 -89.774876 
L 593.139763 -89.774876 
L 586.626515 -89.774876 
L 580.113267 -89.774876 
L 573.600019 -89.774876 
L 567.086771 -97.014675 
L 560.573522 -98.710561 
L 554.060274 -98.710561 
L 547.547026 -98.710561 
L 541.033778 -98.710561 
L 534.52053 -98.710561 
L 528.007282 -102.785263 
L 521.494033 -102.785263 
L 514.980785 -102.785263 
L 508.467537 -102.785263 
L 501.954289 -102.785263 
L 495.441041 -102.785263 
L 488.927792 -165.424315 
L 482.414544 -190.013709 
L 475.901296 -209.693266 
L 469.388048 -209.693266 
L 462.8748 -210.941581 
L 456.361552 -211.51982 
L 449.848303 -227.559305 
L 443.335055 -234.138356 
L 436.821807 -234.138356 
L 430.308559 -235.737367 
z
" style="stroke: #1565c0; stroke-opacity: 0.15"/>
    </defs>
    <g clip-path="url(#p8d1bb81459)">
     <use xlink:href="#me3bb08c2ba" x="0" y="308.548609" style="fill: #1565c0; fill-opacity: 0.15; stroke: #1565c0; stroke-opacity: 0.15"/>
    </g>
   </g>
   <g id="FillBetweenPolyCollection_4">
    <defs>
     <path id="mdace27a2af" d="M 430.308559 -274.599186 
L 430.308559 -100.586539 
L 436.821807 -94.617519 
L 443.335055 -94.303321 
L 449.848303 -60.669249 
L 456.361552 -65.896881 
L 462.8748 -65.819169 
L 469.388048 -65.819169 
L 475.901296 -65.819169 
L 482.414544 -65.819169 
L 488.927792 -65.819169 
L 495.441041 -70.275256 
L 501.954289 -67.814769 
L 508.467537 -67.814769 
L 514.980785 -67.814769 
L 521.494033 -67.814769 
L 528.007282 -67.814769 
L 534.52053 -67.814769 
L 541.033778 -67.814769 
L 547.547026 -67.814769 
L 554.060274 -67.814769 
L 560.573522 -67.814769 
L 567.086771 -67.814769 
L 573.600019 -67.814769 
L 580.113267 -67.814769 
L 586.626515 -67.814769 
L 593.139763 -67.814769 
L 599.653011 -67.814769 
L 606.16626 -67.814769 
L 612.679508 -67.814769 
L 619.192756 -67.814769 
L 625.706004 -67.814769 
L 632.219252 -67.814769 
L 638.732501 -67.814769 
L 645.245749 -67.814769 
L 651.758997 -67.814769 
L 658.272245 -67.814769 
L 664.785493 -67.814769 
L 671.298741 -67.814769 
L 677.81199 -67.814769 
L 684.325238 -68.609372 
L 690.838486 -68.609372 
L 690.838486 -115.349719 
L 690.838486 -115.349719 
L 684.325238 -115.349719 
L 677.81199 -124.309156 
L 671.298741 -124.309156 
L 664.785493 -124.309156 
L 658.272245 -124.309156 
L 651.758997 -124.309156 
L 645.245749 -124.309156 
L 638.732501 -124.309156 
L 632.219252 -124.309156 
L 625.706004 -124.309156 
L 619.192756 -124.309156 
L 612.679508 -124.309156 
L 606.16626 -124.309156 
L 599.653011 -124.309156 
L 593.139763 -124.309156 
L 586.626515 -124.309156 
L 580.113267 -124.309156 
L 573.600019 -124.309156 
L 567.086771 -124.309156 
L 560.573522 -124.309156 
L 554.060274 -124.309156 
L 547.547026 -124.309156 
L 541.033778 -124.309156 
L 534.52053 -124.309156 
L 528.007282 -124.309156 
L 521.494033 -124.309156 
L 514.980785 -124.309156 
L 508.467537 -124.309156 
L 501.954289 -124.309156 
L 495.441041 -124.08328 
L 488.927792 -156.257753 
L 482.414544 -156.257753 
L 475.901296 -156.257753 
L 469.388048 -156.257753 
L 462.8748 -156.257753 
L 456.361552 -156.257195 
L 449.848303 -189.235303 
L 443.335055 -243.21316 
L 436.821807 -244.099914 
L 430.308559 -274.599186 
z
" style="stroke: #c62828; stroke-opacity: 0.15"/>
    </defs>
    <g clip-path="url(#p8d1bb81459)">
     <use xlink:href="#mdace27a2af" x="0" y="308.548609" style="fill: #c62828; fill-opacity: 0.15; stroke: #c62828; stroke-opacity: 0.15"/>
    </g>
   </g>
   <g id="line2d_32">
    <path d="M 430.308559 92.413752 
L 436.821807 127.385749 
L 443.335055 127.385749 
L 449.848303 133.419752 
L 456.361552 168.599946 
L 462.8748 172.715394 
L 469.388048 175.116929 
L 475.901296 175.116929 
L 482.414544 183.337489 
L 488.927792 193.654033 
L 495.441041 225.451116 
L 501.954289 225.451116 
L 508.467537 225.451116 
L 514.980785 225.451116 
L 521.494033 225.451116 
L 528.007282 225.451116 
L 534.52053 227.155048 
L 541.033778 227.155048 
L 547.547026 227.155048 
L 554.060274 227.155048 
L 560.573522 227.155048 
L 567.086771 227.865632 
L 573.600019 230.914451 
L 580.113267 230.914451 
L 586.626515 230.914451 
L 593.139763 230.914451 
L 599.653011 230.914451 
L 606.16626 230.914451 
L 612.679508 230.914451 
L 619.192756 230.914451 
L 625.706004 231.240863 
L 632.219252 231.240863 
L 638.732501 235.032653 
L 645.245749 235.697878 
L 651.758997 235.697878 
L 658.272245 236.431655 
L 664.785493 236.431655 
L 671.298741 237.2175 
L 677.81199 237.2175 
L 684.325238 237.2175 
L 690.838486 237.2175 
" clip-path="url(#p8d1bb81459)" style="fill: none; stroke: #1565c0; stroke-width: 2; stroke-linecap: round"/>
   </g>
   <g id="line2d_33">
    <path d="M 430.308559 120.955747 
L 436.821807 139.189893 
L 443.335055 139.790369 
L 449.848303 183.596333 
L 456.361552 197.471571 
L 462.8748 197.510148 
L 469.388048 197.510148 
L 475.901296 197.510148 
L 482.414544 197.510148 
L 488.927792 197.510148 
L 495.441041 211.369341 
L 501.954289 212.486647 
L 508.467537 212.486647 
L 514.980785 212.486647 
L 521.494033 212.486647 
L 528.007282 212.486647 
L 534.52053 212.486647 
L 541.033778 212.486647 
L 547.547026 212.486647 
L 554.060274 212.486647 
L 560.573522 212.486647 
L 567.086771 212.486647 
L 573.600019 212.486647 
L 580.113267 212.486647 
L 586.626515 212.486647 
L 593.139763 212.486647 
L 599.653011 212.486647 
L 606.16626 212.486647 
L 612.679508 212.486647 
L 619.192756 212.486647 
L 625.706004 212.486647 
L 632.219252 212.486647 
L 638.732501 212.486647 
L 645.245749 212.486647 
L 651.758997 212.486647 
L 658.272245 212.486647 
L 664.785493 212.486647 
L 671.298741 212.486647 
L 677.81199 212.486647 
L 684.325238 216.569064 
L 690.838486 216.569064 
" clip-path="url(#p8d1bb81459)" style="fill: none; stroke: #c62828; stroke-width: 2; stroke-linecap: round"/>
   </g>
   <g id="patch_9">
    <path d="M 417.282062 262.249969 
L 417.282062 23.077969 
" style="fill: none; stroke: #cccccc; stroke-width: 1.25; stroke-linejoin: miter; stroke-linecap: square"/>
   </g>
   <g id="patch_10">
    <path d="M 703.864982 262.249969 
L 703.864982 23.077969 
" style="fill: none; stroke: #cccccc; stroke-width: 1.25; stroke-linejoin: miter; stroke-linecap: square"/>
   </g>
   <g id="patch_11">
    <path d="M 417.282062 262.249969 
L 703.864982 262.249969 
" style="fill: none; stroke: #cccccc; stroke-width: 1.25; stroke-linejoin: miter; stroke-linecap: square"/>
   </g>
   <g id="patch_12">
    <path d="M 417.282062 23.077969 
L 703.864982 23.077969 
" style="fill: none; stroke: #cccccc; stroke-width: 1.25; stroke-linejoin: miter; stroke-linecap: square"/>
   </g>
   <g id="text_35">
    <!-- OLTP — Latency -->
    <g style="fill: #262626" transform="translate(502.992663 17.077969) scale(0.13 -0.13)">
     <defs>
      <path id="DejaVuSans-Bold-61" d="M 2106 1575 
Q 1756 1575 1579 1456 
Q 1403 1338 1403 1106 
Q 1403 894 1545 773 
Q 1688 653 1941 653 
Q 2256 653 2472 879 
Q 2688 1106 2688 1447 
L 2688 1575 
L 2106 1575 
z
M 3816 1997 
L 3816 0 
L 2688 0 
L 2688 519 
Q 2463 200 2181 54 
Q 1900 -91 1497 -91 
Q 953 -91 614 226 
Q 275 544 275 1050 
Q 275 1666 698 1953 
Q 1122 2241 2028 2241 
L 2688 2241 
L 2688 2328 
Q 2688 2594 2478 2717 
Q 2269 2841 1825 2841 
Q 1466 2841 1156 2769 
Q 847 2697 581 2553 
L 581 3406 
Q 941 3494 1303 3539 
Q 1666 3584 2028 3584 
Q 2975 3584 3395 3211 
Q 3816 2838 3816 1997 
z
" transform="scale(0.015625)"/>
      <path id="DejaVuSans-Bold-74" d="M 1759 4494 
L 1759 3500 
L 2913 3500 
L 2913 2700 
L 1759 2700 
L 1759 1216 
Q 1759 972 1856 886 
Q 1953 800 2241 800 
L 2816 800 
L 2816 0 
L 1856 0 
Q 1194 0 917 276 
Q 641 553 641 1216 
L 641 2700 
L 84 2700 
L 84 3500 
L 641 3500 
L 641 4494 
L 1759 4494 
z
" transform="scale(0.015625)"/>
      <path id="DejaVuSans-Bold-65" d="M 4031 1759 
L 4031 1441 
L 1416 1441 
Q 1456 1047 1700 850 
Q 1944 653 2381 653 
Q 2734 653 3104 758 
Q 3475 863 3866 1075 
L 3866 213 
Q 3469 63 3072 -14 
Q 2675 -91 2278 -91 
Q 1328 -91 801 392 
Q 275 875 275 1747 
Q 275 2603 792 3093 
Q 1309 3584 2216 3584 
Q 3041 3584 3536 3087 
Q 4031 2591 4031 1759 
z
M 2881 2131 
Q 2881 2450 2695 2645 
Q 2509 2841 2209 2841 
Q 1884 2841 1681 2658 
Q 1478 2475 1428 2131 
L 2881 2131 
z
" transform="scale(0.015625)"/>
      <path id="DejaVuSans-Bold-6e" d="M 4056 2131 
L 4056 0 
L 2931 0 
L 2931 347 
L 2931 1631 
Q 2931 2084 2911 2256 
Q 2891 2428 2841 2509 
Q 2775 2619 2662 2680 
Q 2550 2741 2406 2741 
Q 2056 2741 1856 2470 
Q 1656 2200 1656 1722 
L 1656 0 
L 538 0 
L 538 3500 
L 1656 3500 
L 1656 2988 
Q 1909 3294 2193 3439 
Q 2478 3584 2822 3584 
Q 3428 3584 3742 3212 
Q 4056 2841 4056 2131 
z
" transform="scale(0.015625)"/>
      <path id="DejaVuSans-Bold-63" d="M 3366 3391 
L 3366 2478 
Q 3138 2634 2908 2709 
Q 2678 2784 2431 2784 
Q 1963 2784 1702 2511 
Q 1441 2238 1441 1747 
Q 1441 1256 1702 982 
Q 1963 709 2431 709 
Q 2694 709 2930 787 
Q 3166 866 3366 1019 
L 3366 103 
Q 3103 6 2833 -42 
Q 2563 -91 2291 -91 
Q 1344 -91 809 395 
Q 275 881 275 1747 
Q 275 2613 809 3098 
Q 1344 3584 2291 3584 
Q 2566 3584 2833 3536 
Q 3100 3488 3366 3391 
z
" transform="scale(0.015625)"/>
      <path id="DejaVuSans-Bold-79" d="M 78 3500 
L 1197 3500 
L 2138 1125 
L 2938 3500 
L 4056 3500 
L 2584 -331 
Q 2363 -916 2067 -1148 
Q 1772 -1381 1288 -1381 
L 641 -1381 
L 641 -647 
L 991 -647 
Q 1275 -647 1404 -556 
Q 1534 -466 1606 -231 
L 1638 -134 
L 78 3500 
z
" transform="scale(0.015625)"/>
     </defs>
     <use xlink:href="#DejaVuSans-Bold-4f"/>
     <use xlink:href="#DejaVuSans-Bold-4c" transform="translate(85.009766 0)"/>
     <use xlink:href="#DejaVuSans-Bold-54" transform="translate(132.230469 0)"/>
     <use xlink:href="#DejaVuSans-Bold-50" transform="translate(200.443359 0)"/>
     <use xlink:href="#DejaVuSans-Bold-20" transform="translate(273.734375 0)"/>
     <use xlink:href="#DejaVuSans-Bold-2014" transform="translate(308.548828 0)"/>
     <use xlink:href="#DejaVuSans-Bold-20" transform="translate(408.548828 0)"/>
     <use xlink:href="#DejaVuSans-Bold-4c" transform="translate(443.363281 0)"/>
     <use xlink:href="#DejaVuSans-Bold-61" transform="translate(507.083984 0)"/>
     <use xlink:href="#DejaVuSans-Bold-74" transform="translate(574.564453 0)"/>
     <use xlink:href="#DejaVuSans-Bold-65" transform="translate(622.367188 0)"/>
     <use xlink:href="#DejaVuSans-Bold-6e" transform="translate(690.189453 0)"/>
     <use xlink:href="#DejaVuSans-Bold-63" transform="translate(761.380859 0)"/>
     <use xlink:href="#DejaVuSans-Bold-79" transform="translate(820.658203 0)"/>
    </g>
   </g>
   <g id="legend_2">
    <g id="patch_13">
     <path d="M 618.319357 70.333625 
L 695.009982 70.333625 
Q 697.539982 70.333625 697.539982 67.803625 
L 697.539982 31.932969 
Q 697.539982 29.402969 695.009982 29.402969 
L 618.319357 29.402969 
Q 615.789357 29.402969 615.789357 31.932969 
L 615.789357 67.803625 
Q 615.789357 70.333625 618.319357 70.333625 
z
" style="fill: #ffffff; opacity: 0.9; stroke: #cccccc; stroke-linejoin: miter"/>
    </g>
    <g id="line2d_34">
     <path d="M 620.849357 39.647492 
L 633.499357 39.647492 
L 646.149357 39.647492 
" style="fill: none; stroke: #1565c0; stroke-width: 2; stroke-linecap: round"/>
    </g>
    <g id="text_36">
     <!-- SMAC -->
     <g style="fill: #262626" transform="translate(656.269357 44.074992) scale(0.1265 -0.1265)">
      <use xlink:href="#DejaVuSans-53"/>
      <use xlink:href="#DejaVuSans-4d" transform="translate(63.476562 0)"/>
      <use xlink:href="#DejaVuSans-41" transform="translate(149.755859 0)"/>
      <use xlink:href="#DejaVuSans-43" transform="translate(216.414062 0)"/>
     </g>
    </g>
    <g id="line2d_35">
     <path d="M 620.849357 58.21532 
L 633.499357 58.21532 
L 646.149357 58.21532 
" style="fill: none; stroke: #c62828; stroke-width: 2; stroke-linecap: round"/>
    </g>
    <g id="text_37">
     <!-- TPE -->
     <g style="fill: #262626" transform="translate(656.269357 62.64282) scale(0.1265 -0.1265)">
      <use xlink:href="#DejaVuSans-54"/>
      <use xlink:href="#DejaVuSans-50" transform="translate(61.083984 0)"/>
      <use xlink:href="#DejaVuSans-45" transform="translate(121.386719 0)"/>
     </g>
    </g>
   </g>
  </g>
  <g id="axes_3">
   <g id="patch_14">
    <path d="M 768.314062 262.249969 
L 1054.896982 262.249969 
L 1054.896982 23.077969 
L 768.314062 23.077969 
z
" style="fill: #ffffff"/>
   </g>
   <g id="matplotlib.axis_5">
    <g id="xtick_17">
     <g id="line2d_36">
      <path d="M 774.827311 262.249969 
L 774.827311 23.077969 
" clip-path="url(#pdbf1591d8d)" style="fill: none; stroke: #cccccc; stroke-linecap: round"/>
     </g>
     <g id="text_38">
      <!-- 0 -->
      <g style="fill: #262626" transform="translate(770.803029 281.361992) scale(0.1265 -0.1265)">
       <use xlink:href="#DejaVuSans-30"/>
      </g>
     </g>
    </g>
    <g id="xtick_18">
     <g id="line2d_37">
      <path d="M 813.9068 262.249969 
L 813.9068 23.077969 
" clip-path="url(#pdbf1591d8d)" style="fill: none; stroke: #cccccc; stroke-linecap: round"/>
     </g>
     <g id="text_39">
      <!-- 6 -->
      <g style="fill: #262626" transform="translate(809.882518 281.361992) scale(0.1265 -0.1265)">
       <use xlink:href="#DejaVuSans-36"/>
      </g>
     </g>
    </g>
    <g id="xtick_19">
     <g id="line2d_38">
      <path d="M 852.986289 262.249969 
L 852.986289 23.077969 
" clip-path="url(#pdbf1591d8d)" style="fill: none; stroke: #cccccc; stroke-linecap: round"/>
     </g>
     <g id="text_40">
      <!-- 12 -->
      <g style="fill: #262626" transform="translate(844.937726 281.361992) scale(0.1265 -0.1265)">
       <use xlink:href="#DejaVuSans-31"/>
       <use xlink:href="#DejaVuSans-32" transform="translate(63.623047 0)"/>
      </g>
     </g>
    </g>
    <g id="xtick_20">
     <g id="line2d_39">
      <path d="M 892.065778 262.249969 
L 892.065778 23.077969 
" clip-path="url(#pdbf1591d8d)" style="fill: none; stroke: #cccccc; stroke-linecap: round"/>
     </g>
     <g id="text_41">
      <!-- 18 -->
      <g style="fill: #262626" transform="translate(884.017215 281.361992) scale(0.1265 -0.1265)">
       <use xlink:href="#DejaVuSans-31"/>
       <use xlink:href="#DejaVuSans-38" transform="translate(63.623047 0)"/>
      </g>
     </g>
    </g>
    <g id="xtick_21">
     <g id="line2d_40">
      <path d="M 931.145267 262.249969 
L 931.145267 23.077969 
" clip-path="url(#pdbf1591d8d)" style="fill: none; stroke: #cccccc; stroke-linecap: round"/>
     </g>
     <g id="text_42">
      <!-- 24 -->
      <g style="fill: #262626" transform="translate(923.096704 281.361992) scale(0.1265 -0.1265)">
       <use xlink:href="#DejaVuSans-32"/>
       <use xlink:href="#DejaVuSans-34" transform="translate(63.623047 0)"/>
      </g>
     </g>
    </g>
    <g id="xtick_22">
     <g id="line2d_41">
      <path d="M 970.224756 262.249969 
L 970.224756 23.077969 
" clip-path="url(#pdbf1591d8d)" style="fill: none; stroke: #cccccc; stroke-linecap: round"/>
     </g>
     <g id="text_43">
      <!-- 30 -->
      <g style="fill: #262626" transform="translate(962.176193 281.361992) scale(0.1265 -0.1265)">
       <use xlink:href="#DejaVuSans-33"/>
       <use xlink:href="#DejaVuSans-30" transform="translate(63.623047 0)"/>
      </g>
     </g>
    </g>
    <g id="xtick_23">
     <g id="line2d_42">
      <path d="M 1009.304245 262.249969 
L 1009.304245 23.077969 
" clip-path="url(#pdbf1591d8d)" style="fill: none; stroke: #cccccc; stroke-linecap: round"/>
     </g>
     <g id="text_44">
      <!-- 36 -->
      <g style="fill: #262626" transform="translate(1001.255683 281.361992) scale(0.1265 -0.1265)">
       <use xlink:href="#DejaVuSans-33"/>
       <use xlink:href="#DejaVuSans-36" transform="translate(63.623047 0)"/>
      </g>
     </g>
    </g>
    <g id="xtick_24">
     <g id="line2d_43">
      <path d="M 1048.383734 262.249969 
L 1048.383734 23.077969 
" clip-path="url(#pdbf1591d8d)" style="fill: none; stroke: #cccccc; stroke-linecap: round"/>
     </g>
     <g id="text_45">
      <!-- 42 -->
      <g style="fill: #262626" transform="translate(1040.335172 281.361992) scale(0.1265 -0.1265)">
       <use xlink:href="#DejaVuSans-34"/>
       <use xlink:href="#DejaVuSans-32" transform="translate(63.623047 0)"/>
      </g>
     </g>
    </g>
    <g id="text_46">
     <!-- Итерация -->
     <g style="fill: #262626" transform="translate(876.23871 298.478641) scale(0.138 -0.138)">
      <use xlink:href="#DejaVuSans-418"/>
      <use xlink:href="#DejaVuSans-442" transform="translate(74.804688 0)"/>
      <use xlink:href="#DejaVuSans-435" transform="translate(133.056641 0)"/>
      <use xlink:href="#DejaVuSans-440" transform="translate(194.580078 0)"/>
      <use xlink:href="#DejaVuSans-430" transform="translate(258.056641 0)"/>
      <use xlink:href="#DejaVuSans-446" transform="translate(319.335938 0)"/>
      <use xlink:href="#DejaVuSans-438" transform="translate(387.402344 0)"/>
      <use xlink:href="#DejaVuSans-44f" transform="translate(452.392578 0)"/>
     </g>
    </g>
   </g>
   <g id="matplotlib.axis_6">
    <g id="ytick_12">
     <g id="line2d_44">
      <path d="M 768.314062 259.134509 
L 1054.896982 259.134509 
" clip-path="url(#pdbf1591d8d)" style="fill: none; stroke: #cccccc; stroke-linecap: round"/>
     </g>
     <g id="text_47">
      <!-- 5.0 -->
      <g style="fill: #262626" transform="translate(738.696609 263.940521) scale(0.1265 -0.1265)">
       <use xlink:href="#DejaVuSans-35"/>
       <use xlink:href="#DejaVuSans-2e" transform="translate(63.623047 0)"/>
       <use xlink:href="#DejaVuSans-30" transform="translate(95.410156 0)"/>
      </g>
     </g>
    </g>
    <g id="ytick_13">
     <g id="line2d_45">
      <path d="M 768.314062 213.528956 
L 1054.896982 213.528956 
" clip-path="url(#pdbf1591d8d)" style="fill: none; stroke: #cccccc; stroke-linecap: round"/>
     </g>
     <g id="text_48">
      <!-- 5.5 -->
      <g style="fill: #262626" transform="translate(738.696609 218.334968) scale(0.1265 -0.1265)">
       <use xlink:href="#DejaVuSans-35"/>
       <use xlink:href="#DejaVuSans-2e" transform="translate(63.623047 0)"/>
       <use xlink:href="#DejaVuSans-35" transform="translate(95.410156 0)"/>
      </g>
     </g>
    </g>
    <g id="ytick_14">
     <g id="line2d_46">
      <path d="M 768.314062 167.923403 
L 1054.896982 167.923403 
" clip-path="url(#pdbf1591d8d)" style="fill: none; stroke: #cccccc; stroke-linecap: round"/>
     </g>
     <g id="text_49">
      <!-- 6.0 -->
      <g style="fill: #262626" transform="translate(738.696609 172.729414) scale(0.1265 -0.1265)">
       <use xlink:href="#DejaVuSans-36"/>
       <use xlink:href="#DejaVuSans-2e" transform="translate(63.623047 0)"/>
       <use xlink:href="#DejaVuSans-30" transform="translate(95.410156 0)"/>
      </g>
     </g>
    </g>
    <g id="ytick_15">
     <g id="line2d_47">
      <path d="M 768.314062 122.31785 
L 1054.896982 122.31785 
" clip-path="url(#pdbf1591d8d)" style="fill: none; stroke: #cccccc; stroke-linecap: round"/>
     </g>
     <g id="text_50">
      <!-- 6.5 -->
      <g style="fill: #262626" transform="translate(738.696609 127.123861) scale(0.1265 -0.1265)">
       <use xlink:href="#DejaVuSans-36"/>
       <use xlink:href="#DejaVuSans-2e" transform="translate(63.623047 0)"/>
       <use xlink:href="#DejaVuSans-35" transform="translate(95.410156 0)"/>
      </g>
     </g>
    </g>
    <g id="ytick_16">
     <g id="line2d_48">
      <path d="M 768.314062 76.712296 
L 1054.896982 76.712296 
" clip-path="url(#pdbf1591d8d)" style="fill: none; stroke: #cccccc; stroke-linecap: round"/>
     </g>
     <g id="text_51">
      <!-- 7.0 -->
      <g style="fill: #262626" transform="translate(738.696609 81.518308) scale(0.1265 -0.1265)">
       <defs>
        <path id="DejaVuSans-37" d="M 525 4666 
L 3525 4666 
L 3525 4397 
L 1831 0 
L 1172 0 
L 2766 4134 
L 525 4134 
L 525 4666 
z
" transform="scale(0.015625)"/>
       </defs>
       <use xlink:href="#DejaVuSans-37"/>
       <use xlink:href="#DejaVuSans-2e" transform="translate(63.623047 0)"/>
       <use xlink:href="#DejaVuSans-30" transform="translate(95.410156 0)"/>
      </g>
     </g>
    </g>
    <g id="ytick_17">
     <g id="line2d_49">
      <path d="M 768.314062 31.106743 
L 1054.896982 31.106743 
" clip-path="url(#pdbf1591d8d)" style="fill: none; stroke: #cccccc; stroke-linecap: round"/>
     </g>
     <g id="text_52">
      <!-- 7.5 -->
      <g style="fill: #262626" transform="translate(738.696609 35.912755) scale(0.1265 -0.1265)">
       <use xlink:href="#DejaVuSans-37"/>
       <use xlink:href="#DejaVuSans-2e" transform="translate(63.623047 0)"/>
       <use xlink:href="#DejaVuSans-35" transform="translate(95.410156 0)"/>
      </g>
     </g>
    </g>
    <g id="text_53">
     <!-- TPS -->
     <g style="fill: #262626" transform="translate(731.826641 155.419266) rotate(-90) scale(0.138 -0.138)">
      <use xlink:href="#DejaVuSans-54"/>
      <use xlink:href="#DejaVuSans-50" transform="translate(61.083984 0)"/>
      <use xlink:href="#DejaVuSans-53" transform="translate(121.386719 0)"/>
     </g>
    </g>
   </g>
   <g id="FillBetweenPolyCollection_5">
    <defs>
     <path id="ma8f477d6ab" d="M 781.340559 -69.629729 
L 781.340559 -57.170095 
L 787.853807 -59.822363 
L 794.367055 -59.822363 
L 800.880303 -64.996544 
L 807.393552 -64.996544 
L 813.9068 -104.006342 
L 820.420048 -94.540051 
L 826.933296 -94.540051 
L 833.446544 -117.243735 
L 839.959792 -117.243735 
L 846.473041 -117.243735 
L 852.986289 -117.243735 
L 859.499537 -117.243735 
L 866.012785 -117.243735 
L 872.526033 -117.243735 
L 879.039282 -117.243735 
L 885.55253 -117.243735 
L 892.065778 -189.849241 
L 898.579026 -189.849241 
L 905.092274 -194.151629 
L 911.605522 -194.151629 
L 918.118771 -194.151629 
L 924.632019 -194.151629 
L 931.145267 -194.151629 
L 937.658515 -194.151629 
L 944.171763 -194.151629 
L 950.685011 -201.584452 
L 957.19826 -208.64513 
L 963.711508 -209.048094 
L 970.224756 -209.048094 
L 976.738004 -209.048094 
L 983.251252 -209.048094 
L 989.764501 -209.048094 
L 996.277749 -216.130795 
L 1002.790997 -216.130795 
L 1009.304245 -216.130795 
L 1015.817493 -216.130795 
L 1022.330741 -216.131325 
L 1028.84399 -216.131325 
L 1035.357238 -216.131325 
L 1041.870486 -216.131325 
L 1041.870486 -239.339771 
L 1041.870486 -239.339771 
L 1035.357238 -239.339771 
L 1028.84399 -239.339771 
L 1022.330741 -239.339771 
L 1015.817493 -239.339612 
L 1009.304245 -239.339612 
L 1002.790997 -239.339612 
L 996.277749 -239.339612 
L 989.764501 -238.450938 
L 983.251252 -238.450938 
L 976.738004 -238.450938 
L 970.224756 -238.450938 
L 963.711508 -238.450938 
L 957.19826 -238.445549 
L 950.685011 -216.114041 
L 944.171763 -213.952488 
L 937.658515 -213.952488 
L 931.145267 -213.952488 
L 924.632019 -213.952488 
L 918.118771 -213.952488 
L 911.605522 -213.952488 
L 905.092274 -213.952488 
L 898.579026 -214.067009 
L 892.065778 -214.067009 
L 885.55253 -191.712232 
L 879.039282 -191.712232 
L 872.526033 -191.712232 
L 866.012785 -191.712232 
L 859.499537 -191.712232 
L 852.986289 -191.712232 
L 846.473041 -191.712232 
L 839.959792 -191.712232 
L 833.446544 -191.712232 
L 826.933296 -181.849132 
L 820.420048 -181.849132 
L 813.9068 -126.474677 
L 807.393552 -119.740886 
L 800.880303 -119.740886 
L 794.367055 -75.35657 
L 787.853807 -75.35657 
L 781.340559 -69.629729 
z
" style="stroke: #1565c0; stroke-opacity: 0.15"/>
    </defs>
    <g clip-path="url(#pdbf1591d8d)">
     <use xlink:href="#ma8f477d6ab" x="0" y="308.548609" style="fill: #1565c0; fill-opacity: 0.15; stroke: #1565c0; stroke-opacity: 0.15"/>
    </g>
   </g>
   <g id="FillBetweenPolyCollection_6">
    <defs>
     <path id="ma4cffb4e10" d="M 781.340559 -82.377027 
L 781.340559 -64.424918 
L 787.853807 -68.304368 
L 794.367055 -166.395619 
L 800.880303 -166.395619 
L 807.393552 -166.395619 
L 813.9068 -166.395619 
L 820.420048 -166.395619 
L 826.933296 -166.395619 
L 833.446544 -166.395619 
L 839.959792 -166.395619 
L 846.473041 -166.395619 
L 852.986289 -184.010812 
L 859.499537 -191.94593 
L 866.012785 -204.201061 
L 872.526033 -204.201061 
L 879.039282 -204.201061 
L 885.55253 -204.201061 
L 892.065778 -204.201061 
L 898.579026 -204.201061 
L 905.092274 -204.201061 
L 911.605522 -204.201061 
L 918.118771 -204.201061 
L 924.632019 -204.201061 
L 931.145267 -204.201061 
L 937.658515 -206.051424 
L 944.171763 -206.051424 
L 950.685011 -206.051424 
L 957.19826 -206.051424 
L 963.711508 -205.294662 
L 970.224756 -205.105521 
L 976.738004 -205.105521 
L 983.251252 -203.310697 
L 989.764501 -203.5898 
L 996.277749 -209.745177 
L 1002.790997 -209.745177 
L 1009.304245 -209.745177 
L 1015.817493 -209.745177 
L 1022.330741 -209.745177 
L 1028.84399 -209.745177 
L 1035.357238 -209.745177 
L 1041.870486 -209.745177 
L 1041.870486 -274.599186 
L 1041.870486 -274.599186 
L 1035.357238 -274.599186 
L 1028.84399 -274.599186 
L 1022.330741 -274.599186 
L 1015.817493 -274.599186 
L 1009.304245 -274.599186 
L 1002.790997 -274.599186 
L 996.277749 -274.599186 
L 989.764501 -258.592334 
L 983.251252 -258.601228 
L 976.738004 -245.052506 
L 970.224756 -245.052506 
L 963.711508 -243.373403 
L 957.19826 -229.513842 
L 950.685011 -229.513842 
L 944.171763 -229.513842 
L 937.658515 -229.513842 
L 931.145267 -226.231595 
L 924.632019 -226.231595 
L 918.118771 -226.231595 
L 911.605522 -226.231595 
L 905.092274 -226.231595 
L 898.579026 -226.231595 
L 892.065778 -226.231595 
L 885.55253 -226.231595 
L 879.039282 -226.231595 
L 872.526033 -226.231595 
L 866.012785 -226.231595 
L 859.499537 -216.054024 
L 852.986289 -199.276324 
L 846.473041 -201.610234 
L 839.959792 -201.610234 
L 833.446544 -201.610234 
L 826.933296 -201.610234 
L 820.420048 -201.610234 
L 813.9068 -201.610234 
L 807.393552 -201.610234 
L 800.880303 -201.610234 
L 794.367055 -201.610234 
L 787.853807 -82.549896 
L 781.340559 -82.377027 
z
" style="stroke: #c62828; stroke-opacity: 0.15"/>
    </defs>
    <g clip-path="url(#pdbf1591d8d)">
     <use xlink:href="#ma4cffb4e10" x="0" y="308.548609" style="fill: #c62828; fill-opacity: 0.15; stroke: #c62828; stroke-opacity: 0.15"/>
    </g>
   </g>
   <g id="line2d_50">
    <path d="M 781.340559 245.148697 
L 787.853807 240.959143 
L 794.367055 240.959143 
L 800.880303 216.179894 
L 807.393552 216.179894 
L 813.9068 193.3081 
L 820.420048 170.354018 
L 826.933296 170.354018 
L 833.446544 154.070626 
L 839.959792 154.070626 
L 846.473041 154.070626 
L 852.986289 154.070626 
L 859.499537 154.070626 
L 866.012785 154.070626 
L 872.526033 154.070626 
L 879.039282 154.070626 
L 885.55253 154.070626 
L 892.065778 106.590485 
L 898.579026 106.590485 
L 905.092274 104.496551 
L 911.605522 104.496551 
L 918.118771 104.496551 
L 924.632019 104.496551 
L 931.145267 104.496551 
L 937.658515 104.496551 
L 944.171763 104.496551 
L 950.685011 99.699363 
L 957.19826 85.00327 
L 963.711508 84.799093 
L 970.224756 84.799093 
L 976.738004 84.799093 
L 983.251252 84.799093 
L 989.764501 84.799093 
L 996.277749 80.813406 
L 1002.790997 80.813406 
L 1009.304245 80.813406 
L 1015.817493 80.813406 
L 1022.330741 80.813061 
L 1028.84399 80.813061 
L 1035.357238 80.813061 
L 1041.870486 80.813061 
" clip-path="url(#pdbf1591d8d)" style="fill: none; stroke: #1565c0; stroke-width: 2; stroke-linecap: round"/>
   </g>
   <g id="line2d_51">
    <path d="M 781.340559 235.147637 
L 787.853807 233.121477 
L 794.367055 124.545683 
L 800.880303 124.545683 
L 807.393552 124.545683 
L 813.9068 124.545683 
L 820.420048 124.545683 
L 826.933296 124.545683 
L 833.446544 124.545683 
L 839.959792 124.545683 
L 846.473041 124.545683 
L 852.986289 116.905041 
L 859.499537 104.548633 
L 866.012785 93.332281 
L 872.526033 93.332281 
L 879.039282 93.332281 
L 885.55253 93.332281 
L 892.065778 93.332281 
L 898.579026 93.332281 
L 905.092274 93.332281 
L 911.605522 93.332281 
L 918.118771 93.332281 
L 924.632019 93.332281 
L 931.145267 93.332281 
L 937.658515 90.765976 
L 944.171763 90.765976 
L 950.685011 90.765976 
L 957.19826 90.765976 
L 963.711508 84.214577 
L 970.224756 83.469596 
L 976.738004 83.469596 
L 983.251252 77.592647 
L 989.764501 77.457542 
L 996.277749 66.376428 
L 1002.790997 66.376428 
L 1009.304245 66.376428 
L 1015.817493 66.376428 
L 1022.330741 66.376428 
L 1028.84399 66.376428 
L 1035.357238 66.376428 
L 1041.870486 66.376428 
" clip-path="url(#pdbf1591d8d)" style="fill: none; stroke: #c62828; stroke-width: 2; stroke-linecap: round"/>
   </g>
   <g id="patch_15">
    <path d="M 768.314062 262.249969 
L 768.314062 23.077969 
" style="fill: none; stroke: #cccccc; stroke-width: 1.25; stroke-linejoin: miter; stroke-linecap: square"/>
   </g>
   <g id="patch_16">
    <path d="M 1054.896982 262.249969 
L 1054.896982 23.077969 
" style="fill: none; stroke: #cccccc; stroke-width: 1.25; stroke-linejoin: miter; stroke-linecap: square"/>
   </g>
   <g id="patch_17">
    <path d="M 768.314062 262.249969 
L 1054.896982 262.249969 
" style="fill: none; stroke: #cccccc; stroke-width: 1.25; stroke-linejoin: miter; stroke-linecap: square"/>
   </g>
   <g id="patch_18">
    <path d="M 768.314062 23.077969 
L 1054.896982 23.077969 
" style="fill: none; stroke: #cccccc; stroke-width: 1.25; stroke-linejoin: miter; stroke-linecap: square"/>
   </g>
   <g id="text_54">
    <!-- OLAP — TPS -->
    <g style="fill: #262626" transform="translate(867.237944 17.077969) scale(0.13 -0.13)">
     <defs>
      <path id="DejaVuSans-Bold-41" d="M 3419 850 
L 1538 850 
L 1241 0 
L 31 0 
L 1759 4666 
L 3194 4666 
L 4922 0 
L 3713 0 
L 3419 850 
z
M 1838 1716 
L 3116 1716 
L 2478 3572 
L 1838 1716 
z
" transform="scale(0.015625)"/>
     </defs>
     <use xlink:href="#DejaVuSans-Bold-4f"/>
     <use xlink:href="#DejaVuSans-Bold-4c" transform="translate(85.009766 0)"/>
     <use xlink:href="#DejaVuSans-Bold-41" transform="translate(148.730469 0)"/>
     <use xlink:href="#DejaVuSans-Bold-50" transform="translate(226.123047 0)"/>
     <use xlink:href="#DejaVuSans-Bold-20" transform="translate(299.414062 0)"/>
     <use xlink:href="#DejaVuSans-Bold-2014" transform="translate(334.228516 0)"/>
     <use xlink:href="#DejaVuSans-Bold-20" transform="translate(434.228516 0)"/>
     <use xlink:href="#DejaVuSans-Bold-54" transform="translate(469.042969 0)"/>
     <use xlink:href="#DejaVuSans-Bold-50" transform="translate(537.255859 0)"/>
     <use xlink:href="#DejaVuSans-Bold-53" transform="translate(610.546875 0)"/>
    </g>
   </g>
   <g id="legend_3">
    <g id="patch_19">
     <path d="M 777.169062 70.333625 
L 853.859687 70.333625 
Q 856.389687 70.333625 856.389687 67.803625 
L 856.389687 31.932969 
Q 856.389687 29.402969 853.859687 29.402969 
L 777.169062 29.402969 
Q 774.639063 29.402969 774.639063 31.932969 
L 774.639063 67.803625 
Q 774.639063 70.333625 777.169062 70.333625 
z
" style="fill: #ffffff; opacity: 0.9; stroke: #cccccc; stroke-linejoin: miter"/>
    </g>
    <g id="line2d_52">
     <path d="M 779.699062 39.647492 
L 792.349062 39.647492 
L 804.999062 39.647492 
" style="fill: none; stroke: #1565c0; stroke-width: 2; stroke-linecap: round"/>
    </g>
    <g id="text_55">
     <!-- SMAC -->
     <g style="fill: #262626" transform="translate(815.119062 44.074992) scale(0.1265 -0.1265)">
      <use xlink:href="#DejaVuSans-53"/>
      <use xlink:href="#DejaVuSans-4d" transform="translate(63.476562 0)"/>
      <use xlink:href="#DejaVuSans-41" transform="translate(149.755859 0)"/>
      <use xlink:href="#DejaVuSans-43" transform="translate(216.414062 0)"/>
     </g>
    </g>
    <g id="line2d_53">
     <path d="M 779.699062 58.21532 
L 792.349062 58.21532 
L 804.999062 58.21532 
" style="fill: none; stroke: #c62828; stroke-width: 2; stroke-linecap: round"/>
    </g>
    <g id="text_56">
     <!-- TPE -->
     <g style="fill: #262626" transform="translate(815.119062 62.64282) scale(0.1265 -0.1265)">
      <use xlink:href="#DejaVuSans-54"/>
      <use xlink:href="#DejaVuSans-50" transform="translate(61.083984 0)"/>
      <use xlink:href="#DejaVuSans-45" transform="translate(121.386719 0)"/>
     </g>
    </g>
   </g>
  </g>
 </g>
 <defs>
  <clipPath id="p6edb44fef9">
   <rect x="66.250062" y="23.077969" width="286.58292" height="239.172"/>
  </clipPath>
  <clipPath id="p8d1bb81459">
   <rect x="417.282062" y="23.077969" width="286.58292" height="239.172"/>
  </clipPath>
  <clipPath id="pdbf1591d8d">
   <rect x="768.314062" y="23.077969" width="286.58292" height="239.172"/>
  </clipPath>
 </defs>
</svg>
