<svg xmlns="http://www.w3.org/2000/svg" xmlns:xlink="http://www.w3.org/1999/xlink" contentStyleType="text/css" data-diagram-type="DESCRIPTION" height="823px" preserveAspectRatio="none" style="width:729px;height:823px;background:#FFFFFF;" version="1.1" viewBox="0 0 729 823" width="729px" zoomAndPan="magnify"><defs/><g><!--cluster host--><g class="cluster" data-entity="host" data-source-line="8" data-uid="ent0002" id="cluster_host"><polygon fill="#FFFFFF" points="33.39,21,43.39,11,654.39,11,654.39,796.69,644.39,806.69,33.39,806.69,33.39,21" style="stroke:#000000;stroke-width:1;"/><line style="stroke:#000000;stroke-width:1;" x1="644.39" x2="654.39" y1="21" y2="11"/><line style="stroke:#000000;stroke-width:1;" x1="33.39" x2="644.39" y1="21" y2="21"/><line style="stroke:#000000;stroke-width:1;" x1="644.39" x2="644.39" y1="21" y2="806.69"/><text fill="#000000" font-family="Verdana" font-size="11" font-weight="bold" lengthAdjust="spacing" textLength="194.8418" x="242.4691" y="35.0591">&#1061;&#1086;&#1089;&#1090; Linux (6 &#1103;&#1076;&#1077;&#1088;, 16 &#1043;&#1041; &#1054;&#1047;&#1059;)</text></g><!--cluster Docker Compose--><g class="cluster" data-entity="Docker Compose" data-source-line="12" data-uid="ent0004" id="cluster_Docker Compose"><path d="M59.89,56 L173.5716,56 A3.75,3.75 0 0 1 176.0716,58.5 L183.0716,76.584 L483.89,76.584 A2.5,2.5 0 0 1 486.39,79.084 L486.39,780.19 A2.5,2.5 0 0 1 483.89,782.69 L59.89,782.69 A2.5,2.5 0 0 1 57.39,780.19 L57.39,58.5 A2.5,2.5 0 0 1 59.89,56" fill="#F5F5F5" style="stroke:#000000;stroke-width:1;"/><line style="stroke:#000000;stroke-width:1;" x1="57.39" x2="183.0716" y1="76.584" y2="76.584"/><text fill="#000000" font-family="Verdana" font-size="12" font-weight="bold" lengthAdjust="spacing" textLength="112.6816" x="61.39" y="70.0645">Docker Compose</text></g><!--cluster pg_ctr--><g class="cluster" data-entity="pg_ctr" data-source-line="14" data-uid="ent0005" id="cluster_pg_ctr"><polygon fill="#E8F5E9" points="137.39,633.54,147.39,623.54,462.39,623.54,462.39,748.69,452.39,758.69,137.39,758.69,137.39,633.54" style="stroke:#000000;stroke-width:1;"/><line style="stroke:#000000;stroke-width:1;" x1="452.39" x2="462.39" y1="633.54" y2="623.54"/><line style="stroke:#000000;stroke-width:1;" x1="137.39" x2="452.39" y1="633.54" y2="633.54"/><line style="stroke:#000000;stroke-width:1;" x1="452.39" x2="452.39" y1="633.54" y2="758.69"/><text fill="#000000" font-family="Verdana" font-size="11" font-weight="bold" lengthAdjust="spacing" textLength="53.77" x="269.005" y="647.5991">postgres</text><text fill="#000000" font-family="Verdana" font-size="11" font-weight="bold" lengthAdjust="spacing" textLength="69.9478" x="260.9161" y="660.9677">cpuset: 2-5</text><text fill="#000000" font-family="Verdana" font-size="11" font-weight="bold" lengthAdjust="spacing" textLength="101.4438" x="245.1681" y="674.3364">mem_limit: 4 &#1043;&#1041;</text><text fill="#000000" font-family="Verdana" font-size="11" font-weight="bold" lengthAdjust="spacing" textLength="35.707" x="278.0365" y="687.705">:5432</text></g><!--cluster bench_ctr--><g class="cluster" data-entity="bench_ctr" data-source-line="19" data-uid="ent0008" id="cluster_bench_ctr"><polygon fill="#FFF8E1" points="301.39,465.38,311.39,455.38,454.39,455.38,454.39,556.54,444.39,566.54,301.39,566.54,301.39,465.38" style="stroke:#000000;stroke-width:1;"/><line style="stroke:#000000;stroke-width:1;" x1="444.39" x2="454.39" y1="465.38" y2="455.38"/><line style="stroke:#000000;stroke-width:1;" x1="301.39" x2="444.39" y1="465.38" y2="465.38"/><line style="stroke:#000000;stroke-width:1;" x1="444.39" x2="444.39" y1="465.38" y2="566.54"/><text fill="#000000" font-family="Verdana" font-size="11" font-weight="bold" lengthAdjust="spacing" textLength="52.5239" x="347.628" y="479.4391">pgbench</text></g><!--cluster exp_ctr--><g class="cluster" data-entity="exp_ctr" data-source-line="23" data-uid="ent0010" id="cluster_exp_ctr"><polygon fill="#FCE4EC" points="81.39,460.38,91.39,450.38,269.39,450.38,269.39,548.54,259.39,558.54,81.39,558.54,81.39,460.38" style="stroke:#000000;stroke-width:1;"/><line style="stroke:#000000;stroke-width:1;" x1="259.39" x2="269.39" y1="460.38" y2="450.38"/><line style="stroke:#000000;stroke-width:1;" x1="81.39" x2="259.39" y1="460.38" y2="460.38"/><line style="stroke:#000000;stroke-width:1;" x1="259.39" x2="259.39" y1="460.38" y2="558.54"/><text fill="#000000" font-family="Verdana" font-size="11" font-weight="bold" lengthAdjust="spacing" textLength="112.2075" x="115.2862" y="474.4391">postgres-exporter</text><text fill="#000000" font-family="Verdana" font-size="11" font-weight="bold" lengthAdjust="spacing" textLength="35.707" x="153.5365" y="487.8077">:9187</text></g><!--cluster prom_ctr--><g class="cluster" data-entity="prom_ctr" data-source-line="27" data-uid="ent0012" id="cluster_prom_ctr"><polygon fill="#FCE4EC" points="89.39,276.23,99.39,266.23,260.39,266.23,260.39,380.38,250.39,390.38,89.39,390.38,89.39,276.23" style="stroke:#000000;stroke-width:1;"/><line style="stroke:#000000;stroke-width:1;" x1="250.39" x2="260.39" y1="276.23" y2="266.23"/><line style="stroke:#000000;stroke-width:1;" x1="89.39" x2="250.39" y1="276.23" y2="276.23"/><line style="stroke:#000000;stroke-width:1;" x1="250.39" x2="250.39" y1="276.23" y2="390.38"/><text fill="#000000" font-family="Verdana" font-size="11" font-weight="bold" lengthAdjust="spacing" textLength="74.1694" x="133.8053" y="290.2891">prometheus</text><text fill="#000000" font-family="Verdana" font-size="11" font-weight="bold" lengthAdjust="spacing" textLength="35.707" x="153.0365" y="303.6577">:9090</text></g><!--cluster grafana_ctr--><g class="cluster" data-entity="grafana_ctr" data-source-line="31" data-uid="ent0014" id="cluster_grafana_ctr"><polygon fill="#E3F2FD" points="81.39,107,91.39,97,204.39,97,204.39,195.15,194.39,205.15,81.39,205.15,81.39,107" style="stroke:#000000;stroke-width:1;"/><line style="stroke:#000000;stroke-width:1;" x1="194.39" x2="204.39" y1="107" y2="97"/><line style="stroke:#000000;stroke-width:1;" x1="81.39" x2="194.39" y1="107" y2="107"/><line style="stroke:#000000;stroke-width:1;" x1="194.39" x2="194.39" y1="107" y2="205.15"/><text fill="#000000" font-family="Verdana" font-size="11" font-weight="bold" lengthAdjust="spacing" textLength="47.6846" x="115.0477" y="121.0591">grafana</text><text fill="#000000" font-family="Verdana" font-size="11" font-weight="bold" lengthAdjust="spacing" textLength="35.707" x="121.0365" y="134.4277">:3000</text></g><!--entity optimizer--><g class="entity" data-entity="optimizer" data-source-line="10" data-uid="ent0003" id="entity_optimizer"><rect fill="#FFFFFF" height="54.3066" rx="2.5" ry="2.5" style="stroke:#000000;stroke-width:1;" width="136.0693" x="502.36" y="140.92"/><rect fill="#FFFFFF" height="10" style="stroke:#000000;stroke-width:1;" width="15" x="618.4293" y="145.92"/><rect fill="#FFFFFF" height="2" style="stroke:#000000;stroke-width:1;" width="4" x="616.4293" y="147.92"/><rect fill="#FFFFFF" height="2" style="stroke:#000000;stroke-width:1;" width="4" x="616.4293" y="151.92"/><text fill="#000000" font-family="Verdana" font-size="10" lengthAdjust="spacing" textLength="48.7354" x="517.36" y="170.9737">Optimizer</text><text fill="#000000" font-family="Verdana" font-size="10" lengthAdjust="spacing" textLength="96.0693" x="517.36" y="183.127">(Python, &#1103;&#1076;&#1088;&#1072; 0-1)</text></g><!--entity pg--><g class="entity" data-entity="pg" data-source-line="15" data-uid="ent0006" id="entity_pg"><rect fill="#FFFFFF" height="42.1533" rx="2.5" ry="2.5" style="stroke:#000000;stroke-width:1;" width="114.209" x="153.29" y="700.54"/><rect fill="#FFFFFF" height="10" style="stroke:#000000;stroke-width:1;" width="15" x="247.499" y="705.54"/><rect fill="#FFFFFF" height="2" style="stroke:#000000;stroke-width:1;" width="4" x="245.499" y="707.54"/><rect fill="#FFFFFF" height="2" style="stroke:#000000;stroke-width:1;" width="4" x="245.499" y="711.54"/><text fill="#000000" font-family="Verdana" font-size="10" lengthAdjust="spacing" textLength="74.209" x="168.29" y="730.5937">PostgreSQL 17</text></g><!--entity perfconf--><g class="entity" data-entity="perfconf" data-source-line="16" data-uid="ent0007" id="entity_perfconf"><path d="M302.58,705.61 L302.58,737.6246 A2.5,2.5 0 0 0 305.08,740.1246 L443.6943,740.1246 A2.5,2.5 0 0 0 446.1943,737.6246 L446.1943,713.11 L436.1943,703.11 L305.08,703.11 A2.5,2.5 0 0 0 302.58,705.61" fill="#FFFFFF" style="stroke:#000000;stroke-width:1;"/><path d="M436.1943,703.11 L436.1943,710.61 A2.5,2.5 0 0 0 438.6943,713.11 L446.1943,713.11" fill="#FFFFFF" style="stroke:#000000;stroke-width:1;"/><text fill="#000000" font-family="Verdana" font-size="14" lengthAdjust="spacing" textLength="123.6143" x="312.58" y="727.1852">performance.conf</text></g><!--entity bench--><g class="entity" data-entity="bench" data-source-line="20" data-uid="ent0009" id="entity_bench"><rect fill="#FFFFFF" height="42.1533" rx="2.5" ry="2.5" style="stroke:#000000;stroke-width:1;" width="82.5146" x="325.13" y="500.38"/><rect fill="#FFFFFF" height="10" style="stroke:#000000;stroke-width:1;" width="15" x="387.6446" y="505.38"/><rect fill="#FFFFFF" height="2" style="stroke:#000000;stroke-width:1;" width="4" x="385.6446" y="507.38"/><rect fill="#FFFFFF" height="2" style="stroke:#000000;stroke-width:1;" width="4" x="385.6446" y="511.38"/><text fill="#000000" font-family="Verdana" font-size="10" lengthAdjust="spacing" textLength="42.5146" x="340.13" y="530.4337">pgbench</text></g><!--entity exp--><g class="entity" data-entity="exp" data-source-line="24" data-uid="ent0011" id="entity_exp"><rect fill="#FFFFFF" height="42.1533" rx="2.5" ry="2.5" style="stroke:#000000;stroke-width:1;" width="82.6074" x="109.09" y="500.38"/><rect fill="#FFFFFF" height="10" style="stroke:#000000;stroke-width:1;" width="15" x="171.6974" y="505.38"/><rect fill="#FFFFFF" height="2" style="stroke:#000000;stroke-width:1;" width="4" x="169.6974" y="507.38"/><rect fill="#FFFFFF" height="2" style="stroke:#000000;stroke-width:1;" width="4" x="169.6974" y="511.38"/><text fill="#000000" font-family="Verdana" font-size="10" lengthAdjust="spacing" textLength="42.6074" x="124.09" y="530.4337">exporter</text></g><!--entity prom--><g class="entity" data-entity="prom" data-source-line="28" data-uid="ent0013" id="entity_prom"><rect fill="#FFFFFF" height="42.1533" rx="2.5" ry="2.5" style="stroke:#000000;stroke-width:1;" width="99.8145" x="113.48" y="324.23"/><rect fill="#FFFFFF" height="10" style="stroke:#000000;stroke-width:1;" width="15" x="193.2945" y="329.23"/><rect fill="#FFFFFF" height="2" style="stroke:#000000;stroke-width:1;" width="4" x="191.2945" y="331.23"/><rect fill="#FFFFFF" height="2" style="stroke:#000000;stroke-width:1;" width="4" x="191.2945" y="335.23"/><text fill="#000000" font-family="Verdana" font-size="10" lengthAdjust="spacing" textLength="59.8145" x="128.48" y="354.2837">Prometheus</text></g><!--entity grafana--><g class="entity" data-entity="grafana" data-source-line="32" data-uid="ent0015" id="entity_grafana"><rect fill="#FFFFFF" height="42.1533" rx="2.5" ry="2.5" style="stroke:#000000;stroke-width:1;" width="79.8828" x="97.45" y="147"/><rect fill="#FFFFFF" height="10" style="stroke:#000000;stroke-width:1;" width="15" x="157.3328" y="152"/><rect fill="#FFFFFF" height="2" style="stroke:#000000;stroke-width:1;" width="4" x="155.3328" y="154"/><rect fill="#FFFFFF" height="2" style="stroke:#000000;stroke-width:1;" width="4" x="155.3328" y="158"/><text fill="#000000" font-family="Verdana" font-size="10" lengthAdjust="spacing" textLength="39.8828" x="112.45" y="177.0537">Grafana</text></g><!--link optimizer to perfconf--><g class="link" data-entity-1="optimizer" data-entity-2="perfconf" data-source-line="37" data-uid="lnk16" id="link_optimizer_perfconf"><path d="M578.23,195.7 C590.06,240.28 608.93,332.42 587.39,406.38 C549.89,535.15 441.6479,653.5027 397.0879,698.3727" fill="none" id="optimizer-to-perfconf" style="stroke:#000000;stroke-width:1;"/><polygon fill="#000000" points="392.86,702.63,402.0401,699.0626,396.3833,699.0822,396.3636,693.4254,392.86,702.63" style="stroke:#000000;stroke-width:1;"/><text fill="#000000" font-family="Verdana" font-size="13" lengthAdjust="spacing" textLength="136.646" x="584.94" y="428.4498">bind mount (&#1079;&#1072;&#1087;&#1080;&#1089;&#1100;)</text></g><!--link optimizer to prom_ctr--><g class="link" data-entity-1="optimizer" data-entity-2="prom_ctr" data-source-line="38" data-uid="lnk17" id="link_optimizer_prom_ctr"><path d="M502.01,171.01 C417.03,175.01 279.27,187.34 247.39,225.23 C239.47,234.645 235.3938,246.1163 233.8023,258.1792 C233.6034,259.6871 233.4433,261.2042 233.3194,262.7277 C233.2574,263.4895 233.2045,264.2528 233.1603,265.0174 C233.1382,265.3997 233.3968,259.7888 233.379,260.1716" fill="none" id="optimizer-to-prom_ctr" style="stroke:#000000;stroke-width:1;"/><polygon fill="#000000" points="233.1005,266.1652,237.5139,257.3605,233.3326,261.1705,229.5225,256.9892,233.1005,266.1652" style="stroke:#000000;stroke-width:1;"/><text fill="#000000" font-family="Verdana" font-size="13" lengthAdjust="spacing" textLength="191.312" x="248.39" y="239.2998">HTTP :9090 (&#1079;&#1072;&#1087;&#1088;&#1086;&#1089; &#1084;&#1077;&#1090;&#1088;&#1080;&#1082;)</text></g><!--link optimizer to bench_ctr--><g class="link" data-entity-1="optimizer" data-entity-2="bench_ctr" data-source-line="39" data-uid="lnk18" id="link_optimizer_bench_ctr"><path d="M507.99,195.58 C485.4,208.56 462.29,226.58 449.39,250.23 C421.98,300.49 419.56,364.2175 424.5363,417.1625 C425.7803,430.3988 426.5125,437.0407 428.4062,448.5502" fill="none" id="optimizer-to-bench_ctr" style="stroke:#000000;stroke-width:1;"/><polygon fill="#000000" points="429.3803,454.4706,431.8661,444.9406,428.5686,449.537,423.9723,446.2394,429.3803,454.4706" style="stroke:#000000;stroke-width:1;"/><text fill="#000000" font-family="Verdana" font-size="13" lengthAdjust="spacing" textLength="132.7041" x="450.39" y="350.8798">docker compose run</text></g><!--link bench to pg--><g class="link" data-entity-1="bench" data-entity-2="pg" data-source-line="41" data-uid="lnk19" id="link_bench_pg"><path d="M347.79,542.68 C330.99,561.22 305.82,589.64 285.39,615.54 C262.9,644.04 242.217,673.5906 227.577,695.0906" fill="none" id="bench-to-pg" style="stroke:#000000;stroke-width:1;"/><polygon fill="#000000" points="224.2,700.05,232.5718,694.8622,227.0142,695.9172,225.9592,690.3595,224.2,700.05" style="stroke:#000000;stroke-width:1;"/><text fill="#000000" font-family="Verdana" font-size="13" lengthAdjust="spacing" textLength="145.1646" x="305.65" y="604.6098">TCP :5432 (&#1085;&#1072;&#1075;&#1088;&#1091;&#1079;&#1082;&#1072;)</text></g><!--link exp to pg--><g class="link" data-entity-1="exp" data-entity-2="pg" data-source-line="42" data-uid="lnk20" id="link_exp_pg"><path d="M135.23,542.73 C124.27,559.96 112.64,585.36 120.39,607.54 C133.47,644.96 160.3191,675.139 182.3091,695.919" fill="none" id="exp-to-pg" style="stroke:#000000;stroke-width:1;"/><polygon fill="#000000" points="186.67,700.04,182.8759,690.9513,183.0359,696.6059,177.3813,696.7658,186.67,700.04" style="stroke:#000000;stroke-width:1;"/><text fill="#000000" font-family="Verdana" font-size="13" lengthAdjust="spacing" textLength="158.0249" x="121.39" y="604.6098">TCP :5432 (&#1089;&#1090;&#1072;&#1090;&#1080;&#1089;&#1090;&#1080;&#1082;&#1072;)</text></g><!--link prom to exp--><g class="link" data-entity-1="prom" data-entity-2="exp" data-source-line="43" data-uid="lnk21" id="link_prom_exp"><path d="M113.08,358.94 C84.64,368.95 51.45,386.08 34.39,414.38 C11,453.18 61.2261,483.848 103.2961,502.318" fill="none" id="prom-to-exp" style="stroke:#000000;stroke-width:1;"/><polygon fill="#000000" points="108.79,504.73,102.1572,497.4495,104.2118,502.72,98.9412,504.7746,108.79,504.73" style="stroke:#000000;stroke-width:1;"/><text fill="#000000" font-family="Verdana" font-size="13" lengthAdjust="spacing" textLength="130.6982" x="35.39" y="428.4498">scrape :9187 (10 &#1089;)</text></g><!--link grafana to prom--><g class="link" data-entity-1="grafana" data-entity-2="prom" data-source-line="44" data-uid="lnk22" id="link_grafana_prom"><path d="M97.09,178.15 C59.67,188.79 11.99,209.28 28.39,242.23 C46.98,279.59 81.1943,304.0708 112.6943,320.9908" fill="none" id="grafana-to-prom" style="stroke:#000000;stroke-width:1;"/><polygon fill="#000000" points="117.98,323.83,111.9442,316.0474,113.5752,321.464,108.1586,323.095,117.98,323.83" style="stroke:#000000;stroke-width:1;"/><text fill="#000000" font-family="Verdana" font-size="13" lengthAdjust="spacing" textLength="94.9229" x="29.39" y="239.2998">PromQL :9090</text></g><!--SRC=[XLDFYzD05B_dKpoxbnQsahJRjSt1IqKzBDfbYwV2CaqcQMWp4oOJN1MXkru54G_Ul8ZtWefbySzNc7mZtyoaRTmjs1B8pFlzUI_pcpjoHbCAsO8apCdd2Sk882bCIJ2F1IzOEEGBBk3vB96qLWzfH8g5VCYPV4AG_uoAa31IGp0UKbq-IrvIyBnQ9KDj4jUAdLenu6d66MLoLtOTHuj1GtrHlylByWfE4bPSGFCOodVgc_fUBW_1EmRrGRq7zKbzL9zR3I0vp7WkuPNZm4uL6aypcQIeAoQiENeXPvmT6fbogLRWjZrBvHkKPbSDG-C13-PKm52hvRG11r5F_wq7WEqIIp8MD9-m82joAdtej7iJbjBqV86Qk3uohKwOtplgTenT5fy7Ki01xKSzEa0zCBzQsoEhUdPw0jwzYbEXecIXRQc8k4W92-ZTWBF8Od1JBmpozJzTnbFAWfb1cJVRG1H5VUhjQ-0MOOzcDNcRNcHSIFs9_O7Nj-tYNcKHq2CQxBFOq3RuFGw2fnGJM-HQsXsuTahS_P_sQClSKcxBnu94c6BKxhgkrQwsgkFfHfqet2V_oCBgb4fUFsYo3HIqs_Utvm8-J1CMGeetJK9J_L0hzKUjCUHlMpSfco5zU3mUZy2Clw5WUF5cWFg9b-4A5sjrVPE_EsGVGflZmEOOHC4SnzIjKuoGyH0jT3xHuXTQV2sNvHiqkrQhbeDdinUfBwTQuRCsRskBrfqRkARva0U2P1HCCg3fkL1UjfpgcsqdHPm-CKoxcTFv2m00]--></g></svg>