<?xml version="1.0" encoding="utf-8" standalone="no"?>
<!DOCTYPE svg PUBLIC "-//W3C//DTD SVG 1.1//EN"
  "http://www.w3.org/Graphics/SVG/1.1/DTD/svg11.dtd">
<svg xmlns:xlink="http://www.w3.org/1999/xlink" width="1064.542062pt" height="344.869969pt" viewBox="0 0 1064.542062 344.869969" xmlns="http://www.w3.org/2000/svg" version="1.1">
 <metadata>
  <rdf:RDF xmlns:dc="http://purl.org/dc/elements/1.1/" xmlns:cc="http://creativecommons.org/ns#" xmlns:rdf="http://www.w3.org/1999/02/22-rdf-syntax-ns#">
   <cc:Work>
    <dc:type rdf:resource="http://purl.org/dc/dcmitype/StillImage"/>
    <dc:date>2026-05-15T21:52:00.620460</dc:date>
    <dc:format>image/svg+xml</dc:format>
    <dc:creator>
     <cc:Agent>
      <dc:title>Matplotlib v3.10.9, https://matplotlib.org/</dc:title>
     </cc:Agent>
    </dc:creator>
   </cc:Work>
  </rdf:RDF>
 </metadata>
 <defs>
  <style type="text/css">*{stroke-linejoin: round; stroke-linecap: butt}</style>
 </defs>
 <g id="figure_1">
  <g id="patch_1">
   <path d="M 0 344.869969 
L 1064.542062 344.869969 
L 1064.542062 0 
L 0 0 
z
" style="fill: #ffffff"/>
  </g>
  <g id="axes_1">
   <g id="patch_2">
    <path d="M 66.250062 337.669969 
L 355.278062 337.669969 
L 355.278062 23.077969 
L 66.250062 23.077969 
z
" style="fill: #ffffff"/>
   </g>
   <g id="matplotlib.axis_1"/>
   <g id="matplotlib.axis_2">
    <g id="ytick_1">
     <g id="line2d_1">
      <path d="M 66.250062 307.51861 
L 355.278062 307.51861 
" clip-path="url(#p93639fe434)" style="fill: none; stroke: #cccccc; stroke-linecap: round"/>
     </g>
     <g id="text_1">
      <!-- 2200 -->
      <g style="fill: #262626" transform="translate(24.555813 312.324622) scale(0.1265 -0.1265)">
       <defs>
        <path id="DejaVuSans-32" d="M 1228 531 
L 3431 531 
L 3431 0 
L 469 0 
L 469 531 
Q 828 903 1448 1529 
Q 2069 2156 2228 2338 
Q 2531 2678 2651 2914 
Q 2772 3150 2772 3378 
Q 2772 3750 2511 3984 
Q 2250 4219 1831 4219 
Q 1534 4219 1204 4116 
Q 875 4013 500 3803 
L 500 4441 
Q 881 4594 1212 4672 
Q 1544 4750 1819 4750 
Q 2544 4750 2975 4387 
Q 3406 4025 3406 3419 
Q 3406 3131 3298 2873 
Q 3191 2616 2906 2266 
Q 2828 2175 2409 1742 
Q 1991 1309 1228 531 
z
" transform="scale(0.015625)"/>
        <path id="DejaVuSans-30" d="M 2034 4250 
Q 1547 4250 1301 3770 
Q 1056 3291 1056 2328 
Q 1056 1369 1301 889 
Q 1547 409 2034 409 
Q 2525 409 2770 889 
Q 3016 1369 3016 2328 
Q 3016 3291 2770 3770 
Q 2525 4250 2034 4250 
z
M 2034 4750 
Q 2819 4750 3233 4129 
Q 3647 3509 3647 2328 
Q 3647 1150 3233 529 
Q 2819 -91 2034 -91 
Q 1250 -91 836 529 
Q 422 1150 422 2328 
Q 422 3509 836 4129 
Q 1250 4750 2034 4750 
z
" transform="scale(0.015625)"/>
       </defs>
       <use xlink:href="#DejaVuSans-32"/>
       <use xlink:href="#DejaVuSans-32" transform="translate(63.623047 0)"/>
       <use xlink:href="#DejaVuSans-30" transform="translate(127.246094 0)"/>
       <use xlink:href="#DejaVuSans-30" transform="translate(190.869141 0)"/>
      </g>
     </g>
    </g>
    <g id="ytick_2">
     <g id="line2d_2">
      <path d="M 66.250062 268.053399 
L 355.278062 268.053399 
" clip-path="url(#p93639fe434)" style="fill: none; stroke: #cccccc; stroke-linecap: round"/>
     </g>
     <g id="text_2">
      <!-- 2400 -->
      <g style="fill: #262626" transform="translate(24.555813 272.859411) scale(0.1265 -0.1265)">
       <defs>
        <path id="DejaVuSans-34" d="M 2419 4116 
L 825 1625 
L 2419 1625 
L 2419 4116 
z
M 2253 4666 
L 3047 4666 
L 3047 1625 
L 3713 1625 
L 3713 1100 
L 3047 1100 
L 3047 0 
L 2419 0 
L 2419 1100 
L 313 1100 
L 313 1709 
L 2253 4666 
z
" transform="scale(0.015625)"/>
       </defs>
       <use xlink:href="#DejaVuSans-32"/>
       <use xlink:href="#DejaVuSans-34" transform="translate(63.623047 0)"/>
       <use xlink:href="#DejaVuSans-30" transform="translate(127.246094 0)"/>
       <use xlink:href="#DejaVuSans-30" transform="translate(190.869141 0)"/>
      </g>
     </g>
    </g>
    <g id="ytick_3">
     <g id="line2d_3">
      <path d="M 66.250062 228.588188 
L 355.278062 228.588188 
" clip-path="url(#p93639fe434)" style="fill: none; stroke: #cccccc; stroke-linecap: round"/>
     </g>
     <g id="text_3">
      <!-- 2600 -->
      <g style="fill: #262626" transform="translate(24.555813 233.3942) scale(0.1265 -0.1265)">
       <defs>
        <path id="DejaVuSans-36" d="M 2113 2584 
Q 1688 2584 1439 2293 
Q 1191 2003 1191 1497 
Q 1191 994 1439 701 
Q 1688 409 2113 409 
Q 2538 409 2786 701 
Q 3034 994 3034 1497 
Q 3034 2003 2786 2293 
Q 2538 2584 2113 2584 
z
M 3366 4563 
L 3366 3988 
Q 3128 4100 2886 4159 
Q 2644 4219 2406 4219 
Q 1781 4219 1451 3797 
Q 1122 3375 1075 2522 
Q 1259 2794 1537 2939 
Q 1816 3084 2150 3084 
Q 2853 3084 3261 2657 
Q 3669 2231 3669 1497 
Q 3669 778 3244 343 
Q 2819 -91 2113 -91 
Q 1303 -91 875 529 
Q 447 1150 447 2328 
Q 447 3434 972 4092 
Q 1497 4750 2381 4750 
Q 2619 4750 2861 4703 
Q 3103 4656 3366 4563 
z
" transform="scale(0.015625)"/>
       </defs>
       <use xlink:href="#DejaVuSans-32"/>
       <use xlink:href="#DejaVuSans-36" transform="translate(63.623047 0)"/>
       <use xlink:href="#DejaVuSans-30" transform="translate(127.246094 0)"/>
       <use xlink:href="#DejaVuSans-30" transform="translate(190.869141 0)"/>
      </g>
     </g>
    </g>
    <g id="ytick_4">
     <g id="line2d_4">
      <path d="M 66.250062 189.122977 
L 355.278062 189.122977 
" clip-path="url(#p93639fe434)" style="fill: none; stroke: #cccccc; stroke-linecap: round"/>
     </g>
     <g id="text_4">
      <!-- 2800 -->
      <g style="fill: #262626" transform="translate(24.555813 193.928989) scale(0.1265 -0.1265)">
       <defs>
        <path id="DejaVuSans-38" d="M 2034 2216 
Q 1584 2216 1326 1975 
Q 1069 1734 1069 1313 
Q 1069 891 1326 650 
Q 1584 409 2034 409 
Q 2484 409 2743 651 
Q 3003 894 3003 1313 
Q 3003 1734 2745 1975 
Q 2488 2216 2034 2216 
z
M 1403 2484 
Q 997 2584 770 2862 
Q 544 3141 544 3541 
Q 544 4100 942 4425 
Q 1341 4750 2034 4750 
Q 2731 4750 3128 4425 
Q 3525 4100 3525 3541 
Q 3525 3141 3298 2862 
Q 3072 2584 2669 2484 
Q 3125 2378 3379 2068 
Q 3634 1759 3634 1313 
Q 3634 634 3220 271 
Q 2806 -91 2034 -91 
Q 1263 -91 848 271 
Q 434 634 434 1313 
Q 434 1759 690 2068 
Q 947 2378 1403 2484 
z
M 1172 3481 
Q 1172 3119 1398 2916 
Q 1625 2713 2034 2713 
Q 2441 2713 2670 2916 
Q 2900 3119 2900 3481 
Q 2900 3844 2670 4047 
Q 2441 4250 2034 4250 
Q 1625 4250 1398 4047 
Q 1172 3844 1172 3481 
z
" transform="scale(0.015625)"/>
       </defs>
       <use xlink:href="#DejaVuSans-32"/>
       <use xlink:href="#DejaVuSans-38" transform="translate(63.623047 0)"/>
       <use xlink:href="#DejaVuSans-30" transform="translate(127.246094 0)"/>
       <use xlink:href="#DejaVuSans-30" transform="translate(190.869141 0)"/>
      </g>
     </g>
    </g>
    <g id="ytick_5">
     <g id="line2d_5">
      <path d="M 66.250062 149.657766 
L 355.278062 149.657766 
" clip-path="url(#p93639fe434)" style="fill: none; stroke: #cccccc; stroke-linecap: round"/>
     </g>
     <g id="text_5">
      <!-- 3000 -->
      <g style="fill: #262626" transform="translate(24.555813 154.463777) scale(0.1265 -0.1265)">
       <defs>
        <path id="DejaVuSans-33" d="M 2597 2516 
Q 3050 2419 3304 2112 
Q 3559 1806 3559 1356 
Q 3559 666 3084 287 
Q 2609 -91 1734 -91 
Q 1441 -91 1130 -33 
Q 819 25 488 141 
L 488 750 
Q 750 597 1062 519 
Q 1375 441 1716 441 
Q 2309 441 2620 675 
Q 2931 909 2931 1356 
Q 2931 1769 2642 2001 
Q 2353 2234 1838 2234 
L 1294 2234 
L 1294 2753 
L 1863 2753 
Q 2328 2753 2575 2939 
Q 2822 3125 2822 3475 
Q 2822 3834 2567 4026 
Q 2313 4219 1838 4219 
Q 1578 4219 1281 4162 
Q 984 4106 628 3988 
L 628 4550 
Q 988 4650 1302 4700 
Q 1616 4750 1894 4750 
Q 2613 4750 3031 4423 
Q 3450 4097 3450 3541 
Q 3450 3153 3228 2886 
Q 3006 2619 2597 2516 
z
" transform="scale(0.015625)"/>
       </defs>
       <use xlink:href="#DejaVuSans-33"/>
       <use xlink:href="#DejaVuSans-30" transform="translate(63.623047 0)"/>
       <use xlink:href="#DejaVuSans-30" transform="translate(127.246094 0)"/>
       <use xlink:href="#DejaVuSans-30" transform="translate(190.869141 0)"/>
      </g>
     </g>
    </g>
    <g id="ytick_6">
     <g id="line2d_6">
      <path d="M 66.250062 110.192554 
L 355.278062 110.192554 
" clip-path="url(#p93639fe434)" style="fill: none; stroke: #cccccc; stroke-linecap: round"/>
     </g>
     <g id="text_6">
      <!-- 3200 -->
      <g style="fill: #262626" transform="translate(24.555813 114.998566) scale(0.1265 -0.1265)">
       <use xlink:href="#DejaVuSans-33"/>
       <use xlink:href="#DejaVuSans-32" transform="translate(63.623047 0)"/>
       <use xlink:href="#DejaVuSans-30" transform="translate(127.246094 0)"/>
       <use xlink:href="#DejaVuSans-30" transform="translate(190.869141 0)"/>
      </g>
     </g>
    </g>
    <g id="ytick_7">
     <g id="line2d_7">
      <path d="M 66.250062 70.727343 
L 355.278062 70.727343 
" clip-path="url(#p93639fe434)" style="fill: none; stroke: #cccccc; stroke-linecap: round"/>
     </g>
     <g id="text_7">
      <!-- 3400 -->
      <g style="fill: #262626" transform="translate(24.555813 75.533355) scale(0.1265 -0.1265)">
       <use xlink:href="#DejaVuSans-33"/>
       <use xlink:href="#DejaVuSans-34" transform="translate(63.623047 0)"/>
       <use xlink:href="#DejaVuSans-30" transform="translate(127.246094 0)"/>
       <use xlink:href="#DejaVuSans-30" transform="translate(190.869141 0)"/>
      </g>
     </g>
    </g>
    <g id="ytick_8">
     <g id="line2d_8">
      <path d="M 66.250062 31.262132 
L 355.278062 31.262132 
" clip-path="url(#p93639fe434)" style="fill: none; stroke: #cccccc; stroke-linecap: round"/>
     </g>
     <g id="text_8">
      <!-- 3600 -->
      <g style="fill: #262626" transform="translate(24.555813 36.068144) scale(0.1265 -0.1265)">
       <use xlink:href="#DejaVuSans-33"/>
       <use xlink:href="#DejaVuSans-36" transform="translate(63.623047 0)"/>
       <use xlink:href="#DejaVuSans-30" transform="translate(127.246094 0)"/>
       <use xlink:href="#DejaVuSans-30" transform="translate(190.869141 0)"/>
      </g>
     </g>
    </g>
    <g id="text_9">
     <!-- Лучший TPS -->
     <g style="fill: #262626" transform="translate(17.685844 223.952859) rotate(-90) scale(0.138 -0.138)">
      <defs>
       <path id="DejaVuSans-41b" d="M 263 0 
L 263 531 
Q 941 678 1134 1191 
Q 1406 1997 1406 3872 
L 1406 4666 
L 4181 4666 
L 4181 0 
L 3550 0 
L 3550 4134 
L 2034 4134 
L 2034 3559 
Q 2034 1791 1716 966 
Q 1409 175 263 0 
z
" transform="scale(0.015625)"/>
       <path id="DejaVuSans-443" d="M 2059 -325 
Q 1816 -950 1584 -1140 
Q 1353 -1331 966 -1331 
L 506 -1331 
L 506 -850 
L 844 -850 
Q 1081 -850 1212 -737 
Q 1344 -625 1503 -206 
L 1606 56 
L 191 3500 
L 800 3500 
L 1894 763 
L 2988 3500 
L 3597 3500 
L 2059 -325 
z
" transform="scale(0.015625)"/>
       <path id="DejaVuSans-447" d="M 2625 0 
L 2625 1472 
L 1553 1472 
Q 1075 1472 756 1769 
Q 469 2038 469 2613 
L 469 3500 
L 1044 3500 
L 1044 2666 
Q 1044 2300 1206 2116 
Q 1372 1931 1697 1931 
L 2625 1931 
L 2625 3500 
L 3200 3500 
L 3200 0 
L 2625 0 
z
" transform="scale(0.015625)"/>
       <path id="DejaVuSans-448" d="M 3216 459 
L 4697 459 
L 4697 3500 
L 5275 3500 
L 5275 0 
L 581 0 
L 581 3500 
L 1159 3500 
L 1159 459 
L 2638 459 
L 2638 3500 
L 3216 3500 
L 3216 459 
z
" transform="scale(0.015625)"/>
       <path id="DejaVuSans-438" d="M 3578 3500 
L 3578 0 
L 3006 0 
L 3006 2809 
L 1319 0 
L 581 0 
L 581 3500 
L 1153 3500 
L 1153 697 
L 2838 3500 
L 3578 3500 
z
" transform="scale(0.015625)"/>
       <path id="DejaVuSans-439" d="M 3578 3500 
L 3578 0 
L 3006 0 
L 3006 2809 
L 1319 0 
L 581 0 
L 581 3500 
L 1153 3500 
L 1153 697 
L 2838 3500 
L 3578 3500 
z
M 1102 4833 
L 1471 4833 
Q 1505 4599 1656 4481 
Q 1808 4364 2080 4364 
Q 2349 4364 2499 4480 
Q 2649 4596 2689 4833 
L 3058 4833 
Q 3027 4386 2780 4161 
Q 2533 3936 2080 3936 
Q 1627 3936 1380 4161 
Q 1133 4386 1102 4833 
z
" transform="scale(0.015625)"/>
       <path id="DejaVuSans-20" transform="scale(0.015625)"/>
       <path id="DejaVuSans-54" d="M -19 4666 
L 3928 4666 
L 3928 4134 
L 2272 4134 
L 2272 0 
L 1638 0 
L 1638 4134 
L -19 4134 
L -19 4666 
z
" transform="scale(0.015625)"/>
       <path id="DejaVuSans-50" d="M 1259 4147 
L 1259 2394 
L 2053 2394 
Q 2494 2394 2734 2622 
Q 2975 2850 2975 3272 
Q 2975 3691 2734 3919 
Q 2494 4147 2053 4147 
L 1259 4147 
z
M 628 4666 
L 2053 4666 
Q 2838 4666 3239 4311 
Q 3641 3956 3641 3272 
Q 3641 2581 3239 2228 
Q 2838 1875 2053 1875 
L 1259 1875 
L 1259 0 
L 628 0 
L 628 4666 
z
" transform="scale(0.015625)"/>
       <path id="DejaVuSans-53" d="M 3425 4513 
L 3425 3897 
Q 3066 4069 2747 4153 
Q 2428 4238 2131 4238 
Q 1616 4238 1336 4038 
Q 1056 3838 1056 3469 
Q 1056 3159 1242 3001 
Q 1428 2844 1947 2747 
L 2328 2669 
Q 3034 2534 3370 2195 
Q 3706 1856 3706 1288 
Q 3706 609 3251 259 
Q 2797 -91 1919 -91 
Q 1588 -91 1214 -16 
Q 841 59 441 206 
L 441 856 
Q 825 641 1194 531 
Q 1563 422 1919 422 
Q 2459 422 2753 634 
Q 3047 847 3047 1241 
Q 3047 1584 2836 1778 
Q 2625 1972 2144 2069 
L 1759 2144 
Q 1053 2284 737 2584 
Q 422 2884 422 3419 
Q 422 4038 858 4394 
Q 1294 4750 2059 4750 
Q 2388 4750 2728 4690 
Q 3069 4631 3425 4513 
z
" transform="scale(0.015625)"/>
      </defs>
      <use xlink:href="#DejaVuSans-41b"/>
      <use xlink:href="#DejaVuSans-443" transform="translate(75.195312 0)"/>
      <use xlink:href="#DejaVuSans-447" transform="translate(134.375 0)"/>
      <use xlink:href="#DejaVuSans-448" transform="translate(193.457031 0)"/>
      <use xlink:href="#DejaVuSans-438" transform="translate(284.960938 0)"/>
      <use xlink:href="#DejaVuSans-439" transform="translate(349.951172 0)"/>
      <use xlink:href="#DejaVuSans-20" transform="translate(414.941406 0)"/>
      <use xlink:href="#DejaVuSans-54" transform="translate(446.728516 0)"/>
      <use xlink:href="#DejaVuSans-50" transform="translate(507.8125 0)"/>
      <use xlink:href="#DejaVuSans-53" transform="translate(568.115234 0)"/>
     </g>
    </g>
   </g>
   <g id="patch_3">
    <path d="M 79.387699 741.635933 
L 160.931649 741.635933 
L 160.931649 187.533042 
L 79.387699 187.533042 
z
" clip-path="url(#p93639fe434)" style="fill: #78909c; stroke: #ffffff; stroke-linejoin: miter"/>
   </g>
   <g id="patch_4">
    <path d="M 169.992088 741.635933 
L 251.536037 741.635933 
L 251.536037 108.284486 
L 169.992088 108.284486 
z
" clip-path="url(#p93639fe434)" style="fill: #1565c0; stroke: #ffffff; stroke-linejoin: miter"/>
   </g>
   <g id="patch_5">
    <path d="M 260.596476 741.635933 
L 342.140426 741.635933 
L 342.140426 126.928714 
L 260.596476 126.928714 
z
" clip-path="url(#p93639fe434)" style="fill: #c62828; stroke: #ffffff; stroke-linejoin: miter"/>
   </g>
   <g id="LineCollection_1">
    <path d="M 120.159674 267.760635 
L 120.159674 107.305449 
" clip-path="url(#p93639fe434)" style="fill: none; stroke: #000000; stroke-width: 1.5"/>
   </g>
   <g id="line2d_9">
    <defs>
     <path id="m04643586a2" d="M 5 0 
L -5 -0 
" style="stroke: #000000"/>
    </defs>
    <g clip-path="url(#p93639fe434)">
     <use xlink:href="#m04643586a2" x="120.159674" y="267.760635" style="fill: #4c72b0; stroke: #000000"/>
    </g>
   </g>
   <g id="line2d_10">
    <g clip-path="url(#p93639fe434)">
     <use xlink:href="#m04643586a2" x="120.159674" y="107.305449" style="fill: #4c72b0; stroke: #000000"/>
    </g>
   </g>
   <g id="LineCollection_2">
    <path d="M 210.764062 112.57457 
L 210.764062 103.994402 
" clip-path="url(#p93639fe434)" style="fill: none; stroke: #000000; stroke-width: 1.5"/>
   </g>
   <g id="line2d_11">
    <g clip-path="url(#p93639fe434)">
     <use xlink:href="#m04643586a2" x="210.764062" y="112.57457" style="fill: #4c72b0; stroke: #000000"/>
    </g>
   </g>
   <g id="line2d_12">
    <g clip-path="url(#p93639fe434)">
     <use xlink:href="#m04643586a2" x="210.764062" y="103.994402" style="fill: #4c72b0; stroke: #000000"/>
    </g>
   </g>
   <g id="LineCollection_3">
    <path d="M 301.368451 160.870125 
L 301.368451 92.987302 
" clip-path="url(#p93639fe434)" style="fill: none; stroke: #000000; stroke-width: 1.5"/>
   </g>
   <g id="line2d_13">
    <g clip-path="url(#p93639fe434)">
     <use xlink:href="#m04643586a2" x="301.368451" y="160.870125" style="fill: #4c72b0; stroke: #000000"/>
    </g>
   </g>
   <g id="line2d_14">
    <g clip-path="url(#p93639fe434)">
     <use xlink:href="#m04643586a2" x="301.368451" y="92.987302" style="fill: #4c72b0; stroke: #000000"/>
    </g>
   </g>
   <g id="patch_6">
    <path d="M 66.250062 337.669969 
L 66.250062 23.077969 
" style="fill: none; stroke: #cccccc; stroke-width: 1.25; stroke-linejoin: miter; stroke-linecap: square"/>
   </g>
   <g id="patch_7">
    <path d="M 355.278062 337.669969 
L 355.278062 23.077969 
" style="fill: none; stroke: #cccccc; stroke-width: 1.25; stroke-linejoin: miter; stroke-linecap: square"/>
   </g>
   <g id="patch_8">
    <path d="M 66.250062 337.669969 
L 355.278062 337.669969 
" style="fill: none; stroke: #cccccc; stroke-width: 1.25; stroke-linejoin: miter; stroke-linecap: square"/>
   </g>
   <g id="patch_9">
    <path d="M 66.250062 23.077969 
L 355.278062 23.077969 
" style="fill: none; stroke: #cccccc; stroke-width: 1.25; stroke-linejoin: miter; stroke-linecap: square"/>
   </g>
   <g id="text_10">
    <!-- +14.3% -->
    <g style="fill: #1565c0" transform="translate(189.228125 97.195835) scale(0.1 -0.1)">
     <defs>
      <path id="DejaVuSans-Bold-2b" d="M 3053 4013 
L 3053 2375 
L 4684 2375 
L 4684 1638 
L 3053 1638 
L 3053 0 
L 2309 0 
L 2309 1638 
L 678 1638 
L 678 2375 
L 2309 2375 
L 2309 4013 
L 3053 4013 
z
" transform="scale(0.015625)"/>
      <path id="DejaVuSans-Bold-31" d="M 750 831 
L 1813 831 
L 1813 3847 
L 722 3622 
L 722 4441 
L 1806 4666 
L 2950 4666 
L 2950 831 
L 4013 831 
L 4013 0 
L 750 0 
L 750 831 
z
" transform="scale(0.015625)"/>
      <path id="DejaVuSans-Bold-34" d="M 2356 3675 
L 1038 1722 
L 2356 1722 
L 2356 3675 
z
M 2156 4666 
L 3494 4666 
L 3494 1722 
L 4159 1722 
L 4159 850 
L 3494 850 
L 3494 0 
L 2356 0 
L 2356 850 
L 288 850 
L 288 1881 
L 2156 4666 
z
" transform="scale(0.015625)"/>
      <path id="DejaVuSans-Bold-2e" d="M 653 1209 
L 1778 1209 
L 1778 0 
L 653 0 
L 653 1209 
z
" transform="scale(0.015625)"/>
      <path id="DejaVuSans-Bold-33" d="M 2981 2516 
Q 3453 2394 3698 2092 
Q 3944 1791 3944 1325 
Q 3944 631 3412 270 
Q 2881 -91 1863 -91 
Q 1503 -91 1142 -33 
Q 781 25 428 141 
L 428 1069 
Q 766 900 1098 814 
Q 1431 728 1753 728 
Q 2231 728 2486 893 
Q 2741 1059 2741 1369 
Q 2741 1688 2480 1852 
Q 2219 2016 1709 2016 
L 1228 2016 
L 1228 2791 
L 1734 2791 
Q 2188 2791 2409 2933 
Q 2631 3075 2631 3366 
Q 2631 3634 2415 3781 
Q 2200 3928 1806 3928 
Q 1516 3928 1219 3862 
Q 922 3797 628 3669 
L 628 4550 
Q 984 4650 1334 4700 
Q 1684 4750 2022 4750 
Q 2931 4750 3382 4451 
Q 3834 4153 3834 3553 
Q 3834 3144 3618 2883 
Q 3403 2622 2981 2516 
z
" transform="scale(0.015625)"/>
      <path id="DejaVuSans-Bold-25" d="M 4959 1925 
Q 4738 1925 4616 1733 
Q 4494 1541 4494 1184 
Q 4494 825 4614 633 
Q 4734 441 4959 441 
Q 5184 441 5303 633 
Q 5422 825 5422 1184 
Q 5422 1541 5301 1733 
Q 5181 1925 4959 1925 
z
M 4959 2450 
Q 5541 2450 5875 2112 
Q 6209 1775 6209 1184 
Q 6209 594 5875 251 
Q 5541 -91 4959 -91 
Q 4378 -91 4042 251 
Q 3706 594 3706 1184 
Q 3706 1772 4042 2111 
Q 4378 2450 4959 2450 
z
M 2094 -91 
L 1403 -91 
L 4319 4750 
L 5013 4750 
L 2094 -91 
z
M 1453 4750 
Q 2034 4750 2367 4411 
Q 2700 4072 2700 3481 
Q 2700 2891 2367 2550 
Q 2034 2209 1453 2209 
Q 872 2209 539 2550 
Q 206 2891 206 3481 
Q 206 4072 539 4411 
Q 872 4750 1453 4750 
z
M 1453 4225 
Q 1228 4225 1106 4031 
Q 984 3838 984 3481 
Q 984 3122 1106 2926 
Q 1228 2731 1453 2731 
Q 1678 2731 1798 2926 
Q 1919 3122 1919 3481 
Q 1919 3838 1797 4031 
Q 1675 4225 1453 4225 
z
" transform="scale(0.015625)"/>
     </defs>
     <use xlink:href="#DejaVuSans-Bold-2b"/>
     <use xlink:href="#DejaVuSans-Bold-31" transform="translate(83.789062 0)"/>
     <use xlink:href="#DejaVuSans-Bold-34" transform="translate(153.369141 0)"/>
     <use xlink:href="#DejaVuSans-Bold-2e" transform="translate(222.949219 0)"/>
     <use xlink:href="#DejaVuSans-Bold-33" transform="translate(260.9375 0)"/>
     <use xlink:href="#DejaVuSans-Bold-25" transform="translate(330.517578 0)"/>
    </g>
   </g>
   <g id="text_11">
    <!-- +10.9% -->
    <g style="fill: #c62828" transform="translate(279.832514 86.188735) scale(0.1 -0.1)">
     <defs>
      <path id="DejaVuSans-Bold-30" d="M 2944 2338 
Q 2944 3213 2780 3570 
Q 2616 3928 2228 3928 
Q 1841 3928 1675 3570 
Q 1509 3213 1509 2338 
Q 1509 1453 1675 1090 
Q 1841 728 2228 728 
Q 2613 728 2778 1090 
Q 2944 1453 2944 2338 
z
M 4147 2328 
Q 4147 1169 3647 539 
Q 3147 -91 2228 -91 
Q 1306 -91 806 539 
Q 306 1169 306 2328 
Q 306 3491 806 4120 
Q 1306 4750 2228 4750 
Q 3147 4750 3647 4120 
Q 4147 3491 4147 2328 
z
" transform="scale(0.015625)"/>
      <path id="DejaVuSans-Bold-39" d="M 641 103 
L 641 966 
Q 928 831 1190 764 
Q 1453 697 1709 697 
Q 2247 697 2547 995 
Q 2847 1294 2900 1881 
Q 2688 1725 2447 1647 
Q 2206 1569 1925 1569 
Q 1209 1569 770 1986 
Q 331 2403 331 3084 
Q 331 3838 820 4291 
Q 1309 4744 2131 4744 
Q 3044 4744 3544 4128 
Q 4044 3513 4044 2388 
Q 4044 1231 3459 570 
Q 2875 -91 1856 -91 
Q 1528 -91 1228 -42 
Q 928 6 641 103 
z
M 2125 2350 
Q 2441 2350 2600 2554 
Q 2759 2759 2759 3169 
Q 2759 3575 2600 3781 
Q 2441 3988 2125 3988 
Q 1809 3988 1650 3781 
Q 1491 3575 1491 3169 
Q 1491 2759 1650 2554 
Q 1809 2350 2125 2350 
z
" transform="scale(0.015625)"/>
     </defs>
     <use xlink:href="#DejaVuSans-Bold-2b"/>
     <use xlink:href="#DejaVuSans-Bold-31" transform="translate(83.789062 0)"/>
     <use xlink:href="#DejaVuSans-Bold-30" transform="translate(153.369141 0)"/>
     <use xlink:href="#DejaVuSans-Bold-2e" transform="translate(222.949219 0)"/>
     <use xlink:href="#DejaVuSans-Bold-39" transform="translate(260.9375 0)"/>
     <use xlink:href="#DejaVuSans-Bold-25" transform="translate(330.517578 0)"/>
    </g>
   </g>
   <g id="text_12">
    <!-- OLTP — TPS -->
    <g style="fill: #262626" transform="translate(168.065156 17.077969) scale(0.13 -0.13)">
     <defs>
      <path id="DejaVuSans-Bold-4f" d="M 2719 3878 
Q 2169 3878 1866 3472 
Q 1563 3066 1563 2328 
Q 1563 1594 1866 1187 
Q 2169 781 2719 781 
Q 3272 781 3575 1187 
Q 3878 1594 3878 2328 
Q 3878 3066 3575 3472 
Q 3272 3878 2719 3878 
z
M 2719 4750 
Q 3844 4750 4481 4106 
Q 5119 3463 5119 2328 
Q 5119 1197 4481 553 
Q 3844 -91 2719 -91 
Q 1597 -91 958 553 
Q 319 1197 319 2328 
Q 319 3463 958 4106 
Q 1597 4750 2719 4750 
z
" transform="scale(0.015625)"/>
      <path id="DejaVuSans-Bold-4c" d="M 588 4666 
L 1791 4666 
L 1791 909 
L 3903 909 
L 3903 0 
L 588 0 
L 588 4666 
z
" transform="scale(0.015625)"/>
      <path id="DejaVuSans-Bold-54" d="M 31 4666 
L 4331 4666 
L 4331 3756 
L 2784 3756 
L 2784 0 
L 1581 0 
L 1581 3756 
L 31 3756 
L 31 4666 
z
" transform="scale(0.015625)"/>
      <path id="DejaVuSans-Bold-50" d="M 588 4666 
L 2584 4666 
Q 3475 4666 3951 4270 
Q 4428 3875 4428 3144 
Q 4428 2409 3951 2014 
Q 3475 1619 2584 1619 
L 1791 1619 
L 1791 0 
L 588 0 
L 588 4666 
z
M 1791 3794 
L 1791 2491 
L 2456 2491 
Q 2806 2491 2997 2661 
Q 3188 2831 3188 3144 
Q 3188 3456 2997 3625 
Q 2806 3794 2456 3794 
L 1791 3794 
z
" transform="scale(0.015625)"/>
      <path id="DejaVuSans-Bold-20" transform="scale(0.015625)"/>
      <path id="DejaVuSans-Bold-2014" d="M 344 2156 
L 6056 2156 
L 6056 1350 
L 344 1350 
L 344 2156 
z
" transform="scale(0.015625)"/>
      <path id="DejaVuSans-Bold-53" d="M 3834 4519 
L 3834 3531 
Q 3450 3703 3084 3790 
Q 2719 3878 2394 3878 
Q 1963 3878 1756 3759 
Q 1550 3641 1550 3391 
Q 1550 3203 1689 3098 
Q 1828 2994 2194 2919 
L 2706 2816 
Q 3484 2659 3812 2340 
Q 4141 2022 4141 1434 
Q 4141 663 3683 286 
Q 3225 -91 2284 -91 
Q 1841 -91 1394 -6 
Q 947 78 500 244 
L 500 1259 
Q 947 1022 1364 901 
Q 1781 781 2169 781 
Q 2563 781 2772 912 
Q 2981 1044 2981 1288 
Q 2981 1506 2839 1625 
Q 2697 1744 2272 1838 
L 1806 1941 
Q 1106 2091 782 2419 
Q 459 2747 459 3303 
Q 459 4000 909 4375 
Q 1359 4750 2203 4750 
Q 2588 4750 2994 4692 
Q 3400 4634 3834 4519 
z
" transform="scale(0.015625)"/>
     </defs>
     <use xlink:href="#DejaVuSans-Bold-4f"/>
     <use xlink:href="#DejaVuSans-Bold-4c" transform="translate(85.009766 0)"/>
     <use xlink:href="#DejaVuSans-Bold-54" transform="translate(132.230469 0)"/>
     <use xlink:href="#DejaVuSans-Bold-50" transform="translate(200.443359 0)"/>
     <use xlink:href="#DejaVuSans-Bold-20" transform="translate(273.734375 0)"/>
     <use xlink:href="#DejaVuSans-Bold-2014" transform="translate(308.548828 0)"/>
     <use xlink:href="#DejaVuSans-Bold-20" transform="translate(408.548828 0)"/>
     <use xlink:href="#DejaVuSans-Bold-54" transform="translate(443.363281 0)"/>
     <use xlink:href="#DejaVuSans-Bold-50" transform="translate(511.576172 0)"/>
     <use xlink:href="#DejaVuSans-Bold-53" transform="translate(584.867188 0)"/>
    </g>
   </g>
   <g id="legend_1">
    <g id="patch_10">
     <path d="M 283.913766 72.510625 
L 348.628062 72.510625 
Q 350.528062 72.510625 350.528062 70.610625 
L 350.528062 29.727969 
Q 350.528062 27.827969 348.628062 27.827969 
L 283.913766 27.827969 
Q 282.013766 27.827969 282.013766 29.727969 
L 282.013766 70.610625 
Q 282.013766 72.510625 283.913766 72.510625 
z
" style="fill: #ffffff; opacity: 0.9; stroke: #cccccc; stroke-linejoin: miter"/>
    </g>
    <g id="patch_11">
     <path d="M 285.813766 38.846484 
L 304.813766 38.846484 
L 304.813766 32.196484 
L 285.813766 32.196484 
z
" style="fill: #78909c; stroke: #ffffff; stroke-linejoin: miter"/>
    </g>
    <g id="text_13">
     <!-- pgTune -->
     <g style="fill: #262626" transform="translate(312.413766 38.846484) scale(0.095 -0.095)">
      <defs>
       <path id="DejaVuSans-70" d="M 1159 525 
L 1159 -1331 
L 581 -1331 
L 581 3500 
L 1159 3500 
L 1159 2969 
Q 1341 3281 1617 3432 
Q 1894 3584 2278 3584 
Q 2916 3584 3314 3078 
Q 3713 2572 3713 1747 
Q 3713 922 3314 415 
Q 2916 -91 2278 -91 
Q 1894 -91 1617 61 
Q 1341 213 1159 525 
z
M 3116 1747 
Q 3116 2381 2855 2742 
Q 2594 3103 2138 3103 
Q 1681 3103 1420 2742 
Q 1159 2381 1159 1747 
Q 1159 1113 1420 752 
Q 1681 391 2138 391 
Q 2594 391 2855 752 
Q 3116 1113 3116 1747 
z
" transform="scale(0.015625)"/>
       <path id="DejaVuSans-67" d="M 2906 1791 
Q 2906 2416 2648 2759 
Q 2391 3103 1925 3103 
Q 1463 3103 1205 2759 
Q 947 2416 947 1791 
Q 947 1169 1205 825 
Q 1463 481 1925 481 
Q 2391 481 2648 825 
Q 2906 1169 2906 1791 
z
M 3481 434 
Q 3481 -459 3084 -895 
Q 2688 -1331 1869 -1331 
Q 1566 -1331 1297 -1286 
Q 1028 -1241 775 -1147 
L 775 -588 
Q 1028 -725 1275 -790 
Q 1522 -856 1778 -856 
Q 2344 -856 2625 -561 
Q 2906 -266 2906 331 
L 2906 616 
Q 2728 306 2450 153 
Q 2172 0 1784 0 
Q 1141 0 747 490 
Q 353 981 353 1791 
Q 353 2603 747 3093 
Q 1141 3584 1784 3584 
Q 2172 3584 2450 3431 
Q 2728 3278 2906 2969 
L 2906 3500 
L 3481 3500 
L 3481 434 
z
" transform="scale(0.015625)"/>
       <path id="DejaVuSans-75" d="M 544 1381 
L 544 3500 
L 1119 3500 
L 1119 1403 
Q 1119 906 1312 657 
Q 1506 409 1894 409 
Q 2359 409 2629 706 
Q 2900 1003 2900 1516 
L 2900 3500 
L 3475 3500 
L 3475 0 
L 2900 0 
L 2900 538 
Q 2691 219 2414 64 
Q 2138 -91 1772 -91 
Q 1169 -91 856 284 
Q 544 659 544 1381 
z
M 1991 3584 
L 1991 3584 
z
" transform="scale(0.015625)"/>
       <path id="DejaVuSans-6e" d="M 3513 2113 
L 3513 0 
L 2938 0 
L 2938 2094 
Q 2938 2591 2744 2837 
Q 2550 3084 2163 3084 
Q 1697 3084 1428 2787 
Q 1159 2491 1159 1978 
L 1159 0 
L 581 0 
L 581 3500 
L 1159 3500 
L 1159 2956 
Q 1366 3272 1645 3428 
Q 1925 3584 2291 3584 
Q 2894 3584 3203 3211 
Q 3513 2838 3513 2113 
z
" transform="scale(0.015625)"/>
       <path id="DejaVuSans-65" d="M 3597 1894 
L 3597 1613 
L 953 1613 
Q 991 1019 1311 708 
Q 1631 397 2203 397 
Q 2534 397 2845 478 
Q 3156 559 3463 722 
L 3463 178 
Q 3153 47 2828 -22 
Q 2503 -91 2169 -91 
Q 1331 -91 842 396 
Q 353 884 353 1716 
Q 353 2575 817 3079 
Q 1281 3584 2069 3584 
Q 2775 3584 3186 3129 
Q 3597 2675 3597 1894 
z
M 3022 2063 
Q 3016 2534 2758 2815 
Q 2500 3097 2075 3097 
Q 1594 3097 1305 2825 
Q 1016 2553 972 2059 
L 3022 2063 
z
" transform="scale(0.015625)"/>
      </defs>
      <use xlink:href="#DejaVuSans-70"/>
      <use xlink:href="#DejaVuSans-67" transform="translate(63.476562 0)"/>
      <use xlink:href="#DejaVuSans-54" transform="translate(126.953125 0)"/>
      <use xlink:href="#DejaVuSans-75" transform="translate(172.912109 0)"/>
      <use xlink:href="#DejaVuSans-6e" transform="translate(236.291016 0)"/>
      <use xlink:href="#DejaVuSans-65" transform="translate(299.669922 0)"/>
     </g>
    </g>
    <g id="patch_12">
     <path d="M 285.813766 52.790703 
L 304.813766 52.790703 
L 304.813766 46.140703 
L 285.813766 46.140703 
z
" style="fill: #1565c0; stroke: #ffffff; stroke-linejoin: miter"/>
    </g>
    <g id="text_14">
     <!-- SMAC -->
     <g style="fill: #262626" transform="translate(312.413766 52.790703) scale(0.095 -0.095)">
      <defs>
       <path id="DejaVuSans-4d" d="M 628 4666 
L 1569 4666 
L 2759 1491 
L 3956 4666 
L 4897 4666 
L 4897 0 
L 4281 0 
L 4281 4097 
L 3078 897 
L 2444 897 
L 1241 4097 
L 1241 0 
L 628 0 
L 628 4666 
z
" transform="scale(0.015625)"/>
       <path id="DejaVuSans-41" d="M 2188 4044 
L 1331 1722 
L 3047 1722 
L 2188 4044 
z
M 1831 4666 
L 2547 4666 
L 4325 0 
L 3669 0 
L 3244 1197 
L 1141 1197 
L 716 0 
L 50 0 
L 1831 4666 
z
" transform="scale(0.015625)"/>
       <path id="DejaVuSans-43" d="M 4122 4306 
L 4122 3641 
Q 3803 3938 3442 4084 
Q 3081 4231 2675 4231 
Q 1875 4231 1450 3742 
Q 1025 3253 1025 2328 
Q 1025 1406 1450 917 
Q 1875 428 2675 428 
Q 3081 428 3442 575 
Q 3803 722 4122 1019 
L 4122 359 
Q 3791 134 3420 21 
Q 3050 -91 2638 -91 
Q 1578 -91 968 557 
Q 359 1206 359 2328 
Q 359 3453 968 4101 
Q 1578 4750 2638 4750 
Q 3056 4750 3426 4639 
Q 3797 4528 4122 4306 
z
" transform="scale(0.015625)"/>
      </defs>
      <use xlink:href="#DejaVuSans-53"/>
      <use xlink:href="#DejaVuSans-4d" transform="translate(63.476562 0)"/>
      <use xlink:href="#DejaVuSans-41" transform="translate(149.755859 0)"/>
      <use xlink:href="#DejaVuSans-43" transform="translate(216.414062 0)"/>
     </g>
    </g>
    <g id="patch_13">
     <path d="M 285.813766 66.734922 
L 304.813766 66.734922 
L 304.813766 60.084922 
L 285.813766 60.084922 
z
" style="fill: #c62828; stroke: #ffffff; stroke-linejoin: miter"/>
    </g>
    <g id="text_15">
     <!-- TPE -->
     <g style="fill: #262626" transform="translate(312.413766 66.734922) scale(0.095 -0.095)">
      <defs>
       <path id="DejaVuSans-45" d="M 628 4666 
L 3578 4666 
L 3578 4134 
L 1259 4134 
L 1259 2753 
L 3481 2753 
L 3481 2222 
L 1259 2222 
L 1259 531 
L 3634 531 
L 3634 0 
L 628 0 
L 628 4666 
z
" transform="scale(0.015625)"/>
      </defs>
      <use xlink:href="#DejaVuSans-54"/>
      <use xlink:href="#DejaVuSans-50" transform="translate(61.083984 0)"/>
      <use xlink:href="#DejaVuSans-45" transform="translate(121.386719 0)"/>
     </g>
    </g>
   </g>
  </g>
  <g id="axes_2">
   <g id="patch_14">
    <path d="M 417.282062 337.669969 
L 706.310062 337.669969 
L 706.310062 23.077969 
L 417.282062 23.077969 
z
" style="fill: #ffffff"/>
   </g>
   <g id="matplotlib.axis_3"/>
   <g id="matplotlib.axis_4">
    <g id="ytick_9">
     <g id="line2d_15">
      <path d="M 417.282062 321.100656 
L 706.310062 321.100656 
" clip-path="url(#pde378401c6)" style="fill: none; stroke: #cccccc; stroke-linecap: round"/>
     </g>
     <g id="text_16">
      <!-- 3 -->
      <g style="fill: #262626" transform="translate(399.7335 325.906667) scale(0.1265 -0.1265)">
       <use xlink:href="#DejaVuSans-33"/>
      </g>
     </g>
    </g>
    <g id="ytick_10">
     <g id="line2d_16">
      <path d="M 417.282062 256.378821 
L 706.310062 256.378821 
" clip-path="url(#pde378401c6)" style="fill: none; stroke: #cccccc; stroke-linecap: round"/>
     </g>
     <g id="text_17">
      <!-- 4 -->
      <g style="fill: #262626" transform="translate(399.7335 261.184832) scale(0.1265 -0.1265)">
       <use xlink:href="#DejaVuSans-34"/>
      </g>
     </g>
    </g>
    <g id="ytick_11">
     <g id="line2d_17">
      <path d="M 417.282062 191.656986 
L 706.310062 191.656986 
" clip-path="url(#pde378401c6)" style="fill: none; stroke: #cccccc; stroke-linecap: round"/>
     </g>
     <g id="text_18">
      <!-- 5 -->
      <g style="fill: #262626" transform="translate(399.7335 196.462997) scale(0.1265 -0.1265)">
       <defs>
        <path id="DejaVuSans-35" d="M 691 4666 
L 3169 4666 
L 3169 4134 
L 1269 4134 
L 1269 2991 
Q 1406 3038 1543 3061 
Q 1681 3084 1819 3084 
Q 2600 3084 3056 2656 
Q 3513 2228 3513 1497 
Q 3513 744 3044 326 
Q 2575 -91 1722 -91 
Q 1428 -91 1123 -41 
Q 819 9 494 109 
L 494 744 
Q 775 591 1075 516 
Q 1375 441 1709 441 
Q 2250 441 2565 725 
Q 2881 1009 2881 1497 
Q 2881 1984 2565 2268 
Q 2250 2553 1709 2553 
Q 1456 2553 1204 2497 
Q 953 2441 691 2322 
L 691 4666 
z
" transform="scale(0.015625)"/>
       </defs>
       <use xlink:href="#DejaVuSans-35"/>
      </g>
     </g>
    </g>
    <g id="ytick_12">
     <g id="line2d_18">
      <path d="M 417.282062 126.935151 
L 706.310062 126.935151 
" clip-path="url(#pde378401c6)" style="fill: none; stroke: #cccccc; stroke-linecap: round"/>
     </g>
     <g id="text_19">
      <!-- 6 -->
      <g style="fill: #262626" transform="translate(399.7335 131.741162) scale(0.1265 -0.1265)">
       <use xlink:href="#DejaVuSans-36"/>
      </g>
     </g>
    </g>
    <g id="ytick_13">
     <g id="line2d_19">
      <path d="M 417.282062 62.213316 
L 706.310062 62.213316 
" clip-path="url(#pde378401c6)" style="fill: none; stroke: #cccccc; stroke-linecap: round"/>
     </g>
     <g id="text_20">
      <!-- 7 -->
      <g style="fill: #262626" transform="translate(399.7335 67.019327) scale(0.1265 -0.1265)">
       <defs>
        <path id="DejaVuSans-37" d="M 525 4666 
L 3525 4666 
L 3525 4397 
L 1831 0 
L 1172 0 
L 2766 4134 
L 525 4134 
L 525 4666 
z
" transform="scale(0.015625)"/>
       </defs>
       <use xlink:href="#DejaVuSans-37"/>
      </g>
     </g>
    </g>
    <g id="text_21">
     <!-- Лучший Latency (ms) -->
     <g style="fill: #262626" transform="translate(392.863531 256.364531) rotate(-90) scale(0.138 -0.138)">
      <defs>
       <path id="DejaVuSans-4c" d="M 628 4666 
L 1259 4666 
L 1259 531 
L 3531 531 
L 3531 0 
L 628 0 
L 628 4666 
z
" transform="scale(0.015625)"/>
       <path id="DejaVuSans-61" d="M 2194 1759 
Q 1497 1759 1228 1600 
Q 959 1441 959 1056 
Q 959 750 1161 570 
Q 1363 391 1709 391 
Q 2188 391 2477 730 
Q 2766 1069 2766 1631 
L 2766 1759 
L 2194 1759 
z
M 3341 1997 
L 3341 0 
L 2766 0 
L 2766 531 
Q 2569 213 2275 61 
Q 1981 -91 1556 -91 
Q 1019 -91 701 211 
Q 384 513 384 1019 
Q 384 1609 779 1909 
Q 1175 2209 1959 2209 
L 2766 2209 
L 2766 2266 
Q 2766 2663 2505 2880 
Q 2244 3097 1772 3097 
Q 1472 3097 1187 3025 
Q 903 2953 641 2809 
L 641 3341 
Q 956 3463 1253 3523 
Q 1550 3584 1831 3584 
Q 2591 3584 2966 3190 
Q 3341 2797 3341 1997 
z
" transform="scale(0.015625)"/>
       <path id="DejaVuSans-74" d="M 1172 4494 
L 1172 3500 
L 2356 3500 
L 2356 3053 
L 1172 3053 
L 1172 1153 
Q 1172 725 1289 603 
Q 1406 481 1766 481 
L 2356 481 
L 2356 0 
L 1766 0 
Q 1100 0 847 248 
Q 594 497 594 1153 
L 594 3053 
L 172 3053 
L 172 3500 
L 594 3500 
L 594 4494 
L 1172 4494 
z
" transform="scale(0.015625)"/>
       <path id="DejaVuSans-63" d="M 3122 3366 
L 3122 2828 
Q 2878 2963 2633 3030 
Q 2388 3097 2138 3097 
Q 1578 3097 1268 2742 
Q 959 2388 959 1747 
Q 959 1106 1268 751 
Q 1578 397 2138 397 
Q 2388 397 2633 464 
Q 2878 531 3122 666 
L 3122 134 
Q 2881 22 2623 -34 
Q 2366 -91 2075 -91 
Q 1284 -91 818 406 
Q 353 903 353 1747 
Q 353 2603 823 3093 
Q 1294 3584 2113 3584 
Q 2378 3584 2631 3529 
Q 2884 3475 3122 3366 
z
" transform="scale(0.015625)"/>
       <path id="DejaVuSans-79" d="M 2059 -325 
Q 1816 -950 1584 -1140 
Q 1353 -1331 966 -1331 
L 506 -1331 
L 506 -850 
L 844 -850 
Q 1081 -850 1212 -737 
Q 1344 -625 1503 -206 
L 1606 56 
L 191 3500 
L 800 3500 
L 1894 763 
L 2988 3500 
L 3597 3500 
L 2059 -325 
z
" transform="scale(0.015625)"/>
       <path id="DejaVuSans-28" d="M 1984 4856 
Q 1566 4138 1362 3434 
Q 1159 2731 1159 2009 
Q 1159 1288 1364 580 
Q 1569 -128 1984 -844 
L 1484 -844 
Q 1016 -109 783 600 
Q 550 1309 550 2009 
Q 550 2706 781 3412 
Q 1013 4119 1484 4856 
L 1984 4856 
z
" transform="scale(0.015625)"/>
       <path id="DejaVuSans-6d" d="M 3328 2828 
Q 3544 3216 3844 3400 
Q 4144 3584 4550 3584 
Q 5097 3584 5394 3201 
Q 5691 2819 5691 2113 
L 5691 0 
L 5113 0 
L 5113 2094 
Q 5113 2597 4934 2840 
Q 4756 3084 4391 3084 
Q 3944 3084 3684 2787 
Q 3425 2491 3425 1978 
L 3425 0 
L 2847 0 
L 2847 2094 
Q 2847 2600 2669 2842 
Q 2491 3084 2119 3084 
Q 1678 3084 1418 2786 
Q 1159 2488 1159 1978 
L 1159 0 
L 581 0 
L 581 3500 
L 1159 3500 
L 1159 2956 
Q 1356 3278 1631 3431 
Q 1906 3584 2284 3584 
Q 2666 3584 2933 3390 
Q 3200 3197 3328 2828 
z
" transform="scale(0.015625)"/>
       <path id="DejaVuSans-73" d="M 2834 3397 
L 2834 2853 
Q 2591 2978 2328 3040 
Q 2066 3103 1784 3103 
Q 1356 3103 1142 2972 
Q 928 2841 928 2578 
Q 928 2378 1081 2264 
Q 1234 2150 1697 2047 
L 1894 2003 
Q 2506 1872 2764 1633 
Q 3022 1394 3022 966 
Q 3022 478 2636 193 
Q 2250 -91 1575 -91 
Q 1294 -91 989 -36 
Q 684 19 347 128 
L 347 722 
Q 666 556 975 473 
Q 1284 391 1588 391 
Q 1994 391 2212 530 
Q 2431 669 2431 922 
Q 2431 1156 2273 1281 
Q 2116 1406 1581 1522 
L 1381 1569 
Q 847 1681 609 1914 
Q 372 2147 372 2553 
Q 372 3047 722 3315 
Q 1072 3584 1716 3584 
Q 2034 3584 2315 3537 
Q 2597 3491 2834 3397 
z
" transform="scale(0.015625)"/>
       <path id="DejaVuSans-29" d="M 513 4856 
L 1013 4856 
Q 1481 4119 1714 3412 
Q 1947 2706 1947 2009 
Q 1947 1309 1714 600 
Q 1481 -109 1013 -844 
L 513 -844 
Q 928 -128 1133 580 
Q 1338 1288 1338 2009 
Q 1338 2731 1133 3434 
Q 928 4138 513 4856 
z
" transform="scale(0.015625)"/>
      </defs>
      <use xlink:href="#DejaVuSans-41b"/>
      <use xlink:href="#DejaVuSans-443" transform="translate(75.195312 0)"/>
      <use xlink:href="#DejaVuSans-447" transform="translate(134.375 0)"/>
      <use xlink:href="#DejaVuSans-448" transform="translate(193.457031 0)"/>
      <use xlink:href="#DejaVuSans-438" transform="translate(284.960938 0)"/>
      <use xlink:href="#DejaVuSans-439" transform="translate(349.951172 0)"/>
      <use xlink:href="#DejaVuSans-20" transform="translate(414.941406 0)"/>
      <use xlink:href="#DejaVuSans-4c" transform="translate(446.728516 0)"/>
      <use xlink:href="#DejaVuSans-61" transform="translate(502.441406 0)"/>
      <use xlink:href="#DejaVuSans-74" transform="translate(563.720703 0)"/>
      <use xlink:href="#DejaVuSans-65" transform="translate(602.929688 0)"/>
      <use xlink:href="#DejaVuSans-6e" transform="translate(664.453125 0)"/>
      <use xlink:href="#DejaVuSans-63" transform="translate(727.832031 0)"/>
      <use xlink:href="#DejaVuSans-79" transform="translate(782.8125 0)"/>
      <use xlink:href="#DejaVuSans-20" transform="translate(841.992188 0)"/>
      <use xlink:href="#DejaVuSans-28" transform="translate(873.779297 0)"/>
      <use xlink:href="#DejaVuSans-6d" transform="translate(912.792969 0)"/>
      <use xlink:href="#DejaVuSans-73" transform="translate(1010.205078 0)"/>
      <use xlink:href="#DejaVuSans-29" transform="translate(1062.304688 0)"/>
     </g>
    </g>
   </g>
   <g id="patch_15">
    <path d="M 430.419699 515.26616 
L 511.963649 515.26616 
L 511.963649 149.416912 
L 430.419699 149.416912 
z
" clip-path="url(#pde378401c6)" style="fill: #78909c; stroke: #ffffff; stroke-linejoin: miter"/>
   </g>
   <g id="patch_16">
    <path d="M 521.024088 515.26616 
L 602.568037 515.26616 
L 602.568037 263.335536 
L 521.024088 263.335536 
z
" clip-path="url(#pde378401c6)" style="fill: #1565c0; stroke: #ffffff; stroke-linejoin: miter"/>
   </g>
   <g id="patch_17">
    <path d="M 611.628476 515.26616 
L 693.172426 515.26616 
L 693.172426 245.31522 
L 611.628476 245.31522 
z
" clip-path="url(#pde378401c6)" style="fill: #c62828; stroke: #ffffff; stroke-linejoin: miter"/>
   </g>
   <g id="LineCollection_4">
    <path d="M 471.191674 205.846523 
L 471.191674 92.987302 
" clip-path="url(#pde378401c6)" style="fill: none; stroke: #000000; stroke-width: 1.5"/>
   </g>
   <g id="line2d_20">
    <g clip-path="url(#pde378401c6)">
     <use xlink:href="#m04643586a2" x="471.191674" y="205.846523" style="fill: #4c72b0; stroke: #000000"/>
    </g>
   </g>
   <g id="line2d_21">
    <g clip-path="url(#pde378401c6)">
     <use xlink:href="#m04643586a2" x="471.191674" y="92.987302" style="fill: #4c72b0; stroke: #000000"/>
    </g>
   </g>
   <g id="LineCollection_5">
    <path d="M 561.796062 267.760635 
L 561.796062 258.910437 
" clip-path="url(#pde378401c6)" style="fill: none; stroke: #000000; stroke-width: 1.5"/>
   </g>
   <g id="line2d_22">
    <g clip-path="url(#pde378401c6)">
     <use xlink:href="#m04643586a2" x="561.796062" y="267.760635" style="fill: #4c72b0; stroke: #000000"/>
    </g>
   </g>
   <g id="line2d_23">
    <g clip-path="url(#pde378401c6)">
     <use xlink:href="#m04643586a2" x="561.796062" y="258.910437" style="fill: #4c72b0; stroke: #000000"/>
    </g>
   </g>
   <g id="LineCollection_6">
    <path d="M 652.400451 265.710853 
L 652.400451 224.919588 
" clip-path="url(#pde378401c6)" style="fill: none; stroke: #000000; stroke-width: 1.5"/>
   </g>
   <g id="line2d_24">
    <g clip-path="url(#pde378401c6)">
     <use xlink:href="#m04643586a2" x="652.400451" y="265.710853" style="fill: #4c72b0; stroke: #000000"/>
    </g>
   </g>
   <g id="line2d_25">
    <g clip-path="url(#pde378401c6)">
     <use xlink:href="#m04643586a2" x="652.400451" y="224.919588" style="fill: #4c72b0; stroke: #000000"/>
    </g>
   </g>
   <g id="patch_18">
    <path d="M 417.282062 337.669969 
L 417.282062 23.077969 
" style="fill: none; stroke: #cccccc; stroke-width: 1.25; stroke-linejoin: miter; stroke-linecap: square"/>
   </g>
   <g id="patch_19">
    <path d="M 706.310062 337.669969 
L 706.310062 23.077969 
" style="fill: none; stroke: #cccccc; stroke-width: 1.25; stroke-linejoin: miter; stroke-linecap: square"/>
   </g>
   <g id="patch_20">
    <path d="M 417.282062 337.669969 
L 706.310062 337.669969 
" style="fill: none; stroke: #cccccc; stroke-width: 1.25; stroke-linejoin: miter; stroke-linecap: square"/>
   </g>
   <g id="patch_21">
    <path d="M 417.282062 23.077969 
L 706.310062 23.077969 
" style="fill: none; stroke: #cccccc; stroke-width: 1.25; stroke-linejoin: miter; stroke-linecap: square"/>
   </g>
   <g id="text_22">
    <!-- +31.1% -->
    <g style="fill: #1565c0" transform="translate(540.260125 252.111869) scale(0.1 -0.1)">
     <use xlink:href="#DejaVuSans-Bold-2b"/>
     <use xlink:href="#DejaVuSans-Bold-33" transform="translate(83.789062 0)"/>
     <use xlink:href="#DejaVuSans-Bold-31" transform="translate(153.369141 0)"/>
     <use xlink:href="#DejaVuSans-Bold-2e" transform="translate(222.949219 0)"/>
     <use xlink:href="#DejaVuSans-Bold-31" transform="translate(260.9375 0)"/>
     <use xlink:href="#DejaVuSans-Bold-25" transform="translate(330.517578 0)"/>
    </g>
   </g>
   <g id="text_23">
    <!-- +26.2% -->
    <g style="fill: #c62828" transform="translate(630.864514 218.12102) scale(0.1 -0.1)">
     <defs>
      <path id="DejaVuSans-Bold-32" d="M 1844 884 
L 3897 884 
L 3897 0 
L 506 0 
L 506 884 
L 2209 2388 
Q 2438 2594 2547 2791 
Q 2656 2988 2656 3200 
Q 2656 3528 2436 3728 
Q 2216 3928 1850 3928 
Q 1569 3928 1234 3808 
Q 900 3688 519 3450 
L 519 4475 
Q 925 4609 1322 4679 
Q 1719 4750 2100 4750 
Q 2938 4750 3402 4381 
Q 3866 4013 3866 3353 
Q 3866 2972 3669 2642 
Q 3472 2313 2841 1759 
L 1844 884 
z
" transform="scale(0.015625)"/>
      <path id="DejaVuSans-Bold-36" d="M 2316 2303 
Q 2000 2303 1842 2098 
Q 1684 1894 1684 1484 
Q 1684 1075 1842 870 
Q 2000 666 2316 666 
Q 2634 666 2792 870 
Q 2950 1075 2950 1484 
Q 2950 1894 2792 2098 
Q 2634 2303 2316 2303 
z
M 3803 4544 
L 3803 3681 
Q 3506 3822 3243 3889 
Q 2981 3956 2731 3956 
Q 2194 3956 1894 3657 
Q 1594 3359 1544 2772 
Q 1750 2925 1990 3001 
Q 2231 3078 2516 3078 
Q 3231 3078 3670 2659 
Q 4109 2241 4109 1563 
Q 4109 813 3618 361 
Q 3128 -91 2303 -91 
Q 1394 -91 895 523 
Q 397 1138 397 2266 
Q 397 3422 980 4083 
Q 1563 4744 2578 4744 
Q 2900 4744 3203 4694 
Q 3506 4644 3803 4544 
z
" transform="scale(0.015625)"/>
     </defs>
     <use xlink:href="#DejaVuSans-Bold-2b"/>
     <use xlink:href="#DejaVuSans-Bold-32" transform="translate(83.789062 0)"/>
     <use xlink:href="#DejaVuSans-Bold-36" transform="translate(153.369141 0)"/>
     <use xlink:href="#DejaVuSans-Bold-2e" transform="translate(222.949219 0)"/>
     <use xlink:href="#DejaVuSans-Bold-32" transform="translate(260.9375 0)"/>
     <use xlink:href="#DejaVuSans-Bold-25" transform="translate(330.517578 0)"/>
    </g>
   </g>
   <g id="text_24">
    <!-- OLTP — Latency -->
    <g style="fill: #262626" transform="translate(504.215203 17.077969) scale(0.13 -0.13)">
     <defs>
      <path id="DejaVuSans-Bold-61" d="M 2106 1575 
Q 1756 1575 1579 1456 
Q 1403 1338 1403 1106 
Q 1403 894 1545 773 
Q 1688 653 1941 653 
Q 2256 653 2472 879 
Q 2688 1106 2688 1447 
L 2688 1575 
L 2106 1575 
z
M 3816 1997 
L 3816 0 
L 2688 0 
L 2688 519 
Q 2463 200 2181 54 
Q 1900 -91 1497 -91 
Q 953 -91 614 226 
Q 275 544 275 1050 
Q 275 1666 698 1953 
Q 1122 2241 2028 2241 
L 2688 2241 
L 2688 2328 
Q 2688 2594 2478 2717 
Q 2269 2841 1825 2841 
Q 1466 2841 1156 2769 
Q 847 2697 581 2553 
L 581 3406 
Q 941 3494 1303 3539 
Q 1666 3584 2028 3584 
Q 2975 3584 3395 3211 
Q 3816 2838 3816 1997 
z
" transform="scale(0.015625)"/>
      <path id="DejaVuSans-Bold-74" d="M 1759 4494 
L 1759 3500 
L 2913 3500 
L 2913 2700 
L 1759 2700 
L 1759 1216 
Q 1759 972 1856 886 
Q 1953 800 2241 800 
L 2816 800 
L 2816 0 
L 1856 0 
Q 1194 0 917 276 
Q 641 553 641 1216 
L 641 2700 
L 84 2700 
L 84 3500 
L 641 3500 
L 641 4494 
L 1759 4494 
z
" transform="scale(0.015625)"/>
      <path id="DejaVuSans-Bold-65" d="M 4031 1759 
L 4031 1441 
L 1416 1441 
Q 1456 1047 1700 850 
Q 1944 653 2381 653 
Q 2734 653 3104 758 
Q 3475 863 3866 1075 
L 3866 213 
Q 3469 63 3072 -14 
Q 2675 -91 2278 -91 
Q 1328 -91 801 392 
Q 275 875 275 1747 
Q 275 2603 792 3093 
Q 1309 3584 2216 3584 
Q 3041 3584 3536 3087 
Q 4031 2591 4031 1759 
z
M 2881 2131 
Q 2881 2450 2695 2645 
Q 2509 2841 2209 2841 
Q 1884 2841 1681 2658 
Q 1478 2475 1428 2131 
L 2881 2131 
z
" transform="scale(0.015625)"/>
      <path id="DejaVuSans-Bold-6e" d="M 4056 2131 
L 4056 0 
L 2931 0 
L 2931 347 
L 2931 1631 
Q 2931 2084 2911 2256 
Q 2891 2428 2841 2509 
Q 2775 2619 2662 2680 
Q 2550 2741 2406 2741 
Q 2056 2741 1856 2470 
Q 1656 2200 1656 1722 
L 1656 0 
L 538 0 
L 538 3500 
L 1656 3500 
L 1656 2988 
Q 1909 3294 2193 3439 
Q 2478 3584 2822 3584 
Q 3428 3584 3742 3212 
Q 4056 2841 4056 2131 
z
" transform="scale(0.015625)"/>
      <path id="DejaVuSans-Bold-63" d="M 3366 3391 
L 3366 2478 
Q 3138 2634 2908 2709 
Q 2678 2784 2431 2784 
Q 1963 2784 1702 2511 
Q 1441 2238 1441 1747 
Q 1441 1256 1702 982 
Q 1963 709 2431 709 
Q 2694 709 2930 787 
Q 3166 866 3366 1019 
L 3366 103 
Q 3103 6 2833 -42 
Q 2563 -91 2291 -91 
Q 1344 -91 809 395 
Q 275 881 275 1747 
Q 275 2613 809 3098 
Q 1344 3584 2291 3584 
Q 2566 3584 2833 3536 
Q 3100 3488 3366 3391 
z
" transform="scale(0.015625)"/>
      <path id="DejaVuSans-Bold-79" d="M 78 3500 
L 1197 3500 
L 2138 1125 
L 2938 3500 
L 4056 3500 
L 2584 -331 
Q 2363 -916 2067 -1148 
Q 1772 -1381 1288 -1381 
L 641 -1381 
L 641 -647 
L 991 -647 
Q 1275 -647 1404 -556 
Q 1534 -466 1606 -231 
L 1638 -134 
L 78 3500 
z
" transform="scale(0.015625)"/>
     </defs>
     <use xlink:href="#DejaVuSans-Bold-4f"/>
     <use xlink:href="#DejaVuSans-Bold-4c" transform="translate(85.009766 0)"/>
     <use xlink:href="#DejaVuSans-Bold-54" transform="translate(132.230469 0)"/>
     <use xlink:href="#DejaVuSans-Bold-50" transform="translate(200.443359 0)"/>
     <use xlink:href="#DejaVuSans-Bold-20" transform="translate(273.734375 0)"/>
     <use xlink:href="#DejaVuSans-Bold-2014" transform="translate(308.548828 0)"/>
     <use xlink:href="#DejaVuSans-Bold-20" transform="translate(408.548828 0)"/>
     <use xlink:href="#DejaVuSans-Bold-4c" transform="translate(443.363281 0)"/>
     <use xlink:href="#DejaVuSans-Bold-61" transform="translate(507.083984 0)"/>
     <use xlink:href="#DejaVuSans-Bold-74" transform="translate(574.564453 0)"/>
     <use xlink:href="#DejaVuSans-Bold-65" transform="translate(622.367188 0)"/>
     <use xlink:href="#DejaVuSans-Bold-6e" transform="translate(690.189453 0)"/>
     <use xlink:href="#DejaVuSans-Bold-63" transform="translate(761.380859 0)"/>
     <use xlink:href="#DejaVuSans-Bold-79" transform="translate(820.658203 0)"/>
    </g>
   </g>
   <g id="legend_2">
    <g id="patch_22">
     <path d="M 634.945766 72.510625 
L 699.660062 72.510625 
Q 701.560062 72.510625 701.560062 70.610625 
L 701.560062 29.727969 
Q 701.560062 27.827969 699.660062 27.827969 
L 634.945766 27.827969 
Q 633.045766 27.827969 633.045766 29.727969 
L 633.045766 70.610625 
Q 633.045766 72.510625 634.945766 72.510625 
z
" style="fill: #ffffff; opacity: 0.9; stroke: #cccccc; stroke-linejoin: miter"/>
    </g>
    <g id="patch_23">
     <path d="M 636.845766 38.846484 
L 655.845766 38.846484 
L 655.845766 32.196484 
L 636.845766 32.196484 
z
" style="fill: #78909c; stroke: #ffffff; stroke-linejoin: miter"/>
    </g>
    <g id="text_25">
     <!-- pgTune -->
     <g style="fill: #262626" transform="translate(663.445766 38.846484) scale(0.095 -0.095)">
      <use xlink:href="#DejaVuSans-70"/>
      <use xlink:href="#DejaVuSans-67" transform="translate(63.476562 0)"/>
      <use xlink:href="#DejaVuSans-54" transform="translate(126.953125 0)"/>
      <use xlink:href="#DejaVuSans-75" transform="translate(172.912109 0)"/>
      <use xlink:href="#DejaVuSans-6e" transform="translate(236.291016 0)"/>
      <use xlink:href="#DejaVuSans-65" transform="translate(299.669922 0)"/>
     </g>
    </g>
    <g id="patch_24">
     <path d="M 636.845766 52.790703 
L 655.845766 52.790703 
L 655.845766 46.140703 
L 636.845766 46.140703 
z
" style="fill: #1565c0; stroke: #ffffff; stroke-linejoin: miter"/>
    </g>
    <g id="text_26">
     <!-- SMAC -->
     <g style="fill: #262626" transform="translate(663.445766 52.790703) scale(0.095 -0.095)">
      <use xlink:href="#DejaVuSans-53"/>
      <use xlink:href="#DejaVuSans-4d" transform="translate(63.476562 0)"/>
      <use xlink:href="#DejaVuSans-41" transform="translate(149.755859 0)"/>
      <use xlink:href="#DejaVuSans-43" transform="translate(216.414062 0)"/>
     </g>
    </g>
    <g id="patch_25">
     <path d="M 636.845766 66.734922 
L 655.845766 66.734922 
L 655.845766 60.084922 
L 636.845766 60.084922 
z
" style="fill: #c62828; stroke: #ffffff; stroke-linejoin: miter"/>
    </g>
    <g id="text_27">
     <!-- TPE -->
     <g style="fill: #262626" transform="translate(663.445766 66.734922) scale(0.095 -0.095)">
      <use xlink:href="#DejaVuSans-54"/>
      <use xlink:href="#DejaVuSans-50" transform="translate(61.083984 0)"/>
      <use xlink:href="#DejaVuSans-45" transform="translate(121.386719 0)"/>
     </g>
    </g>
   </g>
  </g>
  <g id="axes_3">
   <g id="patch_26">
    <path d="M 768.314062 337.669969 
L 1057.342062 337.669969 
L 1057.342062 23.077969 
L 768.314062 23.077969 
z
" style="fill: #ffffff"/>
   </g>
   <g id="matplotlib.axis_5"/>
   <g id="matplotlib.axis_6">
    <g id="ytick_14">
     <g id="line2d_26">
      <path d="M 768.314062 312.702239 
L 1057.342062 312.702239 
" clip-path="url(#p737423ef00)" style="fill: none; stroke: #cccccc; stroke-linecap: round"/>
     </g>
     <g id="text_28">
      <!-- 4.5 -->
      <g style="fill: #262626" transform="translate(738.696609 317.508251) scale(0.1265 -0.1265)">
       <defs>
        <path id="DejaVuSans-2e" d="M 684 794 
L 1344 794 
L 1344 0 
L 684 0 
L 684 794 
z
" transform="scale(0.015625)"/>
       </defs>
       <use xlink:href="#DejaVuSans-34"/>
       <use xlink:href="#DejaVuSans-2e" transform="translate(63.623047 0)"/>
       <use xlink:href="#DejaVuSans-35" transform="translate(95.410156 0)"/>
      </g>
     </g>
    </g>
    <g id="ytick_15">
     <g id="line2d_27">
      <path d="M 768.314062 275.698666 
L 1057.342062 275.698666 
" clip-path="url(#p737423ef00)" style="fill: none; stroke: #cccccc; stroke-linecap: round"/>
     </g>
     <g id="text_29">
      <!-- 5.0 -->
      <g style="fill: #262626" transform="translate(738.696609 280.504677) scale(0.1265 -0.1265)">
       <use xlink:href="#DejaVuSans-35"/>
       <use xlink:href="#DejaVuSans-2e" transform="translate(63.623047 0)"/>
       <use xlink:href="#DejaVuSans-30" transform="translate(95.410156 0)"/>
      </g>
     </g>
    </g>
    <g id="ytick_16">
     <g id="line2d_28">
      <path d="M 768.314062 238.695092 
L 1057.342062 238.695092 
" clip-path="url(#p737423ef00)" style="fill: none; stroke: #cccccc; stroke-linecap: round"/>
     </g>
     <g id="text_30">
      <!-- 5.5 -->
      <g style="fill: #262626" transform="translate(738.696609 243.501104) scale(0.1265 -0.1265)">
       <use xlink:href="#DejaVuSans-35"/>
       <use xlink:href="#DejaVuSans-2e" transform="translate(63.623047 0)"/>
       <use xlink:href="#DejaVuSans-35" transform="translate(95.410156 0)"/>
      </g>
     </g>
    </g>
    <g id="ytick_17">
     <g id="line2d_29">
      <path d="M 768.314062 201.691519 
L 1057.342062 201.691519 
" clip-path="url(#p737423ef00)" style="fill: none; stroke: #cccccc; stroke-linecap: round"/>
     </g>
     <g id="text_31">
      <!-- 6.0 -->
      <g style="fill: #262626" transform="translate(738.696609 206.497531) scale(0.1265 -0.1265)">
       <use xlink:href="#DejaVuSans-36"/>
       <use xlink:href="#DejaVuSans-2e" transform="translate(63.623047 0)"/>
       <use xlink:href="#DejaVuSans-30" transform="translate(95.410156 0)"/>
      </g>
     </g>
    </g>
    <g id="ytick_18">
     <g id="line2d_30">
      <path d="M 768.314062 164.687946 
L 1057.342062 164.687946 
" clip-path="url(#p737423ef00)" style="fill: none; stroke: #cccccc; stroke-linecap: round"/>
     </g>
     <g id="text_32">
      <!-- 6.5 -->
      <g style="fill: #262626" transform="translate(738.696609 169.493958) scale(0.1265 -0.1265)">
       <use xlink:href="#DejaVuSans-36"/>
       <use xlink:href="#DejaVuSans-2e" transform="translate(63.623047 0)"/>
       <use xlink:href="#DejaVuSans-35" transform="translate(95.410156 0)"/>
      </g>
     </g>
    </g>
    <g id="ytick_19">
     <g id="line2d_31">
      <path d="M 768.314062 127.684373 
L 1057.342062 127.684373 
" clip-path="url(#p737423ef00)" style="fill: none; stroke: #cccccc; stroke-linecap: round"/>
     </g>
     <g id="text_33">
      <!-- 7.0 -->
      <g style="fill: #262626" transform="translate(738.696609 132.490384) scale(0.1265 -0.1265)">
       <use xlink:href="#DejaVuSans-37"/>
       <use xlink:href="#DejaVuSans-2e" transform="translate(63.623047 0)"/>
       <use xlink:href="#DejaVuSans-30" transform="translate(95.410156 0)"/>
      </g>
     </g>
    </g>
    <g id="ytick_20">
     <g id="line2d_32">
      <path d="M 768.314062 90.680799 
L 1057.342062 90.680799 
" clip-path="url(#p737423ef00)" style="fill: none; stroke: #cccccc; stroke-linecap: round"/>
     </g>
     <g id="text_34">
      <!-- 7.5 -->
      <g style="fill: #262626" transform="translate(738.696609 95.486811) scale(0.1265 -0.1265)">
       <use xlink:href="#DejaVuSans-37"/>
       <use xlink:href="#DejaVuSans-2e" transform="translate(63.623047 0)"/>
       <use xlink:href="#DejaVuSans-35" transform="translate(95.410156 0)"/>
      </g>
     </g>
    </g>
    <g id="ytick_21">
     <g id="line2d_33">
      <path d="M 768.314062 53.677226 
L 1057.342062 53.677226 
" clip-path="url(#p737423ef00)" style="fill: none; stroke: #cccccc; stroke-linecap: round"/>
     </g>
     <g id="text_35">
      <!-- 8.0 -->
      <g style="fill: #262626" transform="translate(738.696609 58.483238) scale(0.1265 -0.1265)">
       <use xlink:href="#DejaVuSans-38"/>
       <use xlink:href="#DejaVuSans-2e" transform="translate(63.623047 0)"/>
       <use xlink:href="#DejaVuSans-30" transform="translate(95.410156 0)"/>
      </g>
     </g>
    </g>
    <g id="text_36">
     <!-- Лучший TPS -->
     <g style="fill: #262626" transform="translate(731.826641 223.952859) rotate(-90) scale(0.138 -0.138)">
      <use xlink:href="#DejaVuSans-41b"/>
      <use xlink:href="#DejaVuSans-443" transform="translate(75.195312 0)"/>
      <use xlink:href="#DejaVuSans-447" transform="translate(134.375 0)"/>
      <use xlink:href="#DejaVuSans-448" transform="translate(193.457031 0)"/>
      <use xlink:href="#DejaVuSans-438" transform="translate(284.960938 0)"/>
      <use xlink:href="#DejaVuSans-439" transform="translate(349.951172 0)"/>
      <use xlink:href="#DejaVuSans-20" transform="translate(414.941406 0)"/>
      <use xlink:href="#DejaVuSans-54" transform="translate(446.728516 0)"/>
      <use xlink:href="#DejaVuSans-50" transform="translate(507.8125 0)"/>
      <use xlink:href="#DejaVuSans-53" transform="translate(568.115234 0)"/>
     </g>
    </g>
   </g>
   <g id="patch_27">
    <path d="M 781.451699 645.734398 
L 862.995649 645.734398 
L 862.995649 260.293469 
L 781.451699 260.293469 
z
" clip-path="url(#p737423ef00)" style="fill: #78909c; stroke: #ffffff; stroke-linejoin: miter"/>
   </g>
   <g id="patch_28">
    <path d="M 872.056088 645.734398 
L 953.600037 645.734398 
L 953.600037 131.011664 
L 872.056088 131.011664 
z
" clip-path="url(#p737423ef00)" style="fill: #1565c0; stroke: #ffffff; stroke-linejoin: miter"/>
   </g>
   <g id="patch_29">
    <path d="M 962.660476 645.734398 
L 1044.204426 645.734398 
L 1044.204426 119.298024 
L 962.660476 119.298024 
z
" clip-path="url(#p737423ef00)" style="fill: #c62828; stroke: #ffffff; stroke-linejoin: miter"/>
   </g>
   <g id="LineCollection_7">
    <path d="M 822.223674 267.760635 
L 822.223674 252.826303 
" clip-path="url(#p737423ef00)" style="fill: none; stroke: #000000; stroke-width: 1.5"/>
   </g>
   <g id="line2d_34">
    <g clip-path="url(#p737423ef00)">
     <use xlink:href="#m04643586a2" x="822.223674" y="267.760635" style="fill: #4c72b0; stroke: #000000"/>
    </g>
   </g>
   <g id="line2d_35">
    <g clip-path="url(#p737423ef00)">
     <use xlink:href="#m04643586a2" x="822.223674" y="252.826303" style="fill: #4c72b0; stroke: #000000"/>
    </g>
   </g>
   <g id="LineCollection_8">
    <path d="M 912.828062 140.427134 
L 912.828062 121.596194 
" clip-path="url(#p737423ef00)" style="fill: none; stroke: #000000; stroke-width: 1.5"/>
   </g>
   <g id="line2d_36">
    <g clip-path="url(#p737423ef00)">
     <use xlink:href="#m04643586a2" x="912.828062" y="140.427134" style="fill: #4c72b0; stroke: #000000"/>
    </g>
   </g>
   <g id="line2d_37">
    <g clip-path="url(#p737423ef00)">
     <use xlink:href="#m04643586a2" x="912.828062" y="121.596194" style="fill: #4c72b0; stroke: #000000"/>
    </g>
   </g>
   <g id="LineCollection_9">
    <path d="M 1003.432451 145.608746 
L 1003.432451 92.987302 
" clip-path="url(#p737423ef00)" style="fill: none; stroke: #000000; stroke-width: 1.5"/>
   </g>
   <g id="line2d_38">
    <g clip-path="url(#p737423ef00)">
     <use xlink:href="#m04643586a2" x="1003.432451" y="145.608746" style="fill: #4c72b0; stroke: #000000"/>
    </g>
   </g>
   <g id="line2d_39">
    <g clip-path="url(#p737423ef00)">
     <use xlink:href="#m04643586a2" x="1003.432451" y="92.987302" style="fill: #4c72b0; stroke: #000000"/>
    </g>
   </g>
   <g id="patch_30">
    <path d="M 768.314062 337.669969 
L 768.314062 23.077969 
" style="fill: none; stroke: #cccccc; stroke-width: 1.25; stroke-linejoin: miter; stroke-linecap: square"/>
   </g>
   <g id="patch_31">
    <path d="M 1057.342062 337.669969 
L 1057.342062 23.077969 
" style="fill: none; stroke: #cccccc; stroke-width: 1.25; stroke-linejoin: miter; stroke-linecap: square"/>
   </g>
   <g id="patch_32">
    <path d="M 768.314062 337.669969 
L 1057.342062 337.669969 
" style="fill: none; stroke: #cccccc; stroke-width: 1.25; stroke-linejoin: miter; stroke-linecap: square"/>
   </g>
   <g id="patch_33">
    <path d="M 768.314062 23.077969 
L 1057.342062 23.077969 
" style="fill: none; stroke: #cccccc; stroke-width: 1.25; stroke-linejoin: miter; stroke-linecap: square"/>
   </g>
   <g id="text_37">
    <!-- +33.5% -->
    <g style="fill: #1565c0" transform="translate(891.292125 114.797626) scale(0.1 -0.1)">
     <defs>
      <path id="DejaVuSans-Bold-35" d="M 678 4666 
L 3669 4666 
L 3669 3781 
L 1638 3781 
L 1638 3059 
Q 1775 3097 1914 3117 
Q 2053 3138 2203 3138 
Q 3056 3138 3531 2711 
Q 4006 2284 4006 1522 
Q 4006 766 3489 337 
Q 2972 -91 2053 -91 
Q 1656 -91 1267 -14 
Q 878 63 494 219 
L 494 1166 
Q 875 947 1217 837 
Q 1559 728 1863 728 
Q 2300 728 2551 942 
Q 2803 1156 2803 1522 
Q 2803 1891 2551 2103 
Q 2300 2316 1863 2316 
Q 1603 2316 1309 2248 
Q 1016 2181 678 2041 
L 678 4666 
z
" transform="scale(0.015625)"/>
     </defs>
     <use xlink:href="#DejaVuSans-Bold-2b"/>
     <use xlink:href="#DejaVuSans-Bold-33" transform="translate(83.789062 0)"/>
     <use xlink:href="#DejaVuSans-Bold-33" transform="translate(153.369141 0)"/>
     <use xlink:href="#DejaVuSans-Bold-2e" transform="translate(222.949219 0)"/>
     <use xlink:href="#DejaVuSans-Bold-35" transform="translate(260.9375 0)"/>
     <use xlink:href="#DejaVuSans-Bold-25" transform="translate(330.517578 0)"/>
    </g>
   </g>
   <g id="text_38">
    <!-- +36.6% -->
    <g style="fill: #c62828" transform="translate(981.896514 86.188735) scale(0.1 -0.1)">
     <use xlink:href="#DejaVuSans-Bold-2b"/>
     <use xlink:href="#DejaVuSans-Bold-33" transform="translate(83.789062 0)"/>
     <use xlink:href="#DejaVuSans-Bold-36" transform="translate(153.369141 0)"/>
     <use xlink:href="#DejaVuSans-Bold-2e" transform="translate(222.949219 0)"/>
     <use xlink:href="#DejaVuSans-Bold-36" transform="translate(260.9375 0)"/>
     <use xlink:href="#DejaVuSans-Bold-25" transform="translate(330.517578 0)"/>
    </g>
   </g>
   <g id="text_39">
    <!-- OLAP — TPS -->
    <g style="fill: #262626" transform="translate(868.460484 17.077969) scale(0.13 -0.13)">
     <defs>
      <path id="DejaVuSans-Bold-41" d="M 3419 850 
L 1538 850 
L 1241 0 
L 31 0 
L 1759 4666 
L 3194 4666 
L 4922 0 
L 3713 0 
L 3419 850 
z
M 1838 1716 
L 3116 1716 
L 2478 3572 
L 1838 1716 
z
" transform="scale(0.015625)"/>
     </defs>
     <use xlink:href="#DejaVuSans-Bold-4f"/>
     <use xlink:href="#DejaVuSans-Bold-4c" transform="translate(85.009766 0)"/>
     <use xlink:href="#DejaVuSans-Bold-41" transform="translate(148.730469 0)"/>
     <use xlink:href="#DejaVuSans-Bold-50" transform="translate(226.123047 0)"/>
     <use xlink:href="#DejaVuSans-Bold-20" transform="translate(299.414062 0)"/>
     <use xlink:href="#DejaVuSans-Bold-2014" transform="translate(334.228516 0)"/>
     <use xlink:href="#DejaVuSans-Bold-20" transform="translate(434.228516 0)"/>
     <use xlink:href="#DejaVuSans-Bold-54" transform="translate(469.042969 0)"/>
     <use xlink:href="#DejaVuSans-Bold-50" transform="translate(537.255859 0)"/>
     <use xlink:href="#DejaVuSans-Bold-53" transform="translate(610.546875 0)"/>
    </g>
   </g>
   <g id="legend_3">
    <g id="patch_34">
     <path d="M 985.977766 72.510625 
L 1050.692062 72.510625 
Q 1052.592062 72.510625 1052.592062 70.610625 
L 1052.592062 29.727969 
Q 1052.592062 27.827969 1050.692062 27.827969 
L 985.977766 27.827969 
Q 984.077766 27.827969 984.077766 29.727969 
L 984.077766 70.610625 
Q 984.077766 72.510625 985.977766 72.510625 
z
" style="fill: #ffffff; opacity: 0.9; stroke: #cccccc; stroke-linejoin: miter"/>
    </g>
    <g id="patch_35">
     <path d="M 987.877766 38.846484 
L 1006.877766 38.846484 
L 1006.877766 32.196484 
L 987.877766 32.196484 
z
" style="fill: #78909c; stroke: #ffffff; stroke-linejoin: miter"/>
    </g>
    <g id="text_40">
     <!-- pgTune -->
     <g style="fill: #262626" transform="translate(1014.477766 38.846484) scale(0.095 -0.095)">
      <use xlink:href="#DejaVuSans-70"/>
      <use xlink:href="#DejaVuSans-67" transform="translate(63.476562 0)"/>
      <use xlink:href="#DejaVuSans-54" transform="translate(126.953125 0)"/>
      <use xlink:href="#DejaVuSans-75" transform="translate(172.912109 0)"/>
      <use xlink:href="#DejaVuSans-6e" transform="translate(236.291016 0)"/>
      <use xlink:href="#DejaVuSans-65" transform="translate(299.669922 0)"/>
     </g>
    </g>
    <g id="patch_36">
     <path d="M 987.877766 52.790703 
L 1006.877766 52.790703 
L 1006.877766 46.140703 
L 987.877766 46.140703 
z
" style="fill: #1565c0; stroke: #ffffff; stroke-linejoin: miter"/>
    </g>
    <g id="text_41">
     <!-- SMAC -->
     <g style="fill: #262626" transform="translate(1014.477766 52.790703) scale(0.095 -0.095)">
      <use xlink:href="#DejaVuSans-53"/>
      <use xlink:href="#DejaVuSans-4d" transform="translate(63.476562 0)"/>
      <use xlink:href="#DejaVuSans-41" transform="translate(149.755859 0)"/>
      <use xlink:href="#DejaVuSans-43" transform="translate(216.414062 0)"/>
     </g>
    </g>
    <g id="patch_37">
     <path d="M 987.877766 66.734922 
L 1006.877766 66.734922 
L 1006.877766 60.084922 
L 987.877766 60.084922 
z
" style="fill: #c62828; stroke: #ffffff; stroke-linejoin: miter"/>
    </g>
    <g id="text_42">
     <!-- TPE -->
     <g style="fill: #262626" transform="translate(1014.477766 66.734922) scale(0.095 -0.095)">
      <use xlink:href="#DejaVuSans-54"/>
      <use xlink:href="#DejaVuSans-50" transform="translate(61.083984 0)"/>
      <use xlink:href="#DejaVuSans-45" transform="translate(121.386719 0)"/>
     </g>
    </g>
   </g>
  </g>
 </g>
 <defs>
  <clipPath id="p93639fe434">
   <rect x="66.250062" y="23.077969" width="289.028" height="314.592"/>
  </clipPath>
  <clipPath id="pde378401c6">
   <rect x="417.282062" y="23.077969" width="289.028" height="314.592"/>
  </clipPath>
  <clipPath id="p737423ef00">
   <rect x="768.314062" y="23.077969" width="289.028" height="314.592"/>
  </clipPath>
 </defs>
</svg>
